<svg width="12" height="12" viewBox="0 0 12 12" fill="none" xmlns="http://www.w3.org/2000/svg">
<path d="M11.5232 1.30414C11.5232 1.55278 11.4245 1.79124 11.2486 1.96705L3.56814 9.64756L9.25991 9.64623C9.50886 9.64623 9.74762 9.74513 9.92366 9.92116C10.0997 10.0972 10.1986 10.336 10.1986 10.5849C10.1986 10.8339 10.0997 11.0726 9.92366 11.2487C9.74762 11.4247 9.50886 11.5236 9.25991 11.5236L1.30496 11.5236C1.18164 11.5238 1.05951 11.4996 0.945554 11.4525C0.831597 11.4053 0.728056 11.3362 0.64086 11.249C0.553664 11.1618 0.484527 11.0583 0.437409 10.9443C0.390291 10.8304 0.366117 10.7082 0.366273 10.5849L0.366273 2.62996C0.366273 2.38101 0.46517 2.14225 0.641208 1.96621C0.817246 1.79018 1.056 1.69128 1.30496 1.69128C1.55391 1.69128 1.79267 1.79018 1.96871 1.96621C2.14475 2.14225 2.24364 2.38101 2.24364 2.62996L2.24231 8.32173L9.92282 0.641226C10.0986 0.465411 10.3371 0.366639 10.5857 0.366639C10.8344 0.366639 11.0728 0.465411 11.2486 0.641226C11.4245 0.817042 11.5232 1.0555 11.5232 1.30414Z" fill="#282A33"/>
</svg>
