<svg width="12" height="12" viewBox="0 0 12 12" fill="none" xmlns="http://www.w3.org/2000/svg">
<path d="M0.365436 10.5865C0.365436 10.3378 0.464209 10.0994 0.640024 9.92357L8.32053 2.24307L2.62876 2.24439C2.37981 2.24439 2.14105 2.1455 1.96501 1.96946C1.78897 1.79342 1.69008 1.55466 1.69008 1.30571C1.69008 1.05675 1.78897 0.817998 1.96501 0.64196C2.14105 0.465923 2.37981 0.367024 2.62876 0.367024L10.5837 0.367024C10.707 0.366869 10.8292 0.391043 10.9431 0.438161C11.0571 0.48528 11.1606 0.554415 11.2478 0.641611C11.335 0.728807 11.4041 0.832349 11.4513 0.946306C11.4984 1.06026 11.5226 1.18239 11.5224 1.30571L11.5224 9.26066C11.5224 9.50961 11.4235 9.74837 11.2475 9.92441C11.0714 10.1004 10.8327 10.1993 10.5837 10.1993C10.3348 10.1993 10.096 10.1004 9.91996 9.92441C9.74393 9.74837 9.64503 9.50961 9.64503 9.26066L9.64636 3.56889L1.96585 11.2494C1.79003 11.4252 1.55158 11.524 1.30294 11.524C1.0543 11.524 0.815839 11.4252 0.640024 11.2494C0.464208 11.0736 0.365436 10.8351 0.365436 10.5865Z" fill="#282A33"/>
</svg>
