<svg width="18" height="18" viewBox="0 0 18 18" fill="none" xmlns="http://www.w3.org/2000/svg">
<path d="M3.16741 1.52322L8.99941 7.35522L14.8074 1.54722C14.9092 1.43888 15.0318 1.35221 15.1679 1.29241C15.304 1.23261 15.4508 1.20092 15.5994 1.19922C15.9177 1.19922 16.2229 1.32565 16.4479 1.55069C16.673 1.77573 16.7994 2.08096 16.7994 2.39922C16.8022 2.54634 16.7749 2.69248 16.7192 2.82868C16.6635 2.96487 16.5805 3.08824 16.4754 3.19122L10.6074 8.99922L16.4754 14.8672C16.6732 15.0607 16.7892 15.3227 16.7994 15.5992C16.7994 15.9175 16.673 16.2227 16.4479 16.4477C16.2229 16.6728 15.9177 16.7992 15.5994 16.7992C15.4465 16.8056 15.2939 16.78 15.1514 16.7243C15.0088 16.6685 14.8794 16.5837 14.7714 16.4752L8.99941 10.6432L3.17941 16.4632C3.07802 16.5679 2.95689 16.6516 2.82302 16.7092C2.68914 16.7669 2.54517 16.7975 2.39941 16.7992C2.08115 16.7992 1.77593 16.6728 1.55089 16.4477C1.32584 16.2227 1.19941 15.9175 1.19941 15.5992C1.19662 15.4521 1.22391 15.306 1.27963 15.1698C1.33534 15.0336 1.4183 14.9102 1.52341 14.8072L7.39141 8.99922L1.52341 3.13122C1.32564 2.93773 1.20966 2.67571 1.19941 2.39922C1.19941 2.08096 1.32584 1.77573 1.55089 1.55069C1.77593 1.32565 2.08115 1.19922 2.39941 1.19922C2.68741 1.20282 2.96341 1.31922 3.16741 1.52322Z" fill="white"/>
</svg>
