<svg width="40" height="40" viewBox="0 0 40 40" fill="none" xmlns="http://www.w3.org/2000/svg">
<g clip-path="url(#clip0_2195_418)">
<path d="M3.89949 1.88627L3.89949 3.77417H1.94974H0L0 21.889L0 40L18.0914 40H36.1827V38.0934V36.183H38.0912H39.9997L39.9997 18.0907V-0.00162074H21.9496L3.89949 -0.00162074L3.89949 1.88627ZM39.3323 18.0907L39.3323 35.5163H37.7763H36.2202L36.2202 19.6452V3.77417H20.3936L4.5669 3.77417V2.2234L4.5669 0.668881L21.9496 0.668881H39.3323V18.0907ZM3.89949 20.3344L3.89949 36.2242L19.7037 36.2242H35.5116V37.7787V39.3295H18.0914L0.671162 39.3295L0.671162 21.889L0.671162 4.44467H2.28345H3.89949L3.89949 20.3344ZM5.11808 4.47089C5.08433 4.48587 4.94935 4.53457 4.81437 4.58701L4.5669 4.67691V4.56079V4.44467L4.87061 4.44841C5.03934 4.44841 5.15182 4.45965 5.11808 4.47089ZM7.2628 4.49711C7.04907 4.64694 6.61413 4.89417 6.23168 5.08895C5.84548 5.28373 4.67189 5.78193 4.5969 5.78193C4.5819 5.78193 4.5669 5.67704 4.5669 5.54969V5.32119L4.87061 5.20132C5.03934 5.13765 5.31305 5.03651 5.47803 4.97658C5.64301 4.91664 5.97297 4.7743 6.20544 4.66193C6.62163 4.45591 6.64413 4.45216 6.98533 4.44841C7.29654 4.44467 7.33029 4.45216 7.2628 4.49711ZM8.65386 4.57952C8.53013 4.65443 8.0352 4.97658 7.55151 5.30246C7.06782 5.6246 6.53164 5.97296 6.35917 6.07785C6.06295 6.2539 4.63064 6.99932 4.58565 6.99932C4.5744 6.99932 4.5669 6.8832 4.5744 6.74086L4.58565 6.47865L5.21557 6.19771C6.02546 5.83437 6.55414 5.53845 7.46902 4.93163L8.20767 4.44467H8.54513H8.87883L8.65386 4.57952ZM10.3149 4.56828C9.22754 5.18634 8.31641 5.77069 7.20655 6.56106C6.25793 7.23531 4.65689 8.29912 4.5894 8.29912C4.57815 8.29912 4.5669 8.17551 4.5669 8.02567V7.75597L4.89311 7.56868C5.78174 7.05551 6.21293 6.7933 6.75286 6.42995C7.07532 6.20895 7.69774 5.79316 8.12893 5.50099C8.56388 5.21256 9.13005 4.85296 9.38877 4.71062L9.86121 4.44467H10.1987H10.5324L10.3149 4.56828ZM11.5747 4.63196C11.4135 4.7331 11.0386 4.97658 10.7498 5.1751C7.69774 7.22407 7.75398 7.18661 6.4379 8.28039C5.41804 9.1232 4.99809 9.46032 4.74313 9.63638L4.5669 9.75999V9.44909L4.5669 9.14193L5.00934 8.83102C5.24931 8.65497 5.90547 8.16427 6.4679 7.73725C7.02658 7.31022 7.69024 6.81577 7.94521 6.63597C8.43639 6.28387 10.2587 5.10768 10.9448 4.69189C11.3423 4.45591 11.3685 4.44467 11.616 4.44467L11.8709 4.44841L11.5747 4.63196ZM12.6283 4.71811C11.9759 5.10019 11.376 5.53096 10.3749 6.32882C9.8987 6.71089 9.1638 7.28025 8.7401 7.5949C7.75773 8.33283 7.30029 8.74862 6.26168 9.84989C5.48553 10.674 5.00559 11.116 4.68688 11.2995L4.5669 11.3707V11.0186V10.6627L4.75438 10.5354C5.02059 10.3556 5.3393 10.0746 6.23918 9.22434C7.30779 8.21671 7.77273 7.8234 8.56388 7.26527C8.93133 7.00306 9.66623 6.46741 10.1987 6.07785C11.3873 5.19758 11.601 5.05149 12.1447 4.71437C12.5646 4.45591 12.5871 4.44467 12.8346 4.44467H13.0895L12.6283 4.71811ZM16.6103 4.59825C17.1652 4.84547 17.4465 5.04025 17.8739 5.46728C18.3313 5.92052 18.5826 6.28387 18.8188 6.8345C18.9575 7.16413 19.1937 7.88333 19.235 8.11932C19.2462 8.183 19.2912 8.35905 19.3325 8.51263C19.3737 8.66621 19.415 8.84226 19.4262 8.90969C19.4374 8.97337 19.4937 9.24681 19.5499 9.51651C19.6062 9.78995 19.6962 10.2207 19.7487 10.4829C19.9511 11.4606 20.1611 12.1011 20.4423 12.6255C20.986 13.6294 22.1746 14.8468 23.0332 15.2813C23.1457 15.3375 23.2657 15.3937 23.3032 15.4012C23.3369 15.4087 23.4719 15.4461 23.6032 15.4836C23.9031 15.5698 24.503 15.5698 24.8217 15.4836C24.953 15.4499 25.1105 15.4124 25.1704 15.4012C25.2792 15.3825 25.5529 15.2888 26.0816 15.0865C26.2128 15.0378 26.4153 14.9592 26.5353 14.9142C26.8202 14.8056 27.5026 14.5884 27.6339 14.5659C27.6901 14.5584 27.8513 14.5134 27.9938 14.4722C28.1326 14.431 28.3088 14.3898 28.3875 14.3748C28.9162 14.2849 30.0261 13.9029 30.611 13.6032C32.4632 12.6593 33.0669 12.3671 33.8206 12.0487C34.5067 11.7565 35.4403 11.4044 35.5303 11.4044C35.5416 11.4044 35.5528 11.4943 35.5528 11.5992C35.5528 11.7902 35.5491 11.7902 35.4029 11.8164C35.1516 11.8614 34.263 12.176 33.4831 12.4907C32.5307 12.8728 32.107 13.0675 31.1884 13.5283C30.146 14.0527 29.8011 14.1801 28.74 14.4348C27.5026 14.7344 27.0677 14.8618 26.299 15.1427C25.5154 15.4349 25.1517 15.5435 24.7655 15.6185C24.2743 15.7084 24.0456 15.7121 23.6819 15.6297C23.5282 15.5997 23.3632 15.5623 23.3144 15.551C22.932 15.4761 22.1971 14.9442 21.5297 14.2662C20.9335 13.6669 20.566 13.1799 20.2998 12.6443C20.1236 12.2959 19.8986 11.7265 19.8649 11.5467C19.8574 11.498 19.8124 11.3257 19.7674 11.1647C19.7262 11.0073 19.6774 10.8238 19.6662 10.7564C19.6549 10.6927 19.6024 10.4342 19.5499 10.187C19.4974 9.93979 19.4075 9.50527 19.3475 9.22434C19.2162 8.59878 19.0475 7.9133 18.9125 7.49377C18.4551 6.04039 17.4315 5.02902 16.0441 4.65818C15.1593 4.42219 14.6343 4.45591 13.7419 4.80801C12.8721 5.15263 11.9497 5.80815 10.6898 6.98059C10.3224 7.3252 9.58374 8.00694 9.05506 8.49765C7.71649 9.73377 7.46902 10.0185 6.53914 11.4081C5.75549 12.5694 5.3018 13.0114 4.71313 13.1687L4.5669 13.2099L4.5669 12.8016C4.5669 12.4345 4.5744 12.3933 4.64189 12.3708C4.68688 12.3558 4.84811 12.2622 5.00934 12.1573C5.3318 11.9438 5.79299 11.4793 6.19794 10.9549C7.16531 9.7038 7.74648 9.09323 8.83759 8.183C9.27253 7.81965 9.94369 7.2428 10.3336 6.90193C11.6535 5.74447 12.4371 5.17136 13.2583 4.75932C13.9182 4.42969 13.8169 4.44841 15.1368 4.45591L16.3179 4.4634L16.6103 4.59825ZM17.5814 4.53082C17.8102 4.69938 18.2001 5.10019 18.4213 5.38862C18.6501 5.68454 19.0175 6.28387 19.0175 6.36253C19.0175 6.385 19.0625 6.50112 19.115 6.62099C19.1712 6.74086 19.2237 6.87945 19.2312 6.92815C19.2425 6.97684 19.2875 7.12293 19.3287 7.25778C19.3737 7.38888 19.4187 7.53872 19.4262 7.58367C19.4374 7.63236 19.4899 7.83464 19.5424 8.03316C19.6474 8.42648 19.7749 8.96962 19.9399 9.7525C20.2586 11.2696 20.3523 11.6179 20.596 12.1348C21.0122 13.0114 21.7509 13.9291 22.5533 14.5584C23.5582 15.3525 24.413 15.4087 25.9841 14.7981C26.5615 14.5734 27.1502 14.3636 27.4989 14.2625C27.6939 14.2063 28.0126 14.1126 28.2075 14.0564C29.3999 13.7156 29.8648 13.5283 30.6447 13.0788C30.9484 12.899 31.4321 12.6218 31.7133 12.4607C33.1194 11.6441 34.7392 10.8051 35.2866 10.6065L35.5528 10.5129V10.7002V10.8875L35.3429 10.9549C34.7129 11.1609 32.5495 12.2172 31.3384 12.9065C30.4947 13.3859 30.0523 13.6107 29.6661 13.7605C29.3399 13.8879 28.6387 14.1089 28.4813 14.1351C28.3613 14.1576 27.7051 14.3411 27.2439 14.4797C26.8202 14.6108 26.7527 14.6333 25.6879 15.0453C25.5379 15.1015 25.3879 15.1577 25.3542 15.1615C25.3204 15.169 25.1517 15.2176 24.9792 15.2663C24.5368 15.3937 23.9069 15.3937 23.5432 15.2663C22.6845 14.9667 21.8896 14.3037 21.0272 13.1574C20.731 12.7679 20.3186 11.9326 20.1873 11.4643C20.0674 11.0411 19.8874 10.2619 19.8649 10.0671C19.8536 9.99223 19.8086 9.77123 19.7637 9.57644C19.7187 9.38166 19.6699 9.16066 19.6624 9.08574C19.6512 9.01082 19.5987 8.77109 19.5424 8.55383C19.145 6.98808 18.965 6.49363 18.5526 5.86059C18.2863 5.45604 17.6714 4.83049 17.334 4.62821C17.199 4.54581 17.0865 4.47089 17.0865 4.45965C17.0865 4.45216 17.1727 4.44467 17.2777 4.44467C17.4127 4.44467 17.5027 4.47089 17.5814 4.53082ZM18.3801 4.58326C18.6013 4.83423 18.9875 5.43731 19.1562 5.80066C19.3925 6.30634 19.6399 7.09671 19.9324 8.28039C20.1686 9.23557 20.2398 9.54648 20.2548 9.65885C20.2623 9.72253 20.3073 9.92106 20.3523 10.0934C20.3936 10.2694 20.4423 10.4792 20.4573 10.5616C20.4686 10.644 20.5136 10.8275 20.5586 10.9661C20.5998 11.1085 20.641 11.2508 20.6485 11.292C20.656 11.3295 20.7198 11.4906 20.7873 11.6479C21.286 12.8316 22.2458 14.0115 23.1232 14.5322C23.9669 15.0266 24.6305 15.0191 25.9241 14.4947C26.689 14.1838 27.2627 13.9703 27.4052 13.9441C27.5439 13.9178 28.7437 13.5133 29.2012 13.341C29.5986 13.1912 30.236 12.8241 31.1884 12.1985C31.7133 11.8576 32.2608 11.5018 32.4032 11.4156C32.542 11.3295 32.9319 11.086 33.2694 10.8762C34.1693 10.3069 34.4955 10.1196 35.0242 9.86487C35.2866 9.73751 35.5153 9.63638 35.5266 9.63638C35.5416 9.63638 35.5528 9.72253 35.5528 9.82741C35.5528 10.0072 35.5416 10.0222 35.4441 10.0484C35.2716 10.0896 34.4317 10.5017 33.9555 10.7751C33.4569 11.0635 32.1333 11.8464 31.9308 11.9738C31.7096 12.1124 30.836 12.6593 30.491 12.8728C29.9098 13.2361 29.3474 13.4796 28.425 13.7718C28.1551 13.8542 27.7914 13.9703 27.6226 14.0265C27.4501 14.0827 27.2702 14.1351 27.2177 14.1463C27.1164 14.1613 26.869 14.255 26.1603 14.5397C25.6991 14.7269 25.0467 14.9442 24.8855 14.9704C24.548 15.0229 24.1131 15.0304 23.8731 14.9854C23.5019 14.9217 22.9657 14.652 22.6208 14.3561C21.8371 13.6968 21.1997 12.8877 20.806 12.0599C20.5323 11.4793 20.4348 11.1497 20.1761 9.95103C20.1199 9.68133 20.0299 9.27678 19.9774 9.05577C19.9249 8.83477 19.8724 8.58755 19.8574 8.50888C19.8461 8.42648 19.8012 8.25417 19.7637 8.12306C19.7224 7.99196 19.6774 7.8234 19.6662 7.74848C19.6399 7.59116 19.4937 7.11169 19.3175 6.58728C19.0962 5.92427 18.7775 5.37738 18.2789 4.78928L17.9864 4.44467H18.1214C18.2301 4.44467 18.2863 4.47464 18.3801 4.58326ZM19.04 4.71062C19.4674 5.47102 19.6699 5.99544 19.9361 7.04052C19.9961 7.26902 20.0899 7.61738 20.1424 7.81965C20.1986 8.02193 20.2511 8.23544 20.2623 8.29163C20.2698 8.35156 20.3111 8.52012 20.3561 8.6737C20.3973 8.82353 20.4423 9.01082 20.4536 9.08574C20.4648 9.16066 20.5211 9.37791 20.5735 9.56521C20.626 9.7525 20.6673 9.9323 20.6673 9.95852C20.6673 10.0334 20.8585 10.7077 20.986 11.0935C21.2035 11.7378 21.5559 12.4008 22.0171 13.0151C22.527 13.6968 23.0257 14.1201 23.6294 14.3861C23.9144 14.5097 24.0081 14.5322 24.3381 14.5434C24.6643 14.5584 24.7692 14.5471 25.103 14.4535C25.3129 14.3936 25.6579 14.2737 25.8641 14.1875C26.5353 13.9104 26.6328 13.8729 27.8926 13.4271C29.2874 12.9327 29.7411 12.6817 31.3271 11.5205C33.5131 9.92106 34.5405 9.23183 35.1704 8.93591C35.5303 8.76735 35.5528 8.77109 35.5528 8.98835C35.5528 9.10822 35.5341 9.1644 35.4966 9.1644C35.4104 9.1644 34.6867 9.53149 34.2892 9.77872C33.8918 10.0222 32.9919 10.6215 31.9158 11.3632C31.5484 11.6142 30.9784 12.0075 30.6447 12.236C30.311 12.4645 29.8723 12.7417 29.6736 12.8503C29.3511 13.0263 28.7475 13.2998 28.6425 13.3185C28.62 13.3223 28.4888 13.371 28.3463 13.4234C28.2038 13.4758 27.7876 13.6219 27.4201 13.7418C27.0527 13.8617 26.4415 14.0864 26.0628 14.24C24.8855 14.7195 24.3606 14.7981 23.7269 14.5921C23.4119 14.491 22.8757 14.1463 22.5345 13.8317C22.0584 13.3934 21.4772 12.5843 21.1435 11.8989C20.971 11.543 20.731 10.8875 20.6898 10.6515C20.6785 10.6028 20.626 10.3818 20.5735 10.1683C20.5211 9.95103 20.4311 9.56895 20.3748 9.32173C20.2136 8.59878 19.9249 7.46755 19.7749 6.96186C19.7224 6.77831 19.6699 6.58353 19.6587 6.53109C19.6399 6.42621 19.5049 6.06286 19.3437 5.68454C19.2125 5.38487 19.0025 4.99905 18.8113 4.71062C18.7288 4.59076 18.6613 4.47838 18.6613 4.46714C18.6613 4.45591 18.7138 4.44467 18.7775 4.44467C18.875 4.44467 18.9088 4.47838 19.04 4.71062ZM19.5724 4.81176C19.7787 5.2725 20.1799 6.56106 20.2586 7.02179C20.2698 7.08547 20.3148 7.25403 20.3561 7.39263C20.3936 7.53497 20.4386 7.70353 20.4498 7.76721C20.4611 7.83464 20.5136 8.05564 20.5735 8.25791C20.6298 8.46393 20.716 8.79357 20.7685 8.98835C21.0947 10.2432 21.2185 10.6552 21.4097 11.131C21.7921 12.0824 22.2421 12.7941 22.8308 13.3747C23.1945 13.7381 23.2957 13.813 23.6406 13.9853L24.0343 14.1801L24.5293 14.1726C25.0692 14.1688 25.2717 14.1164 26.0703 13.7643C26.5428 13.5545 27.1914 13.2998 27.5776 13.1687C27.9563 13.0413 28.74 12.6967 29.1149 12.4944C29.6474 12.206 30.1085 11.8839 30.9672 11.1871C33.8093 8.8947 34.7129 8.24293 35.4029 8.0032L35.5528 7.94701V8.12681C35.5528 8.27664 35.5378 8.31036 35.4666 8.32908C35.2904 8.37403 34.6904 8.69243 34.3305 8.92842C33.9443 9.18313 31.9196 10.6852 31.3571 11.1347C30.8697 11.528 30.1235 12.0861 29.8423 12.2697C29.5536 12.4607 28.7512 12.8765 28.425 13.0039C27.9038 13.2099 27.6526 13.3035 27.6001 13.3148C27.5664 13.3223 27.4876 13.3485 27.4201 13.3747C27.3564 13.4009 27.1689 13.4721 27.0077 13.532C26.644 13.6631 26.4153 13.7568 25.9841 13.9403C25.2267 14.2662 24.983 14.3299 24.488 14.3299C24.0568 14.3336 24.0193 14.3261 23.7419 14.2025C22.8607 13.8092 22.1521 13.0376 21.5334 11.7977C21.2785 11.2883 20.9597 10.4118 20.8923 10.0259C20.881 9.96975 20.836 9.78621 20.7873 9.61765C20.7385 9.44909 20.6935 9.26554 20.6823 9.20935C20.6748 9.15317 20.6223 8.94715 20.5735 8.75236C20.5211 8.55758 20.4311 8.21296 20.3711 7.98447C20.3148 7.75597 20.2248 7.41885 20.1724 7.23156C20.1199 7.04052 20.0786 6.86447 20.0786 6.83825C20.0786 6.77082 19.9136 6.19771 19.7562 5.72199C19.6887 5.52721 19.5424 5.16761 19.4262 4.92039C19.31 4.67316 19.2125 4.4634 19.2125 4.45591C19.2125 4.44841 19.2575 4.44467 19.3137 4.45216C19.4 4.4634 19.4374 4.51959 19.5724 4.81176ZM20.0299 4.85671C20.1761 5.29872 20.4273 6.23517 20.4536 6.43745C20.4686 6.55731 20.5061 6.71089 20.7723 7.76721C20.9223 8.35156 21.181 9.25805 21.3834 9.90982C21.7884 11.2021 22.3808 12.3671 22.962 13.0001C23.3444 13.4197 23.8581 13.7268 24.3193 13.8055C24.7955 13.8916 25.1742 13.8017 26.2016 13.3635C26.5578 13.2099 27.2177 12.9327 27.4801 12.8203C29.1599 12.1311 29.5349 11.8651 32.047 9.60266C32.7445 8.97337 34.0268 7.96574 34.5667 7.62487C34.8517 7.44507 35.3504 7.17537 35.4628 7.14166C35.5453 7.11544 35.5528 7.12668 35.5528 7.284V7.45631L35.2154 7.60614C34.4842 7.93577 32.8607 9.16066 31.1809 10.6515C29.8161 11.8651 28.9949 12.3858 27.6376 12.9177C27.3227 13.0413 26.9702 13.1837 26.8502 13.2324C25.9953 13.6032 25.7704 13.6968 25.4929 13.798C24.773 14.0564 24.2518 14.0452 23.6931 13.7568C22.9357 13.3672 22.3433 12.6368 21.7584 11.3669C21.5859 10.9924 21.1022 9.6139 21.1022 9.49404C21.1022 9.46407 21.0572 9.30674 21.0047 9.13818C20.9522 8.96962 20.8998 8.78607 20.8923 8.72989C20.881 8.6737 20.836 8.49765 20.7873 8.33658C20.7385 8.17551 20.6935 8.00694 20.686 7.96199C20.6823 7.91704 20.6335 7.71102 20.5773 7.50875C20.5211 7.30648 20.4311 6.93564 20.3748 6.68467C20.3148 6.43745 20.2248 6.07785 20.1724 5.88681C20.1161 5.69577 20.0674 5.50099 20.0561 5.45979C20.0486 5.41858 20.0036 5.28373 19.9586 5.16012C19.9136 5.03651 19.8686 4.90915 19.8611 4.87544C19.8536 4.84547 19.8124 4.7331 19.7674 4.62821L19.6849 4.44092L19.7937 4.45216C19.8911 4.4634 19.9099 4.49711 20.0299 4.85671ZM20.3898 4.60948C20.4161 4.69938 20.4461 4.80801 20.4573 4.85296C20.4648 4.89791 20.5136 5.11142 20.566 5.32868C20.6185 5.54594 20.7085 5.96173 20.7648 6.2539C20.8998 6.93564 21.121 7.87584 21.2185 8.15678C21.2597 8.28039 21.2897 8.37778 21.2785 8.37778C21.271 8.37778 21.316 8.52761 21.3797 8.71116C21.4397 8.8947 21.4847 9.04454 21.4772 9.04454C21.4697 9.04454 21.5072 9.15691 21.5597 9.29176C21.6122 9.42661 21.6609 9.5727 21.6684 9.61765C21.6834 9.69256 21.7209 9.78621 22.0359 10.5991C22.3883 11.5055 22.8907 12.3746 23.2994 12.7829C23.6931 13.1724 24.2818 13.4534 24.7055 13.4496C24.8892 13.4496 25.4217 13.3298 25.6504 13.2361C26.5203 12.8765 28.4363 11.97 28.74 11.7715C29.5986 11.2096 29.8723 10.9774 31.3196 9.55771C32.4482 8.44895 33.4794 7.58367 34.5705 6.83076C34.9642 6.56106 35.4666 6.2539 35.5191 6.2539C35.5378 6.2539 35.5528 6.33256 35.5528 6.42995V6.60601L35.2791 6.7446C34.7317 7.01805 34.1543 7.4226 33.0969 8.2729C32.4745 8.77109 32.377 8.85725 31.1997 9.96975C29.4599 11.6179 28.8862 12.0037 26.989 12.8016C26.9215 12.8278 26.629 12.9589 26.3403 13.0863C25.3992 13.5058 25.0692 13.6069 24.6568 13.6069C23.5769 13.6069 22.5608 12.4982 21.8221 10.5054C21.7471 10.2956 21.6497 10.0409 21.6084 9.9323C21.5672 9.82367 21.5259 9.69631 21.5184 9.65136C21.5109 9.60641 21.4584 9.43785 21.4059 9.27678C21.2522 8.81604 21.0985 8.30661 21.076 8.19049C21.0685 8.13056 21.0235 7.96949 20.9822 7.83089C20.941 7.6923 20.896 7.52373 20.8848 7.45631C20.8698 7.38888 20.821 7.15664 20.7685 6.94313C20.716 6.72587 20.6298 6.31758 20.5698 6.03664C20.4461 5.44106 20.2736 4.77805 20.1686 4.49336C20.1574 4.4634 20.1836 4.44467 20.2436 4.44467C20.3261 4.44467 20.3523 4.47464 20.3898 4.60948ZM20.8398 4.63945C20.8585 4.73684 20.9185 5.02527 20.9672 5.27999C21.0197 5.5347 21.0647 5.79316 21.0647 5.85684C21.0647 6.01791 21.241 6.94313 21.3684 7.43383C21.4247 7.66233 21.4772 7.86835 21.4809 7.89457C21.4959 7.98447 21.8559 9.06327 21.9759 9.38166C22.2833 10.1795 22.3883 10.4342 22.6358 10.9699C23.1757 12.1536 23.7081 12.7529 24.3943 12.9589C24.9717 13.135 25.5379 12.9589 27.3639 12.03C28.89 11.2508 29.4749 10.7938 30.8247 9.32173C31.9758 8.07062 32.0808 7.97698 34.3117 6.23892C34.8779 5.79691 35.2829 5.50099 35.5003 5.37363C35.5378 5.35116 35.5491 5.39236 35.5491 5.5347C35.5491 5.71825 35.5453 5.72574 35.3466 5.84186C35.0954 5.98795 34.3792 6.49738 33.9405 6.83825C32.3058 8.12306 31.9571 8.43397 30.9784 9.47156C29.9361 10.5766 29.2199 11.1871 28.3875 11.6891C28.1213 11.8464 26.884 12.4682 26.8352 12.4682C26.824 12.4682 26.6665 12.5394 26.4865 12.6293C25.7441 12.9926 25.0955 13.2136 24.7617 13.2136C24.5105 13.2174 24.0868 13.0638 23.8094 12.8765C23.5019 12.6667 23.2844 12.4383 23.0257 12.0524C22.842 11.779 22.4108 10.9474 22.3058 10.6702C22.2758 10.5878 22.1971 10.378 22.1258 10.2057C21.7359 9.22059 21.4359 8.29912 21.2035 7.3739C21.0947 6.93564 20.9185 6.0254 20.8848 5.72199C20.8698 5.61336 20.821 5.35865 20.7685 5.15263C20.716 4.94661 20.6635 4.70313 20.6485 4.60948C20.6223 4.44467 20.626 4.43718 20.716 4.45216C20.791 4.4634 20.8135 4.49711 20.8398 4.63945ZM21.2597 4.47838C21.2597 4.49336 21.301 4.76306 21.3534 5.07771C21.4059 5.38862 21.4584 5.77069 21.4697 5.92427C21.5447 6.86072 21.8446 8.02942 22.2871 9.10447C22.3771 9.32173 22.482 9.58019 22.5195 9.67383C23.1832 11.3332 23.6331 12.0337 24.2518 12.3821C24.503 12.5244 24.518 12.5281 24.923 12.5244C25.4104 12.5244 25.5117 12.4869 26.5353 11.9775C28.575 10.9587 29.1112 10.5241 30.8547 8.47143C31.4546 7.76347 31.8108 7.44507 33.1119 6.44494C33.2956 6.3026 33.7718 5.90554 34.1693 5.56092C34.9154 4.91664 35.3616 4.54955 35.4816 4.48213C35.5453 4.44467 35.5491 4.4634 35.5491 4.63196L35.5453 4.81925L35.2529 5.02902C35.0879 5.14514 34.6417 5.49724 34.2593 5.81564C33.8768 6.13403 33.2356 6.65096 32.8344 6.96186C32.017 7.6024 31.3384 8.25417 30.641 9.06701C29.7073 10.1496 28.8825 10.88 27.9826 11.4119C27.2439 11.8539 25.6541 12.6218 25.3542 12.6892C25.1142 12.7417 24.6755 12.7492 24.4993 12.7079C24.1131 12.6106 23.6256 12.206 23.2994 11.7153C23.1457 11.4831 22.8383 10.8912 22.722 10.5916C22.6808 10.4867 22.587 10.2694 22.5195 10.1083C22.2383 9.45658 21.6909 7.99196 21.6984 7.92454C21.7022 7.9133 21.6572 7.72975 21.6009 7.51999C21.4622 7.01056 21.3459 6.38126 21.2972 5.89056C21.2747 5.66955 21.2222 5.30246 21.1772 5.07397C21.0497 4.38474 21.0535 4.44467 21.1622 4.44467C21.2147 4.44467 21.2597 4.45965 21.2597 4.47838ZM21.8071 4.79303C21.8296 4.98407 21.8671 5.40734 21.8896 5.74072C21.9384 6.45243 22.0846 7.34393 22.2196 7.73725C22.2758 7.89457 22.3133 8.02193 22.3058 8.02193C22.2608 8.02193 23.1607 10.0971 23.4944 10.7564C23.6631 11.0935 23.9406 11.4831 24.1506 11.6704C24.7805 12.236 25.3092 12.1648 26.8315 11.2958C27.9526 10.6552 28.7137 10.0821 29.2799 9.44534C29.4486 9.25805 29.8311 8.79357 30.1273 8.41149C30.4235 8.02942 30.8247 7.55745 31.0234 7.36266C31.3496 7.03678 32.0058 6.50862 32.5007 6.17898C32.8569 5.93551 33.4269 5.46353 33.9818 4.95035C34.5217 4.44467 34.5292 4.44092 34.6979 4.45216L34.8704 4.4634L34.2368 5.04025C33.4419 5.7632 33.2281 5.93925 32.5195 6.46741C31.4471 7.26902 31.0947 7.6024 30.371 8.51638C29.1974 9.98848 28.5937 10.5241 27.1689 11.3445C26.0478 11.9888 25.3654 12.2734 24.9305 12.2697C24.4543 12.2697 23.9031 11.8651 23.5432 11.2471C23.3594 10.9362 23.0332 10.2544 22.7858 9.67383C22.6995 9.47156 22.5683 9.16066 22.4933 8.98835C22.2571 8.43771 21.9571 7.54995 21.9121 7.25778C21.9009 7.19036 21.8559 6.93189 21.8109 6.67343C21.7696 6.41872 21.7171 5.9842 21.6947 5.70326C21.6572 5.23878 21.6084 4.83049 21.5522 4.5533C21.5297 4.45591 21.5409 4.44467 21.6459 4.44467H21.7621L21.8071 4.79303ZM22.3396 4.59076C22.3508 4.67316 22.3808 5.10019 22.4033 5.54594C22.4933 7.32895 22.5608 7.59865 23.3557 9.303C23.7456 10.1383 23.9219 10.4829 24.0643 10.6964C24.3606 11.1385 24.7355 11.4044 25.058 11.4044C25.4367 11.4081 26.0328 11.1497 26.8577 10.629C27.5589 10.1908 27.9076 9.91357 28.41 9.41912C28.8862 8.94715 29.0512 8.73738 29.7036 7.80467C30.0898 7.25029 30.6147 6.69591 31.0272 6.39999C31.1697 6.29885 31.5559 6.04788 31.8858 5.84186C32.5795 5.40734 33.0144 5.0852 33.4081 4.71062C33.6706 4.4634 33.7006 4.44467 33.8618 4.44841H34.0343L33.7006 4.76306C33.2094 5.2238 32.7257 5.60587 32.107 6.01791C30.9859 6.76333 30.5547 7.17163 29.8461 8.14554C29.2049 9.02955 28.7625 9.52775 28.1888 10.0072C27.5514 10.5429 26.1041 11.4081 25.5229 11.5992C25.2004 11.7078 24.8442 11.7078 24.6193 11.5992C24.3868 11.4868 23.9894 11.0486 23.7869 10.674C23.6331 10.3968 22.7183 8.42273 22.6058 8.12306C22.3771 7.53497 22.2383 6.71464 22.1671 5.5834C22.1446 5.20507 22.1183 4.79678 22.1071 4.66942L22.0883 4.44467H22.2008C22.3021 4.44467 22.3171 4.45965 22.3396 4.59076ZM23.0482 4.50835C23.0595 4.54206 23.0707 4.93537 23.0707 5.38112C23.0745 7.17537 23.1495 7.50126 23.9781 9.18313C24.3905 10.0222 24.6005 10.3181 24.8855 10.4642C25.0767 10.5616 25.3804 10.5616 25.6579 10.4679C26.1378 10.2994 27.1202 9.60266 27.7389 8.98835C28.1288 8.59878 28.2038 8.4939 29.0362 7.21658C29.3736 6.69591 29.8273 6.2127 30.2173 5.95798C30.3448 5.87183 30.8509 5.59838 31.3384 5.34741C32.122 4.94286 32.7107 4.59076 32.7782 4.48213C32.7894 4.45965 32.8907 4.44467 32.9994 4.44467C33.1756 4.44467 33.1944 4.45216 33.1456 4.50835C33.0182 4.66193 32.2795 5.17136 31.7846 5.44855C30.9147 5.93551 30.6297 6.1153 30.2923 6.38875C29.8911 6.70714 29.6661 6.98434 29.0212 7.95076C28.4513 8.8048 28.0763 9.23557 27.5251 9.67009C26.659 10.3481 25.8604 10.8201 25.4217 10.91C24.8705 11.0261 24.5593 10.8463 24.1731 10.187C23.9444 9.79745 23.2132 8.25417 23.0707 7.85711C22.8982 7.38888 22.797 6.73711 22.7745 5.97671C22.7633 5.62086 22.7483 5.13015 22.737 4.88668L22.7183 4.44467H22.872C22.9732 4.44467 23.0295 4.4634 23.0482 4.50835ZM24.0531 4.65069C24.0756 4.76306 24.1131 5.19009 24.1356 5.60213C24.1993 6.8345 24.2593 7.12668 24.6418 7.98447C25.1255 9.0745 25.5716 9.22059 26.3103 8.53885C26.4415 8.41898 26.9027 7.89457 27.3377 7.3739C28.2 6.34755 28.7437 5.75945 29.0662 5.51223C29.4711 5.20132 29.9436 4.98032 30.9934 4.61698C31.4621 4.45216 31.5221 4.44092 31.8371 4.45216L32.1783 4.4634L31.8483 4.62821C31.6646 4.71811 31.2709 4.89042 30.9747 5.01029C30.2248 5.3137 29.8686 5.50099 29.4936 5.78193C29.0849 6.08908 28.8225 6.39999 28.1888 7.33644C27.4576 8.41149 26.9027 9.01457 26.2128 9.4828C25.3317 10.0821 24.8967 9.92106 24.3493 8.78982C24.0456 8.16801 23.8431 7.65858 23.7344 7.25029C23.6631 6.98808 23.6481 6.77082 23.6219 5.77818C23.6032 5.13765 23.5807 4.57577 23.5657 4.52708C23.5394 4.44841 23.5507 4.44467 23.7719 4.44467H24.0081L24.0531 4.65069ZM25.8491 4.56079C26.0553 4.74059 26.299 4.86795 26.5728 4.93912C26.9665 5.04025 27.2964 4.96908 27.9601 4.63571L28.3463 4.44467H29.0249H29.7036L29.3099 4.61698C28.8337 4.823 28.6575 4.92788 28.0726 5.34741C27.3152 5.89056 26.869 6.07785 26.3178 6.07785C25.7629 6.0741 25.5079 5.85684 25.0955 5.01778C24.9567 4.73684 24.8442 4.49336 24.8442 4.47464C24.8442 4.45965 25.0392 4.44467 25.2792 4.44467C25.7066 4.44467 25.7216 4.44841 25.8491 4.56079ZM16.2391 5.05149C17.6452 5.51972 18.4513 6.47865 18.9125 8.22046C18.965 8.42648 19.055 8.8048 19.1112 9.06701C19.2912 9.90982 19.415 10.5054 19.4337 10.6103C19.4412 10.6702 19.4974 10.8875 19.5537 11.0898C20.0036 12.7417 20.3373 13.3522 21.3384 14.3561C22.1108 15.1315 22.5045 15.4237 23.1382 15.6896C23.6594 15.9106 24.6155 15.9106 25.2754 15.6934C25.4142 15.6447 25.5566 15.5997 25.5904 15.596C25.6241 15.5885 25.7741 15.536 25.9241 15.4799C26.4715 15.2701 26.599 15.2251 26.9477 15.109C27.4389 14.9517 28.7362 14.6296 29.1374 14.5696C29.2987 14.5471 30.161 14.2849 30.4535 14.1688C30.5622 14.1276 30.9859 13.9366 31.3984 13.7455C32.662 13.1649 33.6931 12.7829 34.9192 12.4457C35.5603 12.2697 35.5528 12.2697 35.5528 12.4869C35.5528 12.6405 35.5378 12.6667 35.4628 12.6817C35.0204 12.7641 33.8693 13.0601 33.3481 13.2211C32.6882 13.4309 32.4182 13.532 31.4584 13.9478C30.281 14.4535 29.8198 14.5958 28.545 14.8468C28.2525 14.9067 27.8513 14.9966 27.6564 15.0528C27.4614 15.1053 27.2664 15.1577 27.2252 15.1652C27.1539 15.1802 26.974 15.2401 25.9841 15.5922C25.0355 15.9331 24.788 15.9818 24.1131 15.9818C23.5694 15.9818 23.5019 15.9706 23.2282 15.8732C22.5945 15.6409 22.1146 15.3113 21.3647 14.5958C20.6935 13.9478 20.2698 13.3859 19.9886 12.7641C19.8086 12.3596 19.6474 11.955 19.6662 11.955C19.6737 11.955 19.6287 11.8015 19.5649 11.6142C19.5012 11.4231 19.4487 11.2583 19.4487 11.2471C19.4524 11.2396 19.4075 11.0598 19.355 10.8538C19.2987 10.6515 19.2087 10.2507 19.1525 9.96975C19.0962 9.68882 19.0063 9.27678 18.9538 9.05577C18.9013 8.83477 18.8488 8.59129 18.8375 8.51638C18.8225 8.43771 18.7775 8.2729 18.7363 8.14929C18.695 8.02567 18.6501 7.87584 18.6388 7.81216C18.6276 7.74848 18.5338 7.50875 18.4326 7.28025C17.9639 6.23143 17.1465 5.53096 16.0366 5.22005C15.7854 5.15263 15.6204 5.1339 15.1593 5.1339C14.6381 5.1339 14.5556 5.14139 14.2594 5.24253C12.8571 5.70701 11.556 6.80079 9.5125 9.23932C8.24892 10.7489 7.84397 11.4044 7.32279 12.7866C6.8916 13.9253 6.61788 14.4348 6.23543 14.7906C5.84548 15.154 5.47053 15.3001 4.9156 15.3001H4.5669V14.8543V14.4086L4.87061 14.3636C5.47803 14.27 5.99921 13.9178 6.35542 13.3597C6.43416 13.2361 6.71162 12.7154 6.96659 12.2023C7.46152 11.2171 7.81397 10.6477 8.24892 10.1271C9.03631 9.18688 11.0948 7.05925 11.8259 6.43745C12.6171 5.75945 13.3407 5.30995 14.0532 5.05149C14.4806 4.89791 14.6193 4.87918 15.238 4.89417C15.7704 4.9054 15.8342 4.91664 16.2391 5.05149ZM15.5117 5.46728C15.6954 5.4935 15.8942 5.51972 15.9542 5.52721C16.1491 5.56092 16.6703 5.77069 16.929 5.92052C17.2515 6.10781 17.8514 6.70714 18.0351 7.02179C18.1701 7.25403 18.3876 7.71477 18.4026 7.80092C18.4063 7.82714 18.4588 7.99571 18.5151 8.17925C18.6163 8.50139 18.6875 8.80855 18.9163 9.87236C19.1412 10.9137 19.5049 12.1498 19.7712 12.7641C20.1761 13.6894 20.7723 14.4048 21.9871 15.4162C22.3058 15.6784 22.827 15.9556 23.2694 16.0904C23.5169 16.1691 23.6481 16.1841 24.0943 16.1841C24.5443 16.1841 24.6905 16.1653 25.0392 16.0754C25.3842 15.9893 26.1566 15.7346 26.959 15.4424C27.0527 15.4087 27.1389 15.3825 27.1577 15.3825C27.1727 15.3825 27.3452 15.3413 27.5401 15.2851C27.9526 15.169 28.8112 14.9854 28.9387 14.9854C29.1037 14.9854 29.9848 14.7794 30.3935 14.6445C30.6222 14.5696 31.0909 14.3973 31.4359 14.2587C32.077 14.004 32.7182 13.7755 32.8607 13.7493C32.9057 13.7418 33.0632 13.6968 33.2131 13.6519C33.5731 13.547 34.5105 13.3522 35.4216 13.1949L35.5528 13.1724V13.3635V13.5508L34.8929 13.6407C33.6106 13.8167 32.7669 14.0077 31.9308 14.3074C30.7047 14.7457 30.2548 14.8843 29.6661 15.0041C29.3174 15.0791 28.9275 15.1465 28.8 15.1615C28.3575 15.2064 27.3489 15.4574 26.7115 15.6821C26.5615 15.7346 26.4115 15.787 26.3778 15.7945C26.344 15.802 26.0778 15.8882 25.7891 15.9893C25.4967 16.0867 25.2192 16.1728 25.1779 16.1803C25.133 16.1916 24.9492 16.2253 24.7692 16.259C24.3531 16.3376 23.7569 16.3376 23.4269 16.259C23.2844 16.2253 23.127 16.1916 23.0745 16.1803C22.9545 16.1579 22.2608 15.8057 22.1258 15.6971C21.016 14.8318 20.3561 14.1389 19.9324 13.3822C19.8536 13.2361 19.7187 12.9627 19.6362 12.7679C19.4075 12.2397 18.9125 10.6627 18.8413 10.2395C18.83 10.172 18.785 9.96601 18.74 9.78621C18.6988 9.60641 18.6538 9.39664 18.6426 9.32173C18.6051 9.10072 18.3576 8.183 18.2676 7.92828C17.9564 7.063 17.3902 6.38875 16.6666 6.02166C16.2129 5.79691 15.8004 5.70326 15.253 5.70326C14.8143 5.70326 14.7243 5.7145 14.3794 5.82688C13.9482 5.96547 13.7382 6.06286 13.292 6.34005C12.0134 7.13042 10.3149 9.07825 9.28378 10.9324C8.71761 11.9513 8.56763 12.3521 8.09519 14.1201C7.84022 15.0641 7.68649 15.5173 7.47277 15.9481C7.07532 16.7385 6.56539 17.2292 5.87923 17.4651C5.62426 17.555 5.03559 17.6075 4.75063 17.5663L4.5669 17.5363V17.0681V16.5961L4.73563 16.6261C5.23056 16.716 5.86048 16.6036 6.22043 16.3639C6.95159 15.8769 7.31529 15.1839 7.91521 13.1574C8.17768 12.2734 8.42139 11.7116 8.84134 11.0036C9.78247 9.42286 11.2635 7.6436 12.4371 6.66969C13.3295 5.93176 14.1169 5.55718 14.9793 5.45229C15.0468 5.4448 15.118 5.43731 15.1405 5.43357C15.1593 5.42982 15.328 5.4448 15.5117 5.46728ZM15.8454 6.08159C16.8353 6.26139 17.6452 6.96561 18.0164 7.96949C18.1739 8.39276 18.3576 9.02581 18.4063 9.32173C18.4738 9.71504 18.7738 10.88 18.9238 11.322C18.98 11.4831 19.0288 11.6516 19.04 11.6966C19.055 11.7865 19.1 11.9101 19.37 12.6068C19.7487 13.592 20.0786 14.0902 20.8435 14.8506C21.3684 15.375 21.9346 15.832 22.3246 16.0567C22.572 16.1953 23.0407 16.3901 23.1945 16.4163C23.2694 16.4313 23.4344 16.4575 23.5619 16.48C23.8581 16.5287 24.2406 16.5287 24.548 16.4837C24.6755 16.4613 24.8555 16.435 24.9417 16.4238C25.1404 16.3938 25.7629 16.2065 26.404 15.9818C26.6815 15.8844 26.9402 15.7983 26.9777 15.7908C27.0152 15.7833 27.1652 15.7383 27.3114 15.6971C27.6976 15.5772 28.3725 15.4274 28.6237 15.3974C29.5124 15.3038 30.536 15.0753 31.4771 14.7644C31.7808 14.667 32.0545 14.5809 32.0883 14.5734C32.1183 14.5659 32.2795 14.5247 32.4407 14.4797C32.9769 14.3299 33.9068 14.195 34.7429 14.1426C34.9379 14.1276 35.2004 14.1089 35.3241 14.0939L35.5491 14.0714L35.5528 14.2662V14.461L34.7729 14.4872C33.3931 14.5359 32.632 14.637 31.8296 14.873C31.6796 14.9217 31.4209 14.9966 31.2596 15.0453C30.6935 15.2176 29.9361 15.375 29.1749 15.4761C28.1551 15.6147 27.5214 15.7608 26.5203 16.0942C26.0628 16.244 25.6616 16.3751 25.6316 16.3826C25.5979 16.3863 25.4029 16.4425 25.1967 16.5025C24.8405 16.6073 24.7842 16.6148 24.0568 16.6111C23.2919 16.6111 23.2844 16.6111 22.9395 16.4837C22.4745 16.3152 22.2871 16.2178 21.8296 15.9031C21.2747 15.5211 20.2473 14.4947 19.9211 14.0003C19.6737 13.6294 19.3587 13.0114 19.2087 12.5918C19.04 12.1348 18.6538 11.0036 18.6426 10.9362C18.6351 10.8987 18.5938 10.7451 18.5488 10.5953C18.5076 10.4455 18.4138 10.0859 18.3463 9.7937C18.1739 9.06701 17.9751 8.36654 17.8627 8.08186C17.4615 7.08547 16.6891 6.4337 15.7554 6.31009C14.5631 6.15276 13.4982 6.6547 12.1559 8.01069C11.1585 9.01832 10.1912 10.4679 9.67748 11.7303C9.34752 12.5394 9.18254 13.12 8.89758 14.4947C8.54513 16.1878 8.42139 16.6261 8.15893 17.1505C7.92271 17.615 7.72399 17.8884 7.34154 18.2742C6.63663 18.9822 5.88673 19.3381 4.9306 19.413L4.5669 19.4392V19.0609V18.6825H4.9306C5.78924 18.6788 6.4829 18.3829 7.12781 17.7386C7.82522 17.0456 8.10269 16.4238 8.52638 14.5921C8.74385 13.6369 8.85634 13.1799 8.94633 12.8803C9.46376 11.1347 10.6524 9.18688 12.0659 7.76721C12.9808 6.84949 13.8882 6.26888 14.6868 6.09658C15.1068 6.00293 15.3992 5.99918 15.8454 6.08159ZM16.1266 6.73337C16.5128 6.86447 16.7453 7.01056 17.0228 7.29524C17.469 7.74848 17.6977 8.2729 18.0914 9.77497C18.2376 10.3331 18.4176 10.9549 18.5076 11.2209C18.5526 11.3445 18.5938 11.4793 18.6013 11.5168C18.6088 11.5542 18.6538 11.6816 18.7025 11.7977C18.7475 11.9176 18.7925 12.0412 18.8 12.0749C18.8188 12.1611 19.0363 12.7079 19.1975 13.0788C19.6362 14.0752 20.1536 14.7607 21.0385 15.5248C21.256 15.7158 21.4622 15.8956 21.4959 15.9256C21.6984 16.1204 22.527 16.5811 22.752 16.6223C22.8045 16.6336 22.8757 16.656 22.9095 16.6748C23.2619 16.8583 24.4393 16.8845 25.118 16.7197C25.3242 16.671 25.6241 16.5849 25.7816 16.5324C25.9428 16.4762 26.1078 16.4275 26.1491 16.4201C26.1941 16.4126 26.3253 16.3676 26.449 16.3189C26.5728 16.274 26.7077 16.229 26.749 16.2215C26.7902 16.214 26.959 16.1653 27.1239 16.1129C27.8663 15.8769 28.575 15.7458 29.8048 15.6185C30.161 15.581 30.8472 15.4387 31.4584 15.2813C32.5795 14.9854 33.5431 14.8993 34.9304 14.9629L35.5528 14.9929V15.1914L35.5491 15.3862L35.3841 15.3637C34.8667 15.2888 34.1843 15.2476 33.5243 15.2476C32.7445 15.2476 32.4632 15.2813 31.5371 15.4761C30.6935 15.6559 30.2473 15.7308 29.6624 15.7908C29.3399 15.8245 28.8787 15.8807 28.6425 15.9144C28.4025 15.9481 28.1588 15.9818 28.0951 15.9893C27.9526 16.008 27.4501 16.1541 26.6328 16.4088C25.5379 16.7497 25.4217 16.7834 25.0017 16.877C24.3905 17.0156 23.6444 17.0082 23.0557 16.8621C22.2871 16.6673 21.6122 16.2665 20.7685 15.4948C20.0899 14.8768 19.6737 14.3336 19.2837 13.5695C19.145 13.2998 19.0138 13.0226 18.9838 12.9589C18.5901 11.9775 18.3763 11.3782 18.1364 10.5616C17.8739 9.67009 17.8289 9.50902 17.8139 9.42661C17.8027 9.37791 17.7614 9.23183 17.7127 9.10447C17.6677 8.97337 17.6264 8.83852 17.6189 8.8048C17.6114 8.76735 17.5364 8.58755 17.4577 8.39651C17.1577 7.69979 16.839 7.33644 16.3029 7.06674L15.9692 6.90193L15.3955 6.90567C14.7618 6.90567 14.6718 6.92815 14.1244 7.19785C12.8046 7.85337 11.316 9.56146 10.5061 11.3445C10.0149 12.427 9.74497 13.4534 9.50875 15.1615C9.23504 17.143 9.04381 17.7798 8.47389 18.5851C7.62275 19.7838 6.07795 20.7577 4.83686 20.8701L4.5669 20.8963V20.5966V20.2932H4.74688C4.96435 20.2932 5.44803 20.1996 5.76299 20.091C6.80161 19.7463 7.82522 18.9073 8.39515 17.9334C8.7401 17.3453 8.91258 16.8171 9.09256 15.787C9.53875 13.2661 9.60999 12.9627 10.0187 11.8389C10.0524 11.7415 10.2249 11.3744 10.3974 11.0261C11.466 8.86848 13.2208 7.11169 14.7243 6.69965C15.163 6.57979 15.7067 6.59102 16.1266 6.73337ZM15.9879 7.32146C16.779 7.58741 17.1315 8.12681 17.6939 9.95103C17.7427 10.1121 17.8327 10.4043 17.8927 10.5991C17.9526 10.7938 18.0426 11.071 18.0951 11.2096C18.1476 11.352 18.1889 11.4831 18.1889 11.5055C18.1889 11.528 18.2339 11.6591 18.2901 11.7977C18.3501 11.9401 18.4476 12.1873 18.5113 12.3484C18.6988 12.8091 19.055 13.6069 19.1862 13.8429C19.8124 14.9817 20.9672 16.1391 22.0284 16.6898C22.3621 16.8621 22.782 17.0231 22.9582 17.0456C23.0295 17.0568 23.1795 17.0868 23.2882 17.113C23.6107 17.188 24.443 17.173 24.9605 17.0756C25.4329 16.9894 25.5191 16.9669 26.6553 16.6148C27.7614 16.2702 27.8626 16.2403 27.9788 16.2253C28.0426 16.2178 28.2488 16.1841 28.4438 16.1504C28.755 16.0979 29.0849 16.0642 30.0186 15.9893C30.281 15.9668 31.0722 15.8507 31.7921 15.7233C32.7032 15.566 33.5206 15.581 34.9229 15.7908C35.6016 15.8919 35.5528 15.8694 35.5528 16.0867V16.274L35.4029 16.2403C33.5956 15.8282 32.7519 15.7945 30.7685 16.068C30.086 16.1616 30.0561 16.1653 29.3586 16.2065C28.6987 16.244 27.9451 16.3676 27.4426 16.5212C27.3002 16.5624 26.8765 16.6935 26.4978 16.8096C25.4254 17.1393 25.2304 17.1842 24.7355 17.2479C24.1468 17.3191 23.8206 17.3191 23.3032 17.2479C22.3433 17.113 21.5222 16.686 20.6223 15.8619C19.6362 14.9592 19.0925 14.1501 18.4738 12.663C18.0876 11.734 17.9714 11.4231 17.6189 10.3443C17.019 8.50888 16.7266 7.98447 16.1416 7.67357C15.9354 7.56494 15.8492 7.54246 15.538 7.52373C15.088 7.49751 14.8106 7.54995 14.4244 7.72601C13.8807 7.97698 13.4832 8.27664 12.8758 8.88721C11.7397 10.0222 10.9748 11.3482 10.5549 12.899C10.3336 13.7156 10.2212 14.5659 10.1199 16.1653C9.99244 18.1244 9.76372 18.7425 8.78135 19.7613C7.89271 20.6791 6.76411 21.4732 5.81924 21.844C5.56802 21.9414 4.9681 22.11 4.69438 22.1587L4.5669 22.1811V21.9152V21.6492L4.88186 21.6005C5.96547 21.4282 7.15406 20.7652 8.20392 19.7463C9.09256 18.8811 9.505 18.1356 9.68123 17.0793C9.78247 16.4613 9.79746 16.3451 9.84246 15.772C9.96244 14.24 10.2137 12.9889 10.5961 11.985C11.3273 10.0597 12.8083 8.24668 14.2556 7.5125C14.7918 7.23905 15.5005 7.16039 15.9879 7.32146ZM15.8904 7.98822C16.3554 8.16427 16.6178 8.5351 17.0865 9.67383C17.124 9.77123 17.2027 9.97725 17.2552 10.1271C17.8589 11.8352 18.1176 12.4832 18.5413 13.3522C19.0812 14.4647 19.5424 15.1277 20.2623 15.8432C21.2597 16.8284 22.3433 17.3715 23.4944 17.4689C24.0831 17.5213 24.8705 17.4651 25.3354 17.3453C25.5079 17.3003 25.6916 17.2554 25.7404 17.2479C25.7929 17.2404 25.9466 17.1954 26.0816 17.1505C26.2128 17.1055 26.359 17.0606 26.404 17.0531C26.449 17.0456 26.614 16.9932 26.7752 16.9407C27.4876 16.7047 28.2338 16.5212 28.7212 16.465C28.83 16.4538 29.1487 16.4313 29.4299 16.4201C29.7111 16.4088 30.2323 16.3751 30.5922 16.3414C30.9484 16.3114 31.4884 16.2665 31.7921 16.2403C32.0958 16.214 32.5495 16.2065 32.8007 16.2178C33.4644 16.2552 34.4617 16.4538 35.3054 16.7235L35.5528 16.8021V16.9969C35.5528 17.1692 35.5416 17.188 35.4816 17.1542C35.3616 17.0943 34.4805 16.8059 34.0943 16.7047C33.6893 16.5961 33.0519 16.4987 32.5195 16.4575C32.242 16.4388 29.8461 16.5399 28.7475 16.6148C28.3013 16.6486 27.6039 16.8171 26.7115 17.113C26.584 17.1542 26.434 17.1954 26.3815 17.2067C26.329 17.2179 26.1528 17.2666 25.9878 17.3191C25.2979 17.5401 24.9417 17.5962 24.1356 17.6112C23.6481 17.6225 23.2844 17.6112 23.1307 17.5813C21.6309 17.2928 20.4948 16.5362 19.3887 15.0828C18.9388 14.4947 18.5413 13.7793 18.0426 12.663C17.7202 11.9438 17.7089 11.9176 17.2965 10.8275C16.6328 9.06327 16.3329 8.5351 15.8792 8.3141C15.6767 8.21296 15.6092 8.20173 15.2942 8.20547C14.9043 8.20922 14.6043 8.30286 14.2069 8.5426C13.2283 9.13069 12.1334 10.5054 11.5635 11.8576C11.331 12.4083 11.0948 13.1837 11.0423 13.5695C11.0311 13.6669 10.9898 13.9066 10.9561 14.1014C10.9036 14.3861 10.8886 14.7869 10.8848 16.2028C10.8773 18.0682 10.8548 18.3604 10.6861 18.9148C10.4986 19.5253 10.2287 19.9524 9.75247 20.3981C9.44501 20.6828 7.92646 21.8028 7.28529 22.2186C6.52789 22.7055 5.80799 23.0314 4.99059 23.2449L4.5669 23.3573V23.1138V22.8704L5.00184 22.7617C6.0667 22.5033 6.94409 22.0276 8.29766 20.975C9.535 20.0123 10.0224 19.4392 10.2999 18.6338C10.4724 18.1244 10.5136 17.7273 10.5511 16.244C10.6074 14.0789 10.7386 13.2511 11.226 11.9775C11.8259 10.408 13.1833 8.75236 14.3719 8.14179C14.8368 7.89832 15.478 7.83464 15.8904 7.98822ZM15.7442 8.75236C15.8642 8.81979 16.0066 8.9434 16.0966 9.06327C16.2766 9.29925 16.5991 9.89109 16.7753 10.3069C16.914 10.6365 17.4465 11.9513 17.5664 12.251C17.6677 12.5132 18.3463 13.8654 18.5301 14.1726C19.2125 15.3263 20.1311 16.3938 20.8848 16.9145C21.1735 17.1093 21.7846 17.4164 22.1258 17.5326C22.752 17.7498 23.2919 17.836 23.9968 17.836C24.9042 17.8322 25.5904 17.6899 27.2627 17.1467C27.3939 17.1055 27.5439 17.0643 27.6001 17.0568C27.6526 17.0456 27.8476 17.0007 28.0313 16.952C28.4288 16.8508 28.9724 16.8096 30.4348 16.7759C32.647 16.7197 33.5168 16.8546 35.0504 17.4764L35.5491 17.6787V17.8659C35.5491 17.9708 35.5416 18.0532 35.5303 18.0532C35.5191 18.0532 35.3541 17.9746 35.1666 17.8809C34.3492 17.4726 33.5656 17.2179 32.677 17.0718C32.272 17.0044 31.4134 16.9707 30.176 16.9707C28.8562 16.9707 28.4475 16.9969 28.0126 17.1093C27.8401 17.1542 27.6564 17.1992 27.6039 17.2067C27.5514 17.2142 27.3752 17.2666 27.2102 17.3191C26.8877 17.4202 26.4078 17.5625 25.8679 17.7161C25.6804 17.7686 25.2867 17.851 24.9905 17.8959C24.0343 18.0495 22.932 17.9671 22.0621 17.6787C21.6572 17.5438 21.076 17.2516 20.7273 17.0082C20.0224 16.5137 19.0625 15.4012 18.4438 14.3561C18.0051 13.6144 17.5514 12.7117 17.2252 11.9363C16.6253 10.5129 16.3891 10.0185 16.0779 9.55022C15.7629 9.07825 15.5117 8.93965 15.0468 8.98086C14.2819 9.05203 13.3108 9.9323 12.6283 11.1684C11.8822 12.5281 11.571 14.2288 11.6985 16.3039C11.7697 17.4914 11.7697 18.9522 11.6985 19.3905C11.5897 20.046 11.391 20.5217 11.0348 20.9937C10.6973 21.4357 10.2999 21.7279 9.41126 22.1811C8.98757 22.3984 8.35015 22.7542 7.99395 22.9752C6.61788 23.8181 5.88673 24.1327 4.67189 24.4024L4.56315 24.4286L4.5744 24.2039L4.58565 23.9791L5.02059 23.8705C6.0967 23.6008 6.55414 23.3686 8.44764 22.1587C8.81884 21.9189 9.27253 21.638 9.46376 21.5331C10.3599 21.0312 10.9036 20.4094 11.1548 19.6078C11.3985 18.8249 11.4435 18.1057 11.361 16.5174C11.2973 15.315 11.3123 14.6183 11.4173 13.9441C11.436 13.813 11.4622 13.6257 11.4772 13.5283C11.5147 13.2436 11.721 12.5169 11.8709 12.1348C12.2946 11.0523 13.082 9.87236 13.7494 9.31798C14.5331 8.66621 15.223 8.47143 15.7442 8.75236ZM15.4292 9.55397C15.613 9.64761 15.7779 9.8349 16.0479 10.2469C16.2504 10.5578 16.7003 11.4494 16.884 11.9026C17.1465 12.5431 17.9264 14.004 18.4176 14.7682C18.905 15.5286 19.7262 16.51 20.2548 16.9632C20.4123 17.0981 20.686 17.2928 20.8585 17.394C21.1397 17.5625 21.7659 17.8435 21.9346 17.8772C21.9684 17.8847 22.1146 17.9259 22.2571 17.9708C22.3996 18.012 22.5983 18.0607 22.6958 18.072C22.7895 18.0832 22.992 18.1094 23.1382 18.1319C23.5882 18.1956 24.458 18.1768 25.0317 18.0907C25.6316 18.0045 25.9653 17.9184 27.1464 17.5625C28.2938 17.2142 28.6612 17.1692 30.1798 17.2029C31.1547 17.2254 31.9083 17.2853 32.392 17.3827C32.4932 17.4052 32.6507 17.4314 32.737 17.4427C32.9919 17.4764 33.6143 17.6562 33.9968 17.806C34.3567 17.9446 35.0804 18.308 35.3841 18.499C35.5416 18.5964 35.5528 18.6151 35.5528 18.7799C35.5528 18.8773 35.5416 18.956 35.5303 18.956C35.5191 18.956 35.3391 18.8511 35.1291 18.7162C34.6829 18.4353 34.1243 18.1506 33.6743 17.9746C32.4745 17.5176 29.8873 17.2292 28.5225 17.4015C28.1101 17.4539 27.3864 17.6225 27.0115 17.7573C26.9177 17.791 26.7977 17.8247 26.749 17.836C26.6965 17.8435 26.509 17.8959 26.329 17.9521C24.4318 18.5327 22.4596 18.4241 20.9448 17.6599C20.3373 17.349 19.8274 16.8845 19.0925 15.9668C18.1964 14.8543 17.4727 13.6706 16.7678 12.176C16.2429 11.0635 15.9767 10.6065 15.6354 10.2207C15.163 9.68882 14.6081 9.76748 13.9369 10.4567C13.2283 11.1871 12.8083 12.1948 12.6583 13.5433C12.5459 14.5247 12.5009 16.038 12.5534 16.877C12.6808 18.9298 12.6883 19.0833 12.6433 19.5441C12.5309 20.7165 12.1372 21.6492 11.4772 22.316C10.9786 22.8179 10.3936 23.1625 9.32503 23.5821C9.01382 23.7057 8.3689 24.0053 7.89271 24.2488C6.67037 24.8781 6.12295 25.0841 5.06558 25.3089C4.81062 25.3651 4.59315 25.4063 4.5819 25.4063C4.5744 25.4063 4.5669 25.3164 4.5669 25.2003V24.9905L4.9306 24.9193C5.44429 24.8182 6.10045 24.6159 6.58039 24.4099C6.97783 24.2413 7.10907 24.1739 8.21892 23.5596C8.50763 23.4023 9.05881 23.1363 9.44876 22.9715C10.3149 22.5969 10.7386 22.3385 11.1623 21.9264C11.6835 21.4207 11.9384 20.9675 12.1372 20.2221C12.2459 19.7988 12.2571 19.7014 12.2721 18.9223C12.2871 18.3454 12.2721 17.7723 12.2234 17.0943C12.0847 15.1165 12.2459 13.2249 12.6471 12.0936C13.0708 10.9025 13.8619 9.8836 14.6156 9.56895C14.8855 9.45658 15.223 9.45283 15.4292 9.55397ZM15.1368 10.5391C15.3055 10.6028 15.6617 10.9699 15.8867 11.307C16.0029 11.4793 16.2504 11.9251 16.4416 12.2922C17.5214 14.3973 18.9988 16.48 20.0449 17.3827C20.4423 17.7273 21.3797 18.1956 21.8184 18.2705C21.8896 18.2817 22.0021 18.308 22.0659 18.3267C22.5045 18.4615 22.9132 18.499 23.9181 18.499C24.8967 18.499 24.9605 18.4952 25.4142 18.3904C25.6729 18.3304 25.9316 18.2742 25.9841 18.263C26.0816 18.2443 26.5278 18.1207 27.0152 17.9746C28.5188 17.5176 29.5124 17.4689 31.2784 17.7648C32.9657 18.0457 33.8281 18.3529 34.8554 19.0421C35.5678 19.5179 35.5528 19.5029 35.5528 19.7389V19.9374L35.2079 19.6602C34.4917 19.0871 33.7681 18.6676 33.1082 18.4465C32.8232 18.3529 31.7471 18.0682 31.5334 18.0345C31.4584 18.0233 31.2334 17.9783 31.0347 17.9334C30.2735 17.7723 29.1112 17.6974 28.6012 17.776C28.4738 17.7985 28.2863 17.821 28.1925 17.8322C28.0238 17.8547 27.6414 17.9521 26.9477 18.1506C25.2604 18.6338 24.5443 18.7312 23.2319 18.6488C21.6272 18.5477 20.4461 18.1094 19.6512 17.3153C19.3662 17.0269 18.5676 16.053 18.1364 15.4649C17.514 14.6108 16.8128 13.517 16.2616 12.5319C15.6392 11.4194 15.2642 11.0111 14.8518 11.0111C14.6118 11.0111 14.4431 11.101 14.2031 11.3632C13.8394 11.7528 13.592 12.3409 13.4795 13.075C13.3295 14.0714 13.307 16.9407 13.4457 18.308C13.5357 19.2332 13.5095 20.0572 13.3707 20.5704C13.1608 21.3533 12.7896 22.1736 12.3546 22.8292C11.8072 23.6532 11.0198 24.1739 9.40377 24.7807C9.05131 24.9156 8.47764 25.1478 8.12893 25.3014C7.32279 25.6535 6.99283 25.7846 6.55414 25.9195C6.17919 26.0356 5.17432 26.2491 4.79187 26.2903L4.5669 26.3203V26.1217V25.927L4.79187 25.9007C5.12933 25.8633 6.03671 25.6573 6.39666 25.5411C6.8841 25.3801 7.2028 25.249 7.97145 24.8856C8.3614 24.7021 8.93883 24.4548 9.25379 24.335C10.0037 24.0465 10.0787 24.0128 10.4836 23.8106C11.6122 23.2487 12.2646 22.5332 12.7371 21.3346C13.097 20.4243 13.1908 19.7164 13.112 18.4653C12.9995 16.6223 12.992 16.3152 13.0295 15.154C13.052 14.5059 13.0895 13.7605 13.112 13.4946C13.1608 12.9439 13.3183 12.2697 13.4982 11.8427C13.7344 11.2883 14.1506 10.7789 14.5256 10.5803C14.6793 10.4979 14.9755 10.4792 15.1368 10.5391ZM15.0693 11.8651C15.3017 11.9738 15.6055 12.3221 16.0104 12.9327C16.9665 14.3861 17.8627 15.6185 18.8038 16.7759C19.5387 17.6787 19.8536 17.9558 20.4948 18.2817C20.8548 18.4615 21.5334 18.6676 22.1071 18.7687C22.5608 18.8473 22.7445 18.8586 23.7606 18.8586C24.8555 18.8586 24.923 18.8548 25.4329 18.75C25.7254 18.69 26.0928 18.6039 26.2503 18.5589C26.4115 18.5177 26.5728 18.4728 26.6103 18.4653C26.6478 18.4578 26.8015 18.4166 26.9477 18.3716C27.0939 18.3267 27.2627 18.2817 27.3189 18.2705C27.3752 18.2593 27.5439 18.2143 27.6976 18.1694C28.0163 18.0757 28.7662 17.9746 29.1337 17.9746C29.4974 17.9746 30.2885 18.0757 30.6897 18.1694C30.8772 18.2143 31.0872 18.2593 31.1547 18.2705C31.2934 18.2967 31.7921 18.4316 32.3433 18.5926C33.5881 18.956 34.3455 19.3905 35.2641 20.2708L35.5528 20.5442V20.7615V20.975L35.0092 20.4468C34.143 19.6003 33.5656 19.2594 32.3433 18.8661C30.6447 18.3267 29.9436 18.1731 29.0924 18.1731C28.425 18.1694 27.9038 18.263 26.7527 18.5851C26.1753 18.7462 25.7779 18.8436 25.6429 18.8623C25.5604 18.8736 25.3504 18.9073 25.1779 18.941C24.2593 19.1133 22.7783 19.0796 21.5147 18.8586C21.2935 18.8174 20.5323 18.5552 20.2961 18.4391C19.9924 18.2855 19.6362 18.042 19.415 17.8397C19.265 17.7011 18.9463 17.3153 17.8139 15.8882C17.7014 15.7496 17.304 15.2289 16.929 14.7307C15.3617 12.648 15.103 12.3933 14.7356 12.5731C14.5443 12.6667 14.3906 12.9177 14.2931 13.311C14.1544 13.8467 14.1244 14.4273 14.1469 15.9256C14.1656 17.2404 14.1731 17.3902 14.3081 18.3866C14.4619 19.5703 14.4768 19.855 14.3906 20.3457C14.3156 20.7802 14.1806 21.1435 13.8807 21.7504C13.337 22.8366 12.6733 23.9042 12.2834 24.3237C11.7472 24.8931 10.8661 25.3913 9.56874 25.8595C9.16755 26.0019 8.58637 26.2154 8.27891 26.3352C7.09032 26.7885 6.34792 26.9795 5.14807 27.1294L4.5669 27.2043V27.0207V26.8409L5.18557 26.751C6.34417 26.5862 6.8316 26.4514 8.07269 25.9607C8.49263 25.7921 9.16755 25.5336 9.56874 25.3876C10.7386 24.953 11.5972 24.4773 12.0884 23.9829C12.4296 23.6383 12.8683 22.9565 13.292 22.1175C13.6745 21.357 13.9032 20.739 13.9782 20.2483C14.0344 19.8812 14.0119 19.1845 13.9032 17.9933C13.7682 16.5025 13.7719 14.0077 13.9144 13.2136C14.0344 12.5469 14.2969 12.0337 14.6043 11.8726C14.7768 11.7827 14.8893 11.779 15.0693 11.8651ZM15.4255 13.8354C15.8117 14.0152 16.6516 14.9667 18.3088 17.0868C18.5788 17.4352 18.905 17.8285 19.0325 17.9633C19.2837 18.233 19.7637 18.5702 20.1386 18.7387C20.4123 18.8623 21.0197 19.0609 21.2222 19.0908C21.2972 19.1021 21.5522 19.1433 21.7921 19.1807C22.4296 19.2819 24.4618 19.2819 25.0205 19.1807C25.2379 19.1433 25.4854 19.1021 25.5716 19.0908C25.7291 19.0721 26.1941 18.9597 26.869 18.7837C27.6976 18.5627 27.8888 18.5215 28.3125 18.4653C29.2087 18.3492 29.8011 18.4203 30.9447 18.7837C32.5607 19.3006 32.9994 19.4654 33.4419 19.7126C34.038 20.0423 34.5105 20.4506 35.1441 21.1698L35.5528 21.6342V21.8927V22.1549L35.3879 21.9414C34.1955 20.4094 33.5356 19.9149 31.9683 19.3867C31.7208 19.3043 31.3121 19.162 31.0647 19.0721C30.3448 18.8136 29.8873 18.6863 29.5086 18.6376C29.0062 18.5777 28.2225 18.6189 27.7276 18.7425C27.5064 18.7949 27.2852 18.8436 27.2289 18.8548C27.1764 18.8661 26.9665 18.9185 26.764 18.9747C26.2128 19.1245 25.5529 19.2594 24.9792 19.3381C24.2331 19.4429 21.9909 19.4429 21.3384 19.3381C20.4573 19.1957 19.5949 18.8511 19.0812 18.4241C18.785 18.1806 18.6013 17.9708 17.8552 17.0119C16.6703 15.4948 16.2616 15.0378 15.8942 14.8281C15.6279 14.6745 15.4442 14.6708 15.3055 14.8168C15.1255 15.0079 15.0693 15.2589 15.0505 15.9481C15.028 16.716 15.0843 17.1917 15.3317 18.3005C15.7854 20.3269 15.6917 20.8589 14.6193 22.3197C14.3644 22.6681 13.9144 23.3274 13.6145 23.7881C13.3183 24.2488 12.9883 24.7358 12.8871 24.8706C12.2121 25.7472 11.2485 26.339 9.54625 26.9233C7.42777 27.6538 6.94034 27.7811 5.76674 27.9047C5.65801 27.916 5.35055 27.9534 5.08058 27.9834C4.81062 28.0171 4.58565 28.0433 4.57815 28.0433C4.57065 28.0433 4.5669 27.9647 4.5669 27.871V27.7025L5.24556 27.6163C6.38166 27.474 7.14656 27.3129 7.95271 27.0395C10.0037 26.3465 10.4799 26.1667 11.1023 25.8333C12.0247 25.3426 12.5121 24.9006 13.067 24.0428C13.7344 23.0164 14.5031 21.7579 14.6868 21.3945C15.133 20.5217 15.1705 19.9187 14.878 18.4278C14.6943 17.4726 14.6343 16.8696 14.6306 15.8507C14.6231 14.1051 14.8406 13.5545 15.4255 13.8354ZM16.3291 16.3601C16.5091 16.4538 16.8165 16.7647 17.424 17.4839C18.3126 18.5364 18.6013 18.7874 19.2387 19.0796C20.3561 19.5965 21.151 19.7314 22.8345 19.6902C24.5705 19.6452 25.5266 19.5291 26.7527 19.2107C26.9477 19.162 27.1614 19.1096 27.2327 19.0983C27.3002 19.0871 27.5139 19.0346 27.7051 18.9897C28.0013 18.911 28.1551 18.8998 28.8 18.8998C29.5124 18.8998 29.5649 18.9035 29.9211 19.0122C30.1273 19.0758 30.3935 19.1657 30.5135 19.2182C30.6297 19.2669 30.9672 19.398 31.2596 19.5104C32.7107 20.0647 32.9282 20.1621 33.4231 20.4955C34.0193 20.8926 34.4767 21.3908 35.2304 22.4658L35.5528 22.9265L35.5416 23.2337L35.5303 23.5371L35.1366 22.9153C34.4392 21.814 34.0155 21.3046 33.4269 20.8589C33.1157 20.6229 32.4145 20.2483 31.9496 20.0685C31.8408 20.0235 31.5296 19.8999 31.2596 19.7838C29.6361 19.1096 29.6361 19.1096 28.86 19.0871C28.2938 19.0721 28.2038 19.0796 27.6376 19.192C27.3002 19.2594 26.884 19.3493 26.7115 19.3905C26.1116 19.5291 25.4142 19.6639 25.1817 19.6864C25.0542 19.6977 24.833 19.7239 24.6905 19.7426C24.0568 19.8325 22.3583 19.9112 21.4959 19.8924C20.5248 19.87 20.5023 19.8662 19.0812 19.4504C18.8225 19.3755 18.4401 19.2744 18.2264 19.2257C17.8927 19.1508 17.8177 19.147 17.6789 19.1882C17.4352 19.2631 17.394 19.3418 17.0678 20.3719C16.7041 21.5256 16.3516 22.065 15.3392 23.0202C14.7131 23.6083 14.5031 23.8593 13.8882 24.7433C13.1833 25.7621 12.8646 26.133 12.3246 26.5675C11.6722 27.0956 11.1173 27.3653 9.68498 27.8523C8.25642 28.343 7.22905 28.5827 6.1042 28.6914C5.66926 28.7326 4.78812 28.83 4.67564 28.8487C4.57065 28.8674 4.5669 28.8599 4.5669 28.6914C4.5669 28.5827 4.58565 28.5153 4.61189 28.5153C4.63814 28.5153 4.94185 28.4816 5.29056 28.4404C5.63926 28.3992 6.0967 28.343 6.30292 28.3205C6.84285 28.2643 7.57776 28.1108 8.14018 27.9459C8.78135 27.7587 10.2474 27.2642 10.6786 27.0882C11.421 26.7885 12.0922 26.3577 12.6096 25.8483C12.977 25.4887 13.1908 25.2115 13.8019 24.305C14.3456 23.4997 14.5143 23.2824 15.1368 22.5969C15.7254 21.9489 15.9092 21.7017 16.1229 21.2597C16.5128 20.4468 16.5128 19.7351 16.1229 18.0008C15.8829 16.922 15.8567 16.5287 16.0254 16.3601C16.1191 16.2665 16.1491 16.2665 16.3291 16.3601ZM29.5461 19.4617C29.9098 19.5665 29.8086 19.5216 31.1809 20.1471C32.5495 20.769 32.7519 20.8776 33.1869 21.2035C33.8093 21.6717 34.1955 22.1811 35.0092 23.6045L35.5528 24.5522L35.5416 24.9118L35.5303 25.2677L35.3616 24.983C35.2641 24.8219 35.0054 24.3462 34.7842 23.9192C34.1243 22.6531 33.8693 22.2785 33.3181 21.7466C32.8419 21.2896 32.6282 21.1585 31.3384 20.5217C30.0935 19.9112 29.6586 19.7164 29.4749 19.6827C29.4074 19.6714 29.2799 19.6415 29.1937 19.619C28.9874 19.5591 28.2113 19.5591 27.8363 19.619C27.6714 19.6452 27.4689 19.6752 27.3827 19.6864C27.2964 19.6939 27.0115 19.7463 26.7527 19.8025C25.8941 19.9786 25.1105 20.0947 24.1131 20.1958C23.5732 20.252 22.8195 20.3419 22.4408 20.3944C21.3085 20.5517 20.971 20.5742 19.9624 20.5629L18.995 20.5517L18.7663 20.6566C18.4551 20.8027 18.1476 21.1323 17.8364 21.6492C17.3865 22.3909 17.064 22.8629 16.8315 23.1176C16.7078 23.2524 16.3291 23.5708 15.9917 23.8255C15.1968 24.4174 14.908 24.7096 14.2144 25.6235C13.5095 26.545 13.2208 26.8784 12.8383 27.2043C12.1334 27.8074 11.4285 28.1744 10.0524 28.6539C8.87508 29.0659 8.08394 29.2457 6.64788 29.4181C6.10045 29.4855 5.44054 29.5679 5.18182 29.5979C4.53315 29.6803 4.5669 29.684 4.5669 29.5005C4.5669 29.3282 4.5669 29.3282 4.94185 29.2832C5.05059 29.272 5.53052 29.2195 6.00671 29.1671C7.91896 28.9498 8.74385 28.7588 10.4724 28.1145C12.0059 27.5451 12.8196 26.9458 13.7382 25.7022C14.5631 24.5897 14.7056 24.4061 14.9793 24.1327C15.1293 23.9754 15.478 23.672 15.7479 23.4547C16.5841 22.7842 16.8503 22.4621 17.4052 21.4657C17.8927 20.5892 18.0651 20.3794 18.4401 20.1996C18.7588 20.046 19.0175 20.0385 19.8199 20.1584C20.641 20.2783 21.256 20.2895 22.1971 20.1996C22.5383 20.1659 23.142 20.1134 23.5432 20.0797C24.923 19.9636 25.6504 19.8587 26.8502 19.604C27.8288 19.3942 28.1813 19.353 28.74 19.368C29.1112 19.3793 29.3549 19.4092 29.5461 19.4617ZM29.4299 20.0273C29.9323 20.1921 31.9271 21.2259 32.437 21.5855C32.9919 21.9789 33.4756 22.5183 33.8506 23.17C33.9593 23.3573 34.2255 23.8855 34.443 24.3425C34.6567 24.7957 34.9979 25.4512 35.1929 25.7958L35.5528 26.4251L35.5491 26.8522V27.2754L35.4403 27.0994C35.2041 26.7248 34.5217 25.4475 34.3567 25.0729C34.263 24.8556 34.083 24.4511 33.9593 24.1702C33.5618 23.2749 33.2506 22.7917 32.7594 22.2973C32.332 21.874 32.092 21.7054 31.1622 21.1773C30.1498 20.6079 29.6324 20.3494 29.2424 20.2258C28.9425 20.1322 28.8637 20.1209 28.2488 20.1209C27.7501 20.1209 27.4276 20.1434 26.989 20.2108C26.6627 20.2595 26.1153 20.3419 25.7666 20.3944C25.4217 20.4468 24.9155 20.518 24.6455 20.5517C23.3557 20.7128 22.887 20.8102 21.4809 21.1997C21.3085 21.2447 20.806 21.3458 20.3598 21.4207C19.0662 21.6342 18.95 21.7129 18.1214 22.964C17.469 23.9454 17.2027 24.2263 16.3291 24.8332C15.9917 25.0654 15.6055 25.3576 15.4742 25.4737C15.343 25.5936 14.938 26.0468 14.5706 26.4851C13.5282 27.7362 12.9733 28.2194 12.0472 28.7064C10.5886 29.4742 8.80759 29.9799 6.92534 30.1672C6.70037 30.1897 6.36291 30.2346 6.17544 30.2684C5.91672 30.3133 4.64939 30.4819 4.57815 30.4819C4.57065 30.4819 4.5669 30.407 4.5669 30.3133V30.1447L5.12933 30.0736C5.43679 30.0324 5.92797 29.9687 6.22043 29.9275C6.51289 29.89 6.99658 29.8301 7.29279 29.7964C8.60512 29.6428 10.0899 29.2308 11.3723 28.6577C12.5833 28.1183 13.247 27.5789 14.2481 26.3315C15.2268 25.1104 15.3317 25.0055 16.2579 24.3649C16.764 24.0128 17.169 23.6495 17.424 23.3199C17.5177 23.1962 17.7614 22.8292 17.9676 22.5033C18.4063 21.8065 18.5638 21.6043 18.8263 21.4095C19.1 21.211 19.4037 21.1286 20.0524 21.0799C20.7385 21.0312 21.3047 20.9525 21.8709 20.8289C22.6883 20.6491 23.3669 20.533 24.2143 20.4318C25.1255 20.3232 26.0328 20.1884 26.9102 20.031C28.0013 19.8325 28.8375 19.8325 29.4299 20.0273ZM28.7812 20.4993C29.2499 20.5704 29.8461 20.8476 30.8922 21.4769C32.467 22.4284 32.9994 23.0389 33.5993 24.5822C33.6818 24.7882 33.8018 25.0991 33.8693 25.2714C34.143 25.9756 34.9417 27.5414 35.3391 28.152L35.5528 28.4779L35.5491 28.8787V29.2832L35.3954 29.1034C35.1554 28.83 34.8067 28.2194 34.3155 27.2155C33.8468 26.2566 33.7193 25.9569 33.5019 25.3276C32.8794 23.5109 32.3995 22.8292 31.1622 22.0013C30.3185 21.4357 29.5124 21.0012 28.9762 20.8214C28.6425 20.709 28.6387 20.709 27.6789 20.709C26.6702 20.7128 26.2128 20.7577 24.3905 21.0274C23.4119 21.1735 23.1157 21.2634 21.2597 21.9751C21.1172 22.0276 20.9335 22.095 20.8473 22.1249C19.5762 22.5445 19.2575 22.7767 18.5263 23.8293C17.8702 24.777 17.4877 25.1665 16.5541 25.8371C15.9804 26.2491 15.7029 26.5113 15.013 27.2829C14.2781 28.1033 13.8094 28.5266 13.1495 28.9686C12.2046 29.5979 11.0648 30.0923 9.75622 30.4407C9.31753 30.5568 8.3464 30.7478 7.93396 30.7965C7.45027 30.8565 6.39291 31.0213 6.04796 31.0962C5.81174 31.1449 4.70563 31.3059 4.60065 31.3059C4.5819 31.3059 4.5669 31.231 4.5669 31.1374V30.9651L4.94935 30.9164C5.16307 30.8902 5.688 30.8078 6.12295 30.7366C6.55414 30.6654 7.02283 30.598 7.16531 30.583C8.93133 30.407 10.6074 29.9425 12.0209 29.2383C13.1608 28.6726 13.7344 28.1969 14.863 26.9009C15.5717 26.0843 15.7329 25.9344 16.5091 25.3838C17.439 24.7208 17.7352 24.4136 18.4288 23.3835C18.9238 22.6494 19.19 22.3834 19.6137 22.1849C19.7937 22.1025 20.1873 21.9676 20.4911 21.889C20.7948 21.8065 21.4322 21.6118 21.9084 21.4544C22.7633 21.1735 23.4119 20.9825 23.6406 20.9525C23.7081 20.9413 24.0793 20.8888 24.4693 20.8326C26.0741 20.6041 26.6215 20.533 27.1277 20.4918C28.0426 20.4206 28.26 20.4206 28.7812 20.4993ZM28.5038 21.1211C28.8412 21.1885 29.0174 21.2522 29.4711 21.4732C30.0823 21.7766 31.0384 22.3909 31.4884 22.773C32.1595 23.3423 32.632 24.1627 33.0707 25.5074C33.3631 26.4064 33.4756 26.6986 33.9105 27.6688C34.5405 29.0959 34.8292 29.5979 35.2566 30.0211C35.3841 30.1447 35.5003 30.2459 35.5191 30.2459C35.5378 30.2459 35.5528 30.3957 35.5528 30.5793C35.5528 30.7628 35.5416 30.9164 35.5266 30.9164C35.4703 30.9164 35.1179 30.628 34.9192 30.4182C34.5292 30.0062 34.2668 29.5417 33.8206 28.4554C33.6893 28.1332 33.5356 27.7699 33.4869 27.65C33.2994 27.2193 33.1119 26.7136 32.9357 26.1554C32.8382 25.8408 32.707 25.4362 32.6507 25.249C32.5007 24.7845 32.2045 24.1589 31.9496 23.7768C31.6458 23.3199 31.1284 22.8441 30.4385 22.3872C29.4636 21.7391 28.6725 21.3983 27.9601 21.3196C27.1989 21.2297 25.6804 21.2896 24.7655 21.4395C24.4918 21.4844 24.2068 21.5294 24.1243 21.5368C23.9556 21.5593 23.3744 21.7354 22.9732 21.889C22.6245 22.0201 20.8473 22.9078 20.3748 23.185C19.7112 23.5783 19.5499 23.7394 18.6201 24.9493C18.0876 25.646 17.6714 26.0768 17.0078 26.6274C16.7378 26.8522 16.1341 27.4178 15.6692 27.886C15.2043 28.3542 14.6718 28.8562 14.4881 29.0023C13.5395 29.7552 12.4521 30.347 11.2298 30.7703C10.2999 31.0924 9.58749 31.261 8.14393 31.5045C7.634 31.5869 7.06782 31.6918 6.8841 31.7367C5.72175 32.0102 5.30555 32.0926 4.77312 32.1488L4.5669 32.1712V31.9765V31.7779H4.73563C4.91935 31.7779 5.80049 31.6318 6.35917 31.5082C6.86535 31.3958 7.78398 31.2273 7.88521 31.231C7.93396 31.231 8.23767 31.1823 8.56388 31.1262C10.3711 30.8115 11.8972 30.2758 13.1533 29.5154C13.8769 29.0809 14.2406 28.77 15.2755 27.7287C15.9167 27.0844 16.4566 26.5787 16.7715 26.3315C17.7127 25.5898 17.9901 25.3014 18.74 24.2863C19.37 23.436 19.6737 23.1513 20.2773 22.8516C20.6448 22.6681 22.4933 21.8365 22.797 21.7204C23.5807 21.4207 24.5743 21.2259 25.9241 21.1061C26.314 21.0686 26.704 21.0349 26.7902 21.0274C27.1689 20.99 28.1063 21.0424 28.5038 21.1211ZM27.8138 21.7092C28.3275 21.8028 28.755 21.9526 29.3361 22.2411C30.416 22.7842 31.1622 23.3798 31.6271 24.0803C31.9908 24.6272 32.1558 25.0429 32.6207 26.5862C32.7032 26.8597 32.8382 27.2642 32.9207 27.4927C33.0069 27.7212 33.1531 28.1183 33.2469 28.3767C33.8843 30.1335 34.188 30.7104 34.7429 31.2198C34.8854 31.3509 35.1254 31.5195 35.2754 31.6019L35.5528 31.7442V32.0177C35.5528 32.1675 35.5453 32.2911 35.5378 32.2911C35.4778 32.2911 35.0954 32.0963 34.8817 31.9577C34.4167 31.6581 34.008 31.1786 33.7118 30.5793C33.4531 30.0698 32.632 27.71 32.2458 26.3727C31.8183 24.9081 31.4884 24.2563 30.8584 23.6532C30.206 23.0277 29.1037 22.4134 28.0726 22.095C27.0752 21.7916 25.0842 21.7953 23.9856 22.1025C23.1907 22.3235 22.5158 22.6568 21.4584 23.3573C20.4011 24.054 19.8761 24.5298 19.2162 25.3913C18.4888 26.3315 18.2601 26.6012 17.4615 27.4328C16.1491 28.8075 15.7217 29.2195 15.2342 29.5866C14.0082 30.5043 12.4634 31.231 10.7498 31.6955C10.3824 31.7967 9.57624 31.969 8.63887 32.1488C7.93771 32.2836 7.45777 32.4072 6.67412 32.6432C6.0742 32.8268 5.2943 32.9953 4.91186 33.0215L4.5669 33.0515V32.853V32.6582L4.9306 32.632C5.3093 32.6057 5.94672 32.4746 6.8316 32.2349C7.31529 32.1038 7.69024 32.0214 9.19379 31.733C11.0198 31.3846 12.4709 30.8639 13.7832 30.0886C14.6043 29.6016 15.1293 29.1746 16.3179 28.0096C18.0876 26.2828 18.2976 26.0618 18.9313 25.2452C19.5987 24.3837 20.0036 23.9716 20.5323 23.6158C21.3347 23.0726 22.6283 22.3497 23.1982 22.1249C23.8431 21.8702 24.5893 21.7204 25.7479 21.6155C26.1791 21.5781 27.3902 21.6305 27.8138 21.7092ZM26.359 22.2411C27.2664 22.2898 28.0726 22.5257 29.2012 23.0726C29.8273 23.376 30.281 23.6907 30.6747 24.099C31.2559 24.7021 31.5221 25.2752 32.0283 27.0207C32.182 27.5601 32.8944 29.8413 33.0482 30.3058C33.3406 31.1711 33.6931 31.7742 34.1768 32.2312C34.4805 32.5158 34.9304 32.7968 35.3016 32.9279L35.5528 33.0178V33.265C35.5528 33.3999 35.5341 33.5085 35.5116 33.5085C35.4328 33.5085 34.9304 33.3025 34.6867 33.1714C34.008 32.7968 33.5168 32.2761 33.1344 31.5157C32.9844 31.2161 32.6995 30.392 32.5382 29.7926C32.4332 29.4031 32.347 29.1109 32.1858 28.5752C32.1295 28.3805 31.9683 27.8223 31.8258 27.3354C31.3646 25.7322 31.1172 25.1328 30.6897 24.5897C30.191 23.9529 29.5049 23.5409 27.8701 22.8966C26.9852 22.5445 25.5904 22.4021 24.5855 22.552C23.4044 22.7318 22.2721 23.3985 20.9485 24.6796C20.3186 25.2939 19.9849 25.6947 19.3137 26.6499C19.0138 27.0807 18.5788 27.6912 18.3463 28.0021C18.1176 28.3168 17.8214 28.7251 17.6977 28.9086C17.2102 29.6128 16.7603 30.0698 16.2016 30.4257C15.8417 30.6542 14.863 31.1112 14.0944 31.4071C12.7858 31.9128 11.556 32.2799 10.2961 32.5458C8.40265 32.9391 8.24892 32.9841 6.95534 33.4673C6.16419 33.7632 5.20807 33.9805 4.70938 33.9805H4.5669V33.7894V33.5984L4.83312 33.5722C5.57552 33.4973 6.05171 33.3811 7.28529 32.9653C7.93021 32.7481 8.51513 32.602 9.74497 32.3473C11.6535 31.954 12.8196 31.5644 14.3494 30.8152C15.568 30.2197 16.3704 29.6391 16.9665 28.9236C17.2777 28.549 17.8027 27.9197 18.3088 27.3167C18.4738 27.1219 18.8938 26.5787 19.2425 26.1142C20.0674 25.0055 20.656 24.4136 21.6947 23.6532C22.7258 22.8928 23.4794 22.522 24.3905 22.3347C24.7917 22.2523 25.5079 22.1886 25.8266 22.2074C25.9241 22.2148 26.1641 22.2298 26.359 22.2411ZM26.2803 22.9678C26.8652 23.0651 27.3789 23.23 28.2713 23.612C29.1374 23.9791 29.4824 24.1514 29.7898 24.3687C30.251 24.6946 30.6785 25.2564 30.9297 25.852C31.0609 26.1667 31.3571 27.0619 31.4734 27.4927C31.5221 27.6762 31.6383 28.092 31.7283 28.4179C31.8221 28.7401 31.9008 29.0322 31.9083 29.0659C31.9158 29.0997 31.9646 29.2944 32.017 29.4967C32.0733 29.7027 32.1633 30.0773 32.2233 30.3245C32.3658 30.9239 32.5757 31.5756 32.737 31.9278C33.1944 32.9204 34.0605 33.6845 35.1666 34.0816L35.5303 34.209L35.5416 34.4487C35.5491 34.6098 35.5416 34.6884 35.5116 34.6884C35.3991 34.6884 34.8254 34.4674 34.4805 34.2876C33.6143 33.8381 32.8869 33.1377 32.5045 32.381C32.272 31.9165 32.107 31.3546 31.8108 29.9762C31.7433 29.6653 31.6196 29.1334 31.5296 28.7962C31.4434 28.4591 31.3496 28.092 31.3196 27.9834C31.2934 27.8748 31.2222 27.6313 31.1659 27.4403C30.551 25.3688 30.1123 24.8032 28.6237 24.1777C28.4363 24.099 28.0913 23.9529 27.8551 23.8518C26.689 23.3611 26.0141 23.1962 25.1367 23.2C24.6755 23.2 24.5255 23.215 24.2106 23.2974C23.0445 23.6083 22.1183 24.3649 21.166 25.7884C21.0235 26.0056 20.6523 26.6611 20.3486 27.2417C19.5574 28.7513 18.7063 30.1485 18.2376 30.7141C17.6939 31.3734 17.1652 31.7217 16.2579 32.0177C15.7029 32.2012 14.0869 32.5608 11.8109 33.014C8.98382 33.5797 8.95757 33.5834 7.65649 34.1603C6.49415 34.6734 5.96547 34.8383 5.14432 34.9431C4.51441 35.0255 4.5669 35.0405 4.5669 34.7933V34.5798L4.79187 34.5536C5.71425 34.4599 6.28792 34.3101 7.2253 33.9243C7.42028 33.8419 7.68649 33.7332 7.81397 33.6808C8.47014 33.4111 9.08881 33.235 10.3149 32.9803C12.2459 32.5758 14.0569 32.1076 15.5305 31.6356C16.4866 31.3247 17.0903 30.9838 17.5814 30.4744C17.9676 30.0736 18.0951 29.8825 19.175 28.0845C20.2061 26.3577 20.4498 25.9944 21.076 25.249C21.9684 24.1814 22.857 23.4734 23.7231 23.1476C24.4055 22.8853 25.3729 22.8179 26.2803 22.9678ZM25.8716 23.7581C26.2878 23.8405 26.824 24.0166 27.3227 24.2301C27.4839 24.2975 27.8551 24.4511 28.1476 24.571C29.4149 25.0879 29.8648 25.44 30.2698 26.2266C30.656 26.9908 31.1209 28.6015 31.3946 30.1485C31.7096 31.9165 31.7958 32.2536 32.0358 32.7443C32.2458 33.1639 32.4707 33.4523 32.9169 33.8831C33.3444 34.2951 33.9143 34.6997 34.398 34.9431C34.7692 35.1267 35.2229 35.3065 35.4066 35.3402C35.5266 35.3627 35.5528 35.3851 35.5528 35.4601V35.5537H35.0691H34.5855L34.2518 35.3739C33.4681 34.9581 32.587 34.2726 32.122 33.7295C31.5859 33.1039 31.3946 32.5833 31.2184 31.2947C30.9559 29.3843 30.7085 28.2381 30.3448 27.2567C29.9323 26.148 29.5574 25.6947 28.7212 25.2902C28.1213 24.998 26.3665 24.3088 25.9466 24.2001C25.4292 24.0653 24.7692 24.0353 24.3456 24.129C23.8431 24.2376 23.4982 24.4286 23.1045 24.8182C22.527 25.3913 22.2571 25.9644 21.9046 27.3728C21.6497 28.3805 21.6047 28.534 21.4359 28.8674C21.2485 29.242 20.9785 29.6053 20.4236 30.2309C20.1536 30.5343 19.7862 30.9688 19.6024 31.1936C18.1026 33.0478 17.4502 33.3587 14.5293 33.6284C12.7521 33.7894 11.0048 34.0254 10.1574 34.2165C9.48625 34.37 9.07756 34.5274 8.30891 34.9169C7.95271 35.1005 7.50276 35.3177 7.31154 35.4039L6.96659 35.5575L6.13045 35.5537L5.2943 35.55L5.66551 35.4713C6.39666 35.3177 7.06032 35.0668 8.21892 34.4974C9.40751 33.913 10.0974 33.7632 14.2706 33.1714C15.7704 32.9616 16.2316 32.8754 16.7341 32.7181C17.4615 32.4859 17.9376 32.1937 18.4663 31.6655C18.7588 31.3696 20.1424 29.5716 20.4948 29.0247C20.746 28.6427 20.9747 28.137 21.2185 27.4328C21.6309 26.2528 21.7996 25.8783 22.1558 25.3276C22.527 24.7583 23.082 24.2413 23.6181 23.9716C24.1993 23.6832 25.088 23.5971 25.8716 23.7581ZM25.5529 24.8032C25.8154 24.8594 27.8176 25.5823 28.3275 25.8033C28.6087 25.9307 29.0062 26.1929 29.2124 26.3952C29.9773 27.1369 30.4498 28.785 30.6522 31.3846C30.6822 31.8079 30.7272 32.2611 30.7497 32.3885C30.8847 33.1601 31.1209 33.6733 31.5671 34.1453C31.8446 34.4412 32.587 35.0293 33.1269 35.3814L33.3594 35.535L32.9694 35.5462L32.5795 35.5575L32.0808 35.2203C31.1434 34.5873 30.7385 34.1453 30.4947 33.5085C30.3373 33.0852 30.2773 32.6994 30.2135 31.673C30.1048 29.8938 29.9848 29.0697 29.7223 28.2981C29.3811 27.2829 28.935 26.7286 28.1701 26.3577C27.8213 26.1892 25.8116 25.5224 25.3729 25.4288C24.8067 25.3089 24.4318 25.3726 24.1243 25.646C23.7681 25.9569 23.5807 26.4813 23.5057 27.3953C23.4269 28.3542 23.3107 28.8599 23.0407 29.3993C22.7408 30.0062 22.3996 30.3882 21.3947 31.2498C20.866 31.703 20.4086 32.1413 20.0111 32.572C18.8863 33.7932 18.4963 34.0928 17.6377 34.3813C17.0153 34.591 16.4266 34.6697 15.0018 34.7296C12.1859 34.8458 10.6823 35.0518 9.75247 35.4451C9.4975 35.5537 9.46376 35.5575 8.96507 35.5462L8.44389 35.535L8.97632 35.269C9.26878 35.1229 9.66998 34.9506 9.86495 34.887C10.7198 34.6135 12.3696 34.4 14.5481 34.2764C16.3066 34.179 16.9815 34.0741 17.7014 33.7857C18.3876 33.5122 18.8863 33.1002 19.8836 31.9765C20.1799 31.6393 20.686 31.1187 21.0047 30.8152C22.3358 29.5567 22.587 29.0847 22.7783 27.4927C22.8532 26.8522 22.917 26.545 23.0482 26.1592C23.3444 25.2977 23.8769 24.8257 24.6455 24.7433C24.953 24.7096 25.1629 24.7245 25.5529 24.8032ZM27.0564 27.017C27.4726 27.1106 27.9863 27.3466 28.2263 27.5489C28.4775 27.7624 28.7212 28.092 28.8975 28.4554C29.2987 29.287 29.4224 30.0136 29.5274 32.1563C29.5499 32.587 29.5949 33.0927 29.6286 33.2763C29.7973 34.1715 30.251 34.8383 31.0497 35.3664C31.1884 35.4563 31.3009 35.535 31.3009 35.5425C31.3009 35.55 31.0759 35.5537 30.806 35.5537H30.311L29.9436 35.1904C29.2462 34.4974 29.0474 33.958 28.8975 32.3548C28.7437 30.7253 28.6237 30.0923 28.35 29.4555C28.0838 28.8412 27.7764 28.4704 27.3714 28.2756C27.1502 28.1707 26.6065 28.1295 26.359 28.1969C25.9166 28.313 25.5641 28.6577 25.1967 29.3319C24.6868 30.2646 24.5068 30.5343 24.1543 30.9051C23.7081 31.3734 23.3519 31.6393 22.4221 32.1937C21.316 32.8492 21.166 32.9691 20.2773 33.8643C19.2575 34.887 18.9688 35.108 18.2639 35.4114L17.9226 35.5575L15.2755 35.5575C13.8169 35.5575 12.6321 35.55 12.6396 35.5387C12.6658 35.5163 13.9369 35.4413 15.058 35.3964C16.9253 35.3252 17.6339 35.2016 18.4063 34.8158C18.8938 34.5723 19.175 34.3401 20.1574 33.3549C21.0422 32.4672 21.1772 32.3473 21.7921 31.9165C23.5319 30.6916 23.9294 30.1747 24.533 28.3505C24.818 27.4777 24.878 27.3504 25.073 27.1631C25.2942 26.9533 25.5379 26.8971 26.1603 26.9196C26.509 26.9308 26.839 26.9683 27.0564 27.017ZM26.7565 31.6169C27.1802 31.8116 27.6976 32.6132 28.0501 33.6284C28.2938 34.3251 28.6012 34.9619 28.8525 35.2915L29.0587 35.5537H28.6237H28.1888L28.0688 35.3889C28.0013 35.2952 27.7914 34.9506 27.6039 34.6173C27.2252 33.943 26.9852 33.6583 26.6328 33.4486C26.2241 33.2088 25.9241 33.1377 25.3167 33.1414C24.5105 33.1451 23.0932 33.4148 22.2946 33.7145C21.7884 33.9055 21.4397 34.1603 20.6823 34.8982L20.0036 35.5537H19.6587C19.4712 35.5537 19.3325 35.5425 19.3512 35.5237C19.3737 35.505 19.4787 35.4226 19.5874 35.3365C19.6962 35.254 20.1311 34.842 20.5586 34.4262C21.5634 33.4448 21.7209 33.3437 22.9732 32.853C24.1918 32.3773 24.413 32.2874 25.0205 32.0139C26.0778 31.5382 26.4115 31.4633 26.7565 31.6169ZM25.2117 34.355C25.8866 34.4974 26.2503 34.7184 26.659 35.2316L26.9027 35.535L26.329 35.5462L25.7591 35.5575L25.5566 35.4226C25.1255 35.1304 24.6305 35.0106 23.7569 34.9769C22.7595 34.9431 22.3358 35.0293 21.8071 35.3814C21.5447 35.5537 21.5447 35.5537 21.196 35.5537H20.8473L21.121 35.2952C21.8521 34.6173 22.3283 34.4 23.2994 34.2989C23.8056 34.2464 24.8442 34.2764 25.2117 34.355Z" fill="#F4F4F4"/>
</g>
<defs>
<clipPath id="clip0_2195_418">
<rect width="40" height="40" fill="white"/>
</clipPath>
</defs>
</svg>
