<svg width="34" height="37" viewBox="0 0 34 37" fill="none" xmlns="http://www.w3.org/2000/svg">
<path fill-rule="evenodd" clip-rule="evenodd" d="M15.9031 6.44816C16.4906 6.62579 17.1161 6.6354 17.7088 6.47592L27.4635 23.7187C27.0119 24.1538 26.6946 24.7093 26.5491 25.3193H7.15373C6.99766 24.6788 6.65404 24.0995 6.16684 23.6554L15.9016 6.44816H15.9031ZM14.4829 5.57693C14.5107 5.60777 14.5415 5.63706 14.5708 5.66636L4.8145 22.9137C4.7685 22.9014 4.72222 22.8901 4.67572 22.8798V14.1104C5.1193 14.0112 5.53733 13.8206 5.90318 13.5509C6.26903 13.2811 6.57467 12.9381 6.80061 12.5437C7.02563 12.1516 7.16774 11.7174 7.21814 11.268C7.26854 10.8187 7.22614 10.3638 7.09359 9.93156L14.4829 5.57847V5.57693ZM19.9879 4.28935C20.1442 3.79868 20.1831 3.27818 20.1016 2.76971C20.0201 2.26124 19.8203 1.77901 19.5185 1.36179C19.2166 0.944574 18.8211 0.604023 18.3636 0.367531C17.9062 0.131039 17.3996 0.00520786 16.8847 0.000158235C16.3698 -0.00489138 15.8608 0.110982 15.3988 0.338458C14.9369 0.565933 14.5347 0.898661 14.2247 1.30988C13.9147 1.7211 13.7056 2.19932 13.6141 2.70609C13.5226 3.21286 13.5514 3.73403 13.698 4.22767L6.30408 8.58539C5.94925 8.22149 5.51485 7.94486 5.03503 7.77725C4.5552 7.60964 4.04304 7.55561 3.5388 7.61943C3.03456 7.68324 2.55201 7.86315 2.12906 8.14501C1.70612 8.42688 1.35433 8.803 1.10134 9.24383C0.848675 9.6852 0.70114 10.1789 0.670195 10.6865C0.639249 11.1941 0.725725 11.7021 0.922909 12.1709C1.12009 12.6397 1.42268 13.0567 1.80716 13.3896C2.19165 13.7225 2.64769 13.9623 3.13988 14.0904V22.9029C2.64876 23.0323 2.19399 23.2729 1.81074 23.6061C1.42749 23.9393 1.12604 24.3563 0.92971 24.8247C0.733385 25.293 0.647447 25.8003 0.678545 26.3072C0.709644 26.8141 0.856945 27.3071 1.10905 27.7479C1.36169 28.1877 1.71273 28.563 2.13467 28.8444C2.55661 29.1258 3.03798 29.3056 3.54105 29.3698C4.04413 29.4341 4.55525 29.3809 5.03435 29.2146C5.51345 29.0482 5.94752 28.7732 6.30254 28.411L13.6965 32.7687C13.6081 33.0718 13.5634 33.3859 13.5639 33.7016C13.5628 34.1343 13.6472 34.5629 13.812 34.9629C13.9768 35.363 14.2189 35.7266 14.5244 36.0329C14.8299 36.3393 15.1928 36.5824 15.5924 36.7483C15.992 36.9143 16.4203 36.9998 16.853 37C17.3794 36.9989 17.8979 36.8716 18.3651 36.629C18.8324 36.3864 19.2347 36.0354 19.5384 35.6054C19.8422 35.1755 20.0386 34.679 20.1111 34.1576C20.1837 33.6362 20.1303 33.1049 19.9555 32.6084L27.2816 28.2907C27.6269 28.681 28.0602 28.9834 28.5457 29.173C29.0311 29.3625 29.5547 29.4337 30.0731 29.3807C30.5916 29.3276 31.0899 29.1518 31.5269 28.8679C31.9639 28.584 32.327 28.2001 32.5861 27.7479C32.8459 27.2998 32.9964 26.7968 33.0255 26.2797C33.0546 25.7626 32.9615 25.2459 32.7537 24.7714C32.5458 24.297 32.2291 23.8782 31.8292 23.5491C31.4293 23.2199 30.9575 22.9895 30.452 22.8767V14.1181C30.9579 14.0051 31.4302 13.7749 31.831 13.446C32.2317 13.1171 32.5495 12.6987 32.759 12.2245C32.9684 11.7503 33.0635 11.2335 33.0367 10.7158C33.0099 10.1981 32.8619 9.69387 32.6046 9.24383C32.3485 8.79919 31.992 8.42064 31.5634 8.13843C31.1349 7.85622 30.6463 7.67818 30.1367 7.61854C29.6271 7.5589 29.1106 7.61932 28.6285 7.79496C28.1464 7.97061 27.712 8.25661 27.3602 8.63011L19.9894 4.28781L19.9879 4.28935ZM19.0642 5.73421L19.1799 5.62319L26.5938 9.9917C26.473 10.4162 26.4384 10.8606 26.4922 11.2986C26.5459 11.7367 26.6869 12.1595 26.9069 12.5422C27.1224 12.9199 27.4111 13.2509 27.7561 13.5157C28.1011 13.7805 28.4955 13.9737 28.9161 14.0842V22.9045C28.8758 22.9155 28.8357 22.9273 28.7958 22.94L19.0642 5.73421V5.73421ZM26.6123 27.1034L19.2508 31.4426C18.944 31.1142 18.573 30.8525 18.1607 30.6737C17.7485 30.4949 17.3039 30.4029 16.8545 30.4033C15.9201 30.4033 15.0781 30.7919 14.4798 31.4179L7.1013 27.0695C7.11981 27.0093 7.13677 26.9492 7.15065 26.8875H26.5522C26.5707 26.96 26.5908 27.0325 26.6139 27.1034H26.6123Z" fill="#333333"/>
</svg>
