<svg width="24" height="24" viewBox="0 0 24 24" fill="none" xmlns="http://www.w3.org/2000/svg">
<path d="M10.44 0L9.36 1.87L22.136 24H23.28C23.471 24 23.6541 23.9241 23.7891 23.7891C23.9241 23.6541 24 23.471 24 23.28V20.161L12.36 0H10.44ZM13.44 0L24 18.29V0.72C24 0.529044 23.9241 0.345909 23.7891 0.210883C23.6541 0.0758569 23.471 0 23.28 0L13.44 0ZM8.82 2.806L6.84 6.236L16.976 24H21.056L8.82 2.806ZM6.24 7.274L4.76 9.837C4.58946 10.1322 4.49967 10.4671 4.49967 10.808C4.49967 11.1489 4.58946 11.4838 4.76 11.779C6.531 14.842 11.816 24 11.816 24H15.896L6.24 7.274ZM3.66 11.744L0 18.082V23.279C0 23.676 0.323 23.999 0.72 23.999H10.736L3.66 11.744Z" fill="white"/>
</svg>
