<svg width="24" height="24" viewBox="0 0 24 24" fill="none" xmlns="http://www.w3.org/2000/svg">
<path d="M10.44 2.20052e-09L9.96 0.831L15.84 11.016L22.2 2.20052e-09H10.44ZM23.28 2.20052e-09L14.703 14.856H24V0.711C23.9976 0.521608 23.9207 0.340777 23.786 0.207691C23.6512 0.0746055 23.4694 -1.47958e-05 23.28 2.20052e-09V2.20052e-09ZM9.42 1.767L5.76 8.106H13.08L9.42 1.767ZM10.983 9.024H10.965C10.605 9.029 10.265 9.24 10.086 9.547L9.003 11.427L8.995 11.441C8.9085 11.5971 8.86311 11.7726 8.86311 11.951C8.86311 12.1294 8.9085 12.3049 8.995 12.461C9.35929 13.0924 9.72363 13.7237 10.088 14.355C10.272 14.665 10.618 14.855 10.973 14.856C10.975 14.856 12.353 14.858 13.04 14.855C13.4 14.85 13.739 14.65 13.918 14.343C14.282 13.712 14.649 13.082 15.011 12.449C15.187 12.135 15.181 11.746 15.004 11.438L14.994 11.423L13.916 9.553L13.91 9.544C13.8196 9.38987 13.6915 9.26127 13.5378 9.1703C13.384 9.07933 13.2096 9.02899 13.031 9.024H13.019H10.983ZM5.22 9.04L0 18.082V18.472L0.003 23.343C0.0178937 23.5129 0.0926118 23.672 0.213846 23.7919C0.335079 23.9119 0.494957 23.9849 0.665 23.998L9.3 9.04H5.22ZM8.16 12.885L1.736 24H14.576L8.16 12.885ZM10.917 15.791L15.657 24H23.28C23.471 24 23.6541 23.9241 23.7891 23.7891C23.9241 23.6541 24 23.471 24 23.28V15.792L10.917 15.791Z" fill="white"/>
</svg>
