<svg width="140" height="158" viewBox="0 0 140 158" fill="none" xmlns="http://www.w3.org/2000/svg">
<path d="M0 0L12.5039 141.446L69.4914 157.625L126.252 141.446L139.002 0H0ZM112.725 33.5521L111.815 42.4943L111.493 46.1887H44.9193L46.4729 64.0352H109.959L109.333 68.6389L105.317 114.524L104.995 117.594L69.5672 127.369V127.426H69.3398L69.283 127.445V127.426H69.2641L33.5332 117.575L31.3734 90.1797H48.6326L49.8641 104.048L69.2641 109.296H69.3398L88.6641 104.067L90.8238 81.5975H69.283V81.5785H30.4641L26.1445 33.5521L25.8225 28.9484H113.028L112.725 33.5521V33.5521Z" fill="white"/>
</svg>
