<svg width="21" height="24" viewBox="0 0 21 24" fill="none" xmlns="http://www.w3.org/2000/svg">
<path fill-rule="evenodd" clip-rule="evenodd" d="M9.88258 4.18166C10.2636 4.29685 10.6692 4.30309 11.0536 4.19966L17.3796 15.3817C17.0867 15.6638 16.8809 16.0241 16.7866 16.4197H4.20858C4.10737 16.0043 3.88453 15.6286 3.56858 15.3407L9.88158 4.18166H9.88258ZM8.96158 3.61666C8.97958 3.63666 8.99958 3.65566 9.01858 3.67466L2.69158 14.8597C2.66174 14.8517 2.63174 14.8443 2.60158 14.8377V9.15066C2.88924 9.08631 3.16034 8.96273 3.39759 8.7878C3.63484 8.61287 3.83305 8.39043 3.97958 8.13466C4.12551 7.88034 4.21767 7.59876 4.25035 7.30738C4.28303 7.01599 4.25554 6.72099 4.16958 6.44066L8.96158 3.61766V3.61666ZM12.5316 2.78166C12.6329 2.46346 12.6582 2.12591 12.6053 1.79617C12.5525 1.46643 12.4229 1.15369 12.2272 0.883127C12.0314 0.61256 11.7749 0.391712 11.4783 0.238346C11.1816 0.0849796 10.8531 0.00337732 10.5192 0.000102616C10.1852 -0.00317208 9.85518 0.0719722 9.55557 0.219491C9.25597 0.36701 8.99516 0.582786 8.79414 0.849462C8.59312 1.11614 8.4575 1.42627 8.39817 1.75491C8.33885 2.08355 8.35748 2.42153 8.45258 2.74166L3.65758 5.56766C3.42747 5.33167 3.14576 5.15227 2.83459 5.04358C2.52342 4.93488 2.19128 4.89985 1.86428 4.94123C1.53728 4.98262 1.22434 5.09929 0.95006 5.28208C0.67578 5.46487 0.44764 5.70879 0.283578 5.99466C0.119722 6.28089 0.024045 6.60104 0.00397666 6.93024C-0.0160917 7.25945 0.0399886 7.58885 0.167863 7.89286C0.295737 8.19688 0.491964 8.46733 0.741306 8.68321C0.990647 8.8991 1.28639 9.0546 1.60558 9.13766V14.8527C1.28709 14.9365 0.992163 15.0926 0.743623 15.3087C0.495084 15.5248 0.299592 15.7951 0.172274 16.0989C0.0449557 16.4026 -0.0107755 16.7316 0.00939198 17.0603C0.0295595 17.3891 0.125085 17.7088 0.288578 17.9947C0.452414 18.2798 0.680067 18.5232 0.953695 18.7057C1.22732 18.8882 1.53949 19.0048 1.86574 19.0465C2.19199 19.0881 2.52345 19.0537 2.83415 18.9458C3.14485 18.8379 3.42634 18.6595 3.65658 18.4247L8.45158 21.2507C8.39427 21.4472 8.36531 21.6509 8.36558 21.8557C8.36492 22.1362 8.4196 22.4142 8.52649 22.6736C8.63337 22.933 8.79037 23.1688 8.98849 23.3675C9.18661 23.5662 9.42196 23.7238 9.68108 23.8315C9.9402 23.9391 10.218 23.9945 10.4986 23.9947C10.84 23.9939 11.1762 23.9114 11.4792 23.7541C11.7822 23.5967 12.0431 23.3691 12.2401 23.0903C12.4371 22.8114 12.5645 22.4895 12.6115 22.1513C12.6586 21.8132 12.624 21.4687 12.5106 21.1467L17.2616 18.3467C17.4855 18.5998 17.7665 18.7959 18.0813 18.9188C18.3962 19.0417 18.7357 19.0879 19.0719 19.0535C19.4081 19.0191 19.7313 18.9051 20.0147 18.721C20.2981 18.5369 20.5335 18.2879 20.7016 17.9947C20.87 17.7041 20.9677 17.3779 20.9866 17.0425C21.0054 16.7071 20.945 16.372 20.8102 16.0644C20.6754 15.7567 20.4701 15.4851 20.2107 15.2717C19.9514 15.0582 19.6454 14.9088 19.3176 14.8357V9.15566C19.6457 9.0824 19.952 8.9331 20.2119 8.7198C20.4717 8.50651 20.6779 8.23516 20.8137 7.92763C20.9495 7.6201 21.0112 7.28496 20.9938 6.94922C20.9764 6.61348 20.8804 6.28652 20.7136 5.99466C20.5475 5.70632 20.3163 5.46082 20.0384 5.27781C19.7605 5.09479 19.4436 4.97933 19.1131 4.94065C18.7826 4.90198 18.4477 4.94116 18.135 5.05507C17.8224 5.16898 17.5407 5.35445 17.3126 5.59666L12.5326 2.78066L12.5316 2.78166ZM11.9326 3.71866L12.0076 3.64666L16.8156 6.47966C16.7372 6.75493 16.7148 7.04313 16.7496 7.32721C16.7845 7.6113 16.876 7.88551 17.0186 8.13366C17.1583 8.37864 17.3456 8.59327 17.5693 8.76498C17.793 8.93669 18.0488 9.06203 18.3216 9.13366V14.8537C18.2954 14.8608 18.2694 14.8685 18.2436 14.8767L11.9326 3.71866V3.71866ZM16.8276 17.5767L12.0536 20.3907C11.8546 20.1777 11.614 20.008 11.3467 19.892C11.0793 19.7761 10.791 19.7164 10.4996 19.7167C9.89358 19.7167 9.34758 19.9687 8.95958 20.3747L4.17458 17.5547C4.18658 17.5157 4.19758 17.4767 4.20658 17.4367H16.7886C16.8006 17.4837 16.8136 17.5307 16.8286 17.5767H16.8276Z" fill="white"/>
</svg>
