<svg width="41" height="37" viewBox="0 0 41 37" fill="none" xmlns="http://www.w3.org/2000/svg">
<path d="M20.5 14.792C18.4846 14.792 16.8433 16.4567 16.8433 18.5009C16.8433 20.5451 18.4846 22.2098 20.5 22.2098C22.5154 22.2098 24.1567 20.5451 24.1567 18.5009C24.1567 16.4567 22.5154 14.792 20.5 14.792ZM10.2628 25.8719L9.45563 25.6692C3.44912 24.1253 0 21.5132 0 18.4944C0 15.4755 3.45041 12.8634 9.45563 11.3196L10.2628 11.1168L10.4896 11.9291C11.0989 14.0564 11.8779 16.13 12.8189 18.1292L12.9919 18.4944L12.8189 18.8661C11.876 20.8644 11.0969 22.9381 10.4896 25.0662L10.2628 25.8719ZM9.08278 13.2143C4.51769 14.5139 1.71559 16.51 1.71559 18.4944C1.71559 20.4788 4.51897 22.4671 9.08278 23.7745C9.64224 21.9715 10.3176 20.2077 11.1046 18.4944C10.3165 16.7815 9.64111 15.0177 9.08278 13.2143V13.2143ZM30.7372 25.8719L30.5104 25.0597C29.9021 22.9341 29.1231 20.8626 28.1811 18.8661L28.0081 18.4944L28.1811 18.1227C29.124 16.1244 29.9031 14.0506 30.5104 11.9226L30.7372 11.1168L31.5444 11.3196C37.5509 12.8634 41 15.4755 41 18.4944C41 21.5132 37.5496 24.1253 31.5444 25.6692L30.7372 25.8719ZM29.8954 18.4944C30.685 20.2066 31.3604 21.9706 31.9172 23.7745C36.4887 22.4684 39.2844 20.4788 39.2844 18.4944C39.2844 16.51 36.481 14.5217 31.9172 13.2143C31.3564 15.0168 30.6811 16.7805 29.8954 18.4944ZM9.06869 13.2078L8.84191 12.3956C7.15322 6.35788 7.667 2.02647 10.25 0.516393C12.7856 -0.966396 16.8497 0.786699 21.1137 5.22727L21.6941 5.83026L21.1137 6.43325C19.5995 8.03121 18.2159 9.75142 16.9766 11.5769L16.7434 11.9083L16.3423 11.942C14.1623 12.1166 11.9997 12.4699 9.87588 12.9986L9.06869 13.2078ZM12.3115 1.72238C11.8516 1.72238 11.4441 1.81724 11.1033 2.01997C9.40822 3.01543 9.10841 6.46704 10.2756 11.1233C12.0969 10.7101 13.9428 10.4184 15.8017 10.25C16.8718 8.70407 18.042 7.2319 19.3046 5.84325C16.6422 3.21036 14.1194 1.72108 12.3115 1.72108V1.72238ZM28.6949 36.9987C28.6885 36.9987 28.6885 36.9987 28.6949 36.9987C26.2592 36.9987 23.1291 35.1442 19.8863 31.7602L19.3059 31.1572L19.8863 30.5542C21.4005 28.9563 22.7841 27.2361 24.0234 25.4106L24.2502 25.0792L24.6512 25.0389C26.8341 24.8703 28.9993 24.5168 31.1241 23.9824L31.9313 23.7797L32.1581 24.5919C33.8468 30.6296 33.333 34.9545 30.75 36.4633C30.1255 36.8273 29.415 37.012 28.6949 36.9974V36.9987ZM21.6941 31.1442C24.3566 33.7771 26.8793 35.2664 28.6872 35.2664H28.6936C29.1472 35.2664 29.5546 35.165 29.8954 34.9688C31.5905 33.9733 31.898 30.5217 30.7231 25.8654C28.9022 26.2791 27.0561 26.5687 25.1971 26.7322C24.1269 28.2803 22.9567 29.7546 21.6941 31.1455V31.1442ZM31.9313 13.2078L31.1241 12.9986C28.9978 12.4717 26.8332 12.1184 24.6512 11.942L24.2502 11.9083L24.0234 11.5769C22.7841 9.75142 21.4005 8.03121 19.8863 6.43325L19.3059 5.83026L19.8863 5.22727C24.1503 0.786699 28.2144 -0.966396 30.75 0.516393C33.333 2.02517 33.8468 6.35788 32.1581 12.3956L31.9313 13.2078ZM25.1983 10.25C27.0572 10.4179 28.9032 10.7097 30.7244 11.1233C31.8993 6.46704 31.5918 3.01413 29.8967 2.01997C28.208 1.03231 25.0318 2.54759 21.6954 5.84455C22.9545 7.23618 24.1246 8.70812 25.1983 10.2513V10.25ZM12.3115 36.9987C11.5902 37.0117 10.8765 36.8298 10.25 36.4646C7.667 34.9558 7.15322 30.6296 8.84191 24.5932L9.06869 23.781L9.87588 23.9837C11.8516 24.4918 14.0271 24.8427 16.3423 25.0402L16.7434 25.0805L16.9702 25.4119C18.2095 27.2374 19.5931 28.9576 21.1073 30.5555L21.6877 31.1585L21.1073 31.7615C17.8709 35.1455 14.7408 37 12.3115 37V36.9987ZM10.2769 25.8654C9.102 30.5217 9.4095 33.9746 11.1046 34.9688C12.7933 35.9435 15.9631 34.4412 19.3059 31.1442C18.0433 29.7533 16.8731 28.279 15.8029 26.7309C13.9439 26.5679 12.0977 26.2783 10.2769 25.8641V25.8654ZM20.5 26.9545C19.0919 26.9545 17.6505 26.8934 16.2027 26.7712L15.8017 26.7374L15.5685 26.3996C14.7507 25.2077 13.9825 23.9816 13.2661 22.7244C12.5481 21.4672 11.8826 20.1799 11.2712 18.8661L11.0982 18.4944L11.2712 18.1227C12.4961 15.4955 13.9334 12.9757 15.5685 10.5892L15.8017 10.2513L16.2027 10.2175C19.0625 9.97323 21.9375 9.97323 24.7973 10.2175L25.1983 10.2513L25.4315 10.5892C27.0687 12.9744 28.5061 15.4943 29.7288 18.1227L29.9018 18.4944L29.7288 18.8661C28.5086 21.4957 27.071 24.0159 25.4315 26.3996L25.1983 26.7374L24.7973 26.7712C23.368 26.8925 21.9343 26.9537 20.5 26.9545V26.9545ZM16.7498 25.0727C19.2726 25.2689 21.7274 25.2689 24.2566 25.0727C25.6672 22.9777 26.9208 20.7783 28.0068 18.4931C26.9253 16.2041 25.6693 14.0042 24.2502 11.9135C21.7538 11.7172 19.2462 11.7172 16.7498 11.9135C15.3297 14.0035 14.0736 16.2035 12.9932 18.4931C14.0796 20.7795 15.3354 22.979 16.7498 25.0727V25.0727Z" fill="#333333"/>
</svg>
