<svg width="24" height="24" viewBox="0 0 24 24" fill="none" xmlns="http://www.w3.org/2000/svg">
<path d="M10.44 0L8.05266e-10 18.083V23.28C-8.9671e-06 23.4697 0.0748863 23.6518 0.208402 23.7867C0.341918 23.9215 0.52326 23.9982 0.713 24H10.736L5.7 15.277L14.52 0H10.44ZM15.6 0L10.74 8.418L14.458 14.857H24V0.718C23.9995 0.527391 23.9234 0.344769 23.7884 0.210176C23.6534 0.0755816 23.4706 -7.35374e-07 23.28 0L15.6 0ZM10.2 9.353L8.136 12.928C8.02305 13.1238 7.9636 13.3459 7.9636 13.572C7.9636 13.7981 8.02305 14.0202 8.136 14.216C8.366 14.616 8.792 14.856 9.253 14.856H13.378L10.2 9.353ZM7.078 15.793L11.816 24H23.287C23.4764 23.9982 23.6574 23.9218 23.7909 23.7874C23.9244 23.653 23.9995 23.4714 24 23.282V15.792L7.078 15.793Z" fill="white"/>
</svg>
