<?xml version="1.0" standalone="no"?>
<!DOCTYPE svg PUBLIC "-//W3C//DTD SVG 20010904//EN"
 "http://www.w3.org/TR/2001/REC-SVG-20010904/DTD/svg10.dtd">
<svg version="1.0" xmlns="http://www.w3.org/2000/svg"
 width="202.921368pt" height="232.975780pt" viewBox="0 0 202.921368 232.975780"
 preserveAspectRatio="xMidYMid meet">
<metadata>
Created by Potrace Professional 1.1m
</metadata>
<g transform="translate(-36.960962,281.975780) rotate(-360.00) scale(0.095238,-0.095238)"
fill="#ffffff" stroke="none">
<path d="M1276 2876 c-160 -91 -184 -112 -184 -157 0 -32 41 -73 74 -73 10 0
60 24 110 53 50 28 93 52 95 52 3 0 5 -66 5 -146 0 -131 2 -148 21 -173 28
-35 82 -38 111 -5 17 18 21 43 25 171 l5 150 90 -51 c49 -28 99 -51 112 -51
58 0 89 91 46 131 -41 37 -310 184 -336 184 -15 0 -93 -38 -174 -85z"/>
<path d="M572 2466 c-81 -47 -155 -92 -165 -101 -16 -14 -18 -39 -18 -214 0
-184 1 -199 21 -219 28 -28 74 -27 103 3 20 22 23 36 23 132 0 58 3 107 7 107
3 0 59 -31 124 -69 65 -37 130 -68 145 -68 52 0 84 56 63 110 -3 9 -63 50
-132 91 l-127 75 56 33 c97 57 120 74 133 100 23 47 -17 106 -74 106 -7 0 -78
-39 -159 -86z"/>
<path d="M2117 2530 c-20 -16 -27 -32 -27 -57 0 -40 21 -60 128 -120 33 -19
59 -38 56 -42 -3 -4 -59 -39 -125 -78 -66 -39 -123 -78 -127 -87 -21 -54 13
-109 67 -109 18 0 75 26 146 68 64 38 118 69 122 69 3 0 6 -48 6 -106 0 -98 1
-107 25 -131 31 -31 68 -33 102 -6 24 20 25 25 28 202 2 103 -1 195 -7 210 -6
15 -28 37 -51 48 -22 12 -94 53 -160 91 -66 38 -128 70 -138 70 -9 0 -30 -10
-45 -22z"/>
<path d="M1113 1953 c-26 -26 -27 -78 -2 -102 10 -10 74 -49 141 -87 l123 -68
0 -156 c0 -150 1 -156 26 -181 31 -31 68 -33 102 -5 24 19 25 26 28 181 l3
161 118 67 c149 86 154 90 154 139 0 44 -28 72 -72 72 -14 0 -83 -33 -154 -74
l-129 -74 -130 74 c-137 78 -174 87 -208 53z"/>
<path d="M411 1543 c-22 -20 -22 -29 -22 -219 -1 -233 -18 -202 184 -320 147
-85 186 -96 220 -59 18 20 24 72 10 94 -3 6 -47 35 -97 65 -51 29 -93 54 -95
56 -1 1 55 37 124 78 76 46 132 86 138 101 18 38 3 77 -37 96 -40 19 -48 15
-207 -80 l-88 -53 -3 110 c-3 104 -5 111 -31 131 -34 27 -66 27 -96 0z"/>
<path d="M2393 1544 c-23 -18 -26 -30 -30 -130 l-6 -111 -128 74 c-113 65
-132 73 -157 64 -41 -13 -64 -55 -50 -94 8 -22 40 -48 139 -107 l129 -77 -82
-47 c-95 -55 -118 -78 -118 -119 0 -33 41 -73 75 -73 11 0 91 41 177 91 114
67 159 99 168 120 7 18 10 92 8 209 -3 175 -4 181 -28 200 -32 26 -66 26 -97
0z"/>
<path d="M1397 1043 c-19 -25 -21 -42 -21 -173 0 -80 -3 -145 -6 -145 -3 0
-47 23 -98 52 -50 29 -100 53 -110 53 -10 0 -30 -12 -44 -26 -31 -31 -34 -79
-8 -103 43 -39 314 -186 342 -187 29 0 330 168 346 193 4 7 8 27 8 46 0 35
-39 77 -72 76 -10 0 -57 -23 -106 -52 l-90 -52 -5 153 c-5 145 -7 154 -30 173
-36 29 -79 26 -106 -8z"/>
</g>
</svg>
