<svg width="18" height="18" viewBox="0 0 18 18" fill="none" xmlns="http://www.w3.org/2000/svg">
<path fill-rule="evenodd" clip-rule="evenodd" d="M6.00005 9H3.73205C3.51192 9.38128 3.17212 9.67928 2.76537 9.84776C2.35861 10.0162 1.90763 10.0458 1.48236 9.93185C1.0571 9.8179 0.681312 9.56681 0.413293 9.21752C0.145275 8.86823 0 8.44027 0 8C0 7.55973 0.145275 7.13177 0.413293 6.78248C0.681312 6.43319 1.0571 6.1821 1.48236 6.06815C1.90763 5.9542 2.35861 5.98376 2.76537 6.15224C3.17212 6.32072 3.51192 6.61872 3.73205 7H6.00005V2C6.00005 1.46957 6.21076 0.960859 6.58584 0.585786C6.96091 0.210714 7.46962 0 8.00005 0H16.0001C16.5305 0 17.0392 0.210714 17.4143 0.585786C17.7893 0.960859 18.0001 1.46957 18.0001 2V16C18.0001 16.5304 17.7893 17.0391 17.4143 17.4142C17.0392 17.7893 16.5305 18 16.0001 18H8.00005C7.46962 18 6.96091 17.7893 6.58584 17.4142C6.21076 17.0391 6.00005 16.5304 6.00005 16V9ZM8.00005 9V16H16.0001V2H8.00005V7H10.2681C10.4882 6.61872 10.828 6.32072 11.2347 6.15224C11.6415 5.98376 12.0925 5.9542 12.5177 6.06815C12.943 6.1821 13.3188 6.43319 13.5868 6.78248C13.8548 7.13177 14.0001 7.55973 14.0001 8C14.0001 8.44027 13.8548 8.86823 13.5868 9.21752C13.3188 9.56681 12.943 9.8179 12.5177 9.93185C12.0925 10.0458 11.6415 10.0162 11.2347 9.84776C10.828 9.67928 10.4882 9.38128 10.2681 9H8.00005Z" fill="#333333"/>
</svg>
