<svg width="16" height="16" viewBox="0 0 16 16" fill="none" xmlns="http://www.w3.org/2000/svg">
<path d="M15.6969 7.28686L8.71086 0.30186C8.61521 0.206162 8.50164 0.130247 8.37664 0.0784528C8.25164 0.0266586 8.11766 0 7.98236 0C7.84706 0 7.71308 0.0266586 7.58808 0.0784528C7.46308 0.130247 7.34951 0.206162 7.25386 0.30186L5.80386 1.75186L7.64386 3.59186C7.86086 3.51777 8.09433 3.50618 8.3176 3.55841C8.54088 3.61064 8.74497 3.72459 8.90659 3.88725C9.06821 4.04992 9.18085 4.25474 9.23164 4.47835C9.28244 4.70195 9.26934 4.93534 9.19386 5.15186L10.9669 6.92586C11.2292 6.8335 11.5151 6.83322 11.7776 6.92507C12.0401 7.01691 12.2635 7.19541 12.411 7.43116C12.5585 7.66691 12.6213 7.94587 12.5891 8.2221C12.5569 8.49832 12.4316 8.75535 12.2339 8.95086C12.0336 9.1523 11.7697 9.27799 11.4871 9.30644C11.2045 9.33489 10.9208 9.26434 10.6845 9.10685C10.4481 8.94936 10.2738 8.7147 10.1912 8.44294C10.1087 8.17119 10.123 7.8792 10.2319 7.61686L8.57886 5.96286V10.3159C8.83012 10.4402 9.03116 10.647 9.14848 10.9016C9.26579 11.1562 9.29229 11.4434 9.22357 11.7152C9.15484 11.987 8.99503 12.227 8.77079 12.3953C8.54654 12.5635 8.27139 12.6498 7.99122 12.6398C7.71104 12.6298 7.44276 12.5241 7.23108 12.3403C7.01941 12.1564 6.87714 11.9056 6.82797 11.6296C6.77881 11.3536 6.82573 11.0691 6.96091 10.8235C7.09609 10.5779 7.31137 10.386 7.57086 10.2799V5.88686C7.42115 5.82551 7.28506 5.73514 7.17044 5.62095C7.05582 5.50677 6.96493 5.37102 6.90302 5.22154C6.84111 5.07206 6.8094 4.91181 6.80972 4.75002C6.81003 4.58823 6.84237 4.4281 6.90486 4.27886L5.09186 2.46486L0.30186 7.25486C0.206162 7.35051 0.130247 7.46408 0.0784528 7.58908C0.0266586 7.71408 0 7.84806 0 7.98336C0 8.11866 0.0266586 8.25264 0.0784528 8.37764C0.130247 8.50264 0.206162 8.61621 0.30186 8.71186L7.28786 15.6979C7.38351 15.7936 7.49708 15.8695 7.62208 15.9213C7.74708 15.9731 7.88106 15.9997 8.01636 15.9997C8.15166 15.9997 8.28564 15.9731 8.41064 15.9213C8.53564 15.8695 8.64921 15.7936 8.74486 15.6979L15.6979 8.74486C15.8909 8.55155 15.9993 8.28954 15.9993 8.01636C15.9993 7.74318 15.8909 7.48117 15.6979 7.28786" fill="white"/>
</svg>
