<svg width="22" height="17" viewBox="0 0 22 17" fill="none" xmlns="http://www.w3.org/2000/svg">
<path d="M20.334 0.5H1.66732C1.3137 0.5 0.974557 0.640476 0.724509 0.890524C0.47446 1.14057 0.333984 1.47971 0.333984 1.83333V15.1667C0.333984 15.5203 0.47446 15.8594 0.724509 16.1095C0.974557 16.3595 1.3137 16.5 1.66732 16.5H20.334C20.6876 16.5 21.0267 16.3595 21.2768 16.1095C21.5268 15.8594 21.6673 15.5203 21.6673 15.1667V1.83333C21.6673 1.47971 21.5268 1.14057 21.2768 0.890524C21.0267 0.640476 20.6876 0.5 20.334 0.5V0.5ZM19.3073 15.1667H2.77398L7.44065 10.34L6.48065 9.41333L1.66732 14.3933V2.84667L9.95398 11.0933C10.2038 11.3417 10.5417 11.4811 10.894 11.4811C11.2462 11.4811 11.5842 11.3417 11.834 11.0933L20.334 2.64V14.3067L15.4273 9.4L14.4873 10.34L19.3073 15.1667ZM2.54065 1.83333H19.254L10.894 10.1467L2.54065 1.83333Z" fill="white"/>
</svg>
