<svg width="19" height="19" viewBox="0 0 19 19" fill="none" xmlns="http://www.w3.org/2000/svg">
<path d="M17.97 4.53244C18.0627 4.43993 18.1363 4.33004 18.1864 4.20907C18.2366 4.08809 18.2624 3.95841 18.2624 3.82744C18.2624 3.69648 18.2366 3.56679 18.1864 3.44582C18.1363 3.32485 18.0627 3.21496 17.97 3.12244L15.14 0.292444C15.0475 0.19974 14.9376 0.126193 14.8166 0.0760114C14.6957 0.02583 14.566 0 14.435 0C14.304 0 14.1743 0.02583 14.0534 0.0760114C13.9324 0.126193 13.8225 0.19974 13.73 0.292444L9.24 4.78244L5.35 0.892444C4.57 0.112444 3.3 0.112444 2.52 0.892444L0.62 2.79244C-0.16 3.57244 -0.16 4.84244 0.62 5.62244L4.51 9.51244L0 14.0224V18.2624H4.24L8.76 13.7424L12.65 17.6324C13.6 18.5824 14.88 18.2324 15.48 17.6324L17.38 15.7324C18.16 14.9524 18.16 13.6824 17.38 12.9024L13.49 9.01244L17.97 4.53244V4.53244ZM2.04 4.20244L3.93 2.30244L5.2 3.57244L4.02 4.76244L5.43 6.17244L6.62 4.98244L7.82 6.18244L5.92 8.08244L2.04 4.20244V4.20244ZM13.27 11.6424L12.08 12.8324L13.49 14.2424L14.68 13.0524L15.95 14.3224L14.05 16.2224L10.16 12.3324L12.06 10.4324L13.27 11.6424V11.6424ZM3.41 16.2624H2V14.8524L11.61 5.24244L12.91 6.54244L13.02 6.65244L3.41 16.2624ZM13.02 3.82244L14.43 2.41244L15.84 3.82244L14.43 5.23244L13.02 3.82244Z" fill="white"/>
</svg>
