<svg width="37" height="34" viewBox="0 0 37 34" fill="none" xmlns="http://www.w3.org/2000/svg">
<path d="M36.9317 18.7513L31.9349 1.68458V1.67998C31.5862 0.625965 30.7557 0 29.7187 0C28.645 0 27.7686 0.621362 27.4383 1.62014L24.1621 11.4239H12.8379L9.56178 1.62014C9.23141 0.621362 8.35502 0 7.28133 0C6.22141 0 5.33125 0.681196 5.06054 1.68458L0.068331 18.7513C-0.13356 19.4279 0.123392 20.1966 0.687768 20.6246L17.5961 33.3464C17.7154 33.5121 17.8806 33.6364 18.0733 33.7054L18.4679 34L18.8579 33.7054C19.0828 33.6272 19.2709 33.4891 19.4039 33.2958L36.3077 20.62C36.8767 20.1966 37.1336 19.4279 36.9317 18.7513ZM29.4893 2.2369C29.5352 2.15405 29.6224 2.14945 29.6499 2.14945C29.7004 2.14945 29.7646 2.16326 29.8059 2.28753L32.5314 11.4837H26.4059L29.4893 2.2369ZM7.12532 2.28293C7.16662 2.16326 7.23086 2.14945 7.28133 2.14945C7.40522 2.14945 7.4144 2.15405 7.43734 2.2277L10.5253 11.4883H4.47322L7.12532 2.28293V2.28293ZM2.28454 19.0505L3.57847 14.5721L12.8654 27.0085L2.28454 19.0505V19.0505ZM5.67538 13.693H11.2778L15.4441 26.7784L5.67538 13.693V13.693ZM18.5321 29.0521L13.6134 13.693H23.4463L18.5321 29.0521ZM25.7773 13.693H31.2604L21.611 26.6173L25.7773 13.693ZM23.9098 27.2203L33.4216 14.4846L34.7752 19.0505L23.9098 27.2203Z" fill="white"/>
</svg>
