<svg width="48" height="48" viewBox="0 0 48 48" fill="none" xmlns="http://www.w3.org/2000/svg">
<path fill-rule="evenodd" clip-rule="evenodd" d="M24 0.591797C10.74 0.591797 0 11.3318 0 24.5918C0 35.2118 6.87 44.1818 16.41 47.3618C17.61 47.5718 18.06 46.8518 18.06 46.2218C18.06 45.6518 18.03 43.7618 18.03 41.7518C12 42.8618 10.44 40.2818 9.96 38.9318C9.69 38.2418 8.52 36.1118 7.5 35.5418C6.66 35.0918 5.46 33.9818 7.47 33.9518C9.36 33.9218 10.71 35.6918 11.16 36.4118C13.32 40.0418 16.77 39.0218 18.15 38.3918C18.36 36.8318 18.99 35.7818 19.68 35.1818C14.34 34.5818 8.76 32.5118 8.76 23.3318C8.76 20.7218 9.69 18.5618 11.22 16.8818C10.98 16.2818 10.14 13.8218 11.46 10.5218C11.46 10.5218 13.47 9.8918 18.06 12.9818C19.98 12.4418 22.02 12.1718 24.06 12.1718C26.1 12.1718 28.14 12.4418 30.06 12.9818C34.65 9.8618 36.66 10.5218 36.66 10.5218C37.98 13.8218 37.14 16.2818 36.9 16.8818C38.43 18.5618 39.36 20.6918 39.36 23.3318C39.36 32.5418 33.75 34.5818 28.41 35.1818C29.28 35.9318 30.03 37.3718 30.03 39.6218C30.03 42.8318 30 45.4118 30 46.2218C30 46.8518 30.45 47.6018 31.65 47.3618C36.4144 45.7532 40.5544 42.6912 43.4873 38.6065C46.4203 34.5219 47.9986 29.6204 48 24.5918C48 11.3318 37.26 0.591797 24 0.591797Z" fill="#333"/>
</svg>
