<svg width="54" height="40" viewBox="0 0 54 40" fill="none" xmlns="http://www.w3.org/2000/svg">
<path d="M25.151 30.2405C25.101 30.3305 25.126 30.2905 25.151 30.2405ZM45.9101 22.9911C44.2342 22.9906 42.5806 23.3755 41.0772 24.116C40.5856 23.1244 40.0773 22.2578 39.9939 21.6079C39.894 20.8496 39.7856 20.3997 39.9023 19.4997C40.0189 18.5998 40.5439 17.3249 40.5356 17.2332C40.5272 17.1416 40.4189 16.6833 39.344 16.675C38.2691 16.6666 37.3442 16.8833 37.2367 17.1666C37.0468 17.6843 36.8991 18.2166 36.795 18.7581C36.6034 19.733 34.646 23.2161 33.5378 25.0326C33.1712 24.3243 32.8629 23.6994 32.7962 23.1994C32.6962 22.4412 32.5879 21.9912 32.7045 21.0913C32.8212 20.1913 33.3462 18.9164 33.3378 18.8248C33.3295 18.7331 33.2212 18.2748 32.1471 18.2665C31.073 18.2582 30.1472 18.4748 30.0389 18.7581C29.9306 19.0414 29.8139 19.708 29.5973 20.3497C29.3806 20.9913 26.7734 26.7908 26.0909 28.299C25.7409 29.0656 25.441 29.6822 25.2243 30.0989C25.191 30.1655 25.166 30.2072 25.1493 30.2405C25.1743 30.1989 25.191 30.1572 25.191 30.1739C25.0077 30.5322 24.8993 30.7321 24.8993 30.7321V30.7405C24.7577 31.0071 24.5994 31.2488 24.5244 31.2488C24.4744 31.2488 24.366 30.5488 24.5494 29.5906C24.941 27.5741 25.8659 24.441 25.8576 24.3327C25.8493 24.2743 26.0326 23.7327 25.2493 23.4411C24.491 23.1661 24.2161 23.6244 24.1494 23.6244C24.0827 23.6244 24.0327 23.791 24.0327 23.791C24.0327 23.791 24.8743 20.258 22.417 20.258C20.8838 20.258 18.7507 21.9412 17.7024 23.4661C17.0441 23.8244 15.6193 24.5993 14.1194 25.4242C13.5444 25.7409 12.9528 26.0659 12.3945 26.3742C12.3529 26.3325 12.3195 26.2908 12.2779 26.2492C9.29561 23.0661 3.78939 20.8163 4.02271 16.5416C4.10603 14.9834 4.64766 10.8921 14.611 5.92583C22.777 1.8595 29.3056 2.97607 30.4297 5.4592C32.0463 9.00058 26.9392 15.5917 18.459 16.5416C15.2268 16.8999 13.5278 15.65 13.1028 15.1834C12.6612 14.6918 12.5945 14.6668 12.4279 14.7584C12.1529 14.9084 12.3279 15.3417 12.4279 15.6C12.6778 16.2583 13.7194 17.4249 15.4934 18.0082C17.0516 18.5165 20.8413 18.7998 25.4235 17.0249C30.5714 15.0418 34.5786 9.5172 33.4036 4.89258C32.2071 0.192964 24.4144 -1.34858 17.0458 1.26788C12.6553 2.82608 7.90739 5.27588 4.49184 8.46729C0.434668 12.267 -0.214446 15.575 0.0521988 16.9583C1.00129 21.8662 7.76574 25.0659 10.473 27.4324C10.3397 27.5074 10.2147 27.5741 10.098 27.6407C8.74066 28.3157 3.58358 31.0155 2.29285 33.8652C0.834635 37.0983 2.5345 39.4148 3.65024 39.7314C7.13246 40.698 10.698 38.9565 12.6137 36.0984C14.5294 33.2403 14.2969 29.5072 13.4136 27.8074C13.4053 27.7824 13.3886 27.7657 13.3803 27.7407C13.7303 27.5324 14.0886 27.3241 14.4469 27.1158C15.1376 26.7075 15.8126 26.3325 16.4042 26.0075C16.0709 26.9075 15.8292 27.9907 15.7043 29.5572C15.5543 31.3904 16.3125 33.7652 17.2958 34.6985C17.7291 35.1068 18.2532 35.1151 18.5782 35.1151C19.7281 35.1151 20.2447 34.1652 20.8188 33.032C21.5271 31.6487 22.1521 30.0405 22.1521 30.0405C22.1521 30.0405 21.3688 34.3902 23.5103 34.3902C24.2927 34.3902 25.076 33.3819 25.4268 32.8653V32.8736C25.4268 32.8736 25.4435 32.8403 25.4851 32.7736C25.5685 32.6487 25.6101 32.5737 25.6101 32.5737V32.5487C25.9268 32.007 26.6184 30.7655 27.6591 28.7156C29.009 26.0659 30.2997 22.7578 30.2997 22.7578C30.4245 23.485 30.597 24.2032 30.8164 24.9076C31.0497 25.6992 31.5413 26.5658 31.9329 27.4074C31.6163 27.8407 31.4246 28.0907 31.4246 28.0907C31.4252 28.0971 31.4282 28.103 31.433 28.1074C31.183 28.4407 30.8997 28.799 30.608 29.1489C29.5423 30.4155 28.2749 31.8654 28.1082 32.282C27.9083 32.7736 27.9583 33.1403 28.3416 33.4236C28.6249 33.6402 29.1248 33.6736 29.649 33.6319C30.6072 33.5652 31.2822 33.3319 31.6071 33.1819C32.2062 32.9671 32.7725 32.6698 33.2895 32.2987C34.3311 31.5321 34.9644 30.4322 34.906 28.9823C34.8727 28.1823 34.6144 27.3824 34.2977 26.6325C34.3894 26.4992 34.4894 26.3575 34.5811 26.2158C36.2301 23.8077 37.505 21.1646 37.505 21.1646C37.6297 21.8918 37.8023 22.6099 38.0216 23.3144C38.2216 23.9894 38.6124 24.731 38.9707 25.4559C37.4217 26.7141 36.4634 28.1724 36.1301 29.1306C35.5135 30.9055 35.9968 31.7054 36.905 31.8887C37.3133 31.972 37.8966 31.7804 38.3299 31.5971C38.9734 31.3827 39.5802 31.0708 40.1289 30.6721C41.1705 29.9055 42.1779 28.8306 42.1113 27.3724C42.0863 26.7141 41.903 26.0559 41.6613 25.4226C42.9695 24.8726 44.6686 24.5726 46.8351 24.8226C51.4747 25.3642 52.3829 28.264 52.2079 29.4722C52.033 30.6805 51.058 31.3554 50.7331 31.5554C50.4081 31.7554 50.3081 31.8304 50.3331 31.9804C50.3748 32.197 50.5248 32.1887 50.7997 32.1387C51.183 32.072 53.232 31.1554 53.3237 28.914C53.457 26.0809 50.7331 22.9644 45.9076 22.9894L45.9101 22.9911ZM10.148 35.0485C8.61567 36.7233 6.46584 37.3566 5.54175 36.8233C4.55017 36.2467 4.9418 33.7819 6.83248 31.997C7.98239 30.9138 9.46476 29.9139 10.448 29.2973C10.673 29.1639 10.998 28.964 11.3979 28.7223C11.4646 28.6806 11.4979 28.664 11.4979 28.664C11.5729 28.614 11.6563 28.5723 11.7396 28.5223C12.4304 31.0554 11.7646 33.2886 10.148 35.0468V35.0485ZM21.3438 27.4324C20.8105 28.7406 19.6864 32.0737 19.0032 31.8987C18.4199 31.7487 18.0616 29.2073 18.8865 26.7075C19.3031 25.4492 20.1864 23.9494 20.7113 23.3661C21.5521 22.4245 22.477 22.1245 22.6937 22.4995C22.9853 22.9911 21.6771 26.6158 21.3438 27.4324ZM30.593 31.8487C30.3681 31.9654 30.1597 32.0404 30.0598 31.982C29.9848 31.9404 30.1514 31.7821 30.1514 31.7821C30.1514 31.7821 31.3097 30.5405 31.7679 29.9739C32.0346 29.6406 32.3429 29.2489 32.6754 28.8156C32.6754 28.8573 32.6837 28.899 32.6837 28.949C32.6729 30.4405 31.2405 31.4487 30.5905 31.8487H30.593ZM37.7241 30.2238C37.5575 30.1072 37.5825 29.7156 38.1408 28.499C38.3574 28.024 38.8565 27.2241 39.724 26.4575C39.8222 26.7477 39.8755 27.0511 39.8823 27.3574C39.874 29.2323 38.5324 29.9322 37.725 30.2238H37.7241Z" fill="#282A33"/>
</svg>
