<svg width="20" height="20" viewBox="0 0 20 20" fill="none" xmlns="http://www.w3.org/2000/svg">
<path d="M10 15L11 13V7.858C12.721 7.411 14 5.858 14 4C14 1.794 12.206 0 10 0C7.794 0 6 1.794 6 4C6 5.858 7.279 7.411 9 7.858V13L10 15ZM8 4C8 2.897 8.897 2 10 2C11.103 2 12 2.897 12 4C12 5.103 11.103 6 10 6C8.897 6 8 5.103 8 4Z" fill="white"/>
<path d="M14.267 8.5635L13.734 10.4915C16.325 11.2075 18 12.5845 18 14.0005C18 15.8925 14.715 18.0005 10 18.0005C5.285 18.0005 2 15.8925 2 14.0005C2 12.5845 3.675 11.2075 6.267 10.4905L5.734 8.5625C2.197 9.5405 0 11.6235 0 14.0005C0 17.3645 4.393 20.0005 10 20.0005C15.607 20.0005 20 17.3645 20 14.0005C20 11.6235 17.803 9.5405 14.267 8.5635V8.5635Z" fill="white"/>
</svg>
