<svg width="38" height="37" viewBox="0 0 38 37" fill="none" xmlns="http://www.w3.org/2000/svg">
<path d="M0.664062 18.5V37H37.6641V0H0.664062V18.5ZM30.4791 17.0246C31.3661 17.2335 32.1723 17.6982 32.7974 18.3613C33.135 18.722 33.6403 19.3845 33.6831 19.5476C33.6947 19.5961 32.0875 20.6737 31.1116 21.2762C31.0758 21.3004 30.9312 21.1501 30.774 20.9142C30.2988 20.2217 29.7981 19.921 29.0338 19.8667C27.9134 19.7938 27.1908 20.3789 27.1965 21.3606C27.1907 21.6008 27.2443 21.8387 27.3526 22.0532C27.6001 22.5654 28.0637 22.8718 29.4963 23.4927C32.1464 24.6304 33.2784 25.3832 33.9826 26.4492C34.7711 27.6413 34.9457 29.5445 34.4162 30.9655C33.8265 32.501 32.3684 33.5486 30.3207 33.892C29.6883 34.0065 28.1828 33.988 27.5018 33.8619C26.0148 33.5972 24.6054 32.8618 23.7382 31.8986C23.3948 31.5252 22.7322 30.5435 22.775 30.4776C22.7935 30.4533 22.9438 30.3573 23.1127 30.2602L24.4863 29.4647L25.5523 28.845L25.7755 29.1757C26.0888 29.6509 26.7687 30.3018 27.1792 30.5181C28.3597 31.1447 29.9796 31.0546 30.7809 30.3377C31.1058 30.0671 31.2873 29.6509 31.2631 29.23C31.2631 28.8022 31.2087 28.6102 30.9856 28.29C30.6965 27.8807 30.1126 27.5315 28.4441 26.8088C26.5352 25.9833 25.7096 25.478 24.9638 24.6651C24.4943 24.1301 24.1471 23.4992 23.9463 22.8163C23.8076 22.2925 23.7717 20.979 23.8804 20.4552C24.2724 18.6064 25.6691 17.3241 27.6741 16.9448C28.325 16.8188 29.842 16.8662 30.4803 17.0235L30.4791 17.0246ZM21.7957 18.5728L21.8072 20.0841H16.9892V33.7729H13.5805V20.0841H8.76938V18.6029C8.76938 17.7773 8.78788 17.0917 8.811 17.0732C8.8295 17.0489 11.756 17.0373 15.3091 17.0431L21.7772 17.0616L21.7957 18.5728Z" fill="#333333"/>
</svg>
