<svg width="36" height="36" viewBox="0 0 36 36" fill="none" xmlns="http://www.w3.org/2000/svg">
<path d="M3.49969 23.7695C2.56689 25.0368 2.1328 26.6029 2.28012 28.1695C2.42743 29.7361 3.14585 31.1938 4.29854 32.265C5.45122 33.3361 6.95764 33.9459 8.53085 33.9781C10.1041 34.0102 11.6342 33.4626 12.8297 32.4395C10.6008 32.056 8.53175 31.0319 6.875 29.4924C5.21825 27.9528 4.04544 25.9643 3.49969 23.7695V23.7695Z" fill="white"/>
<path d="M7.67975 14.5293C6.04077 16.3423 5.155 18.7122 5.20303 21.1558C5.25106 23.5993 6.22927 25.9326 7.93822 27.6798C9.64718 29.427 11.9582 30.4566 14.4001 30.5587C16.842 30.6608 19.2309 29.8277 21.0798 28.2293C17.5317 28.0519 14.1812 26.5427 11.6972 24.0031C9.21319 21.4635 7.77855 18.0804 7.67975 14.5293V14.5293Z" fill="white"/>
<path d="M21.7802 2C24.176 2.00001 26.5181 2.71008 28.5106 4.04052C30.503 5.37096 32.0565 7.26208 32.9747 9.47497C33.8929 11.6879 34.1347 14.1233 33.6695 16.4735C33.2042 18.8237 32.0529 20.9833 30.3609 22.6795C28.6689 24.3757 26.5121 25.5324 24.163 26.0034C21.814 26.4745 19.378 26.2387 17.1628 25.326C14.9477 24.4133 13.0527 22.8645 11.7174 20.8753C10.382 18.8861 9.66612 16.5458 9.66019 14.15C9.65625 12.5559 9.96683 10.9766 10.5741 9.50266C11.1815 8.02873 12.0736 6.68909 13.1994 5.56047C14.3253 4.43184 15.6627 3.5364 17.1351 2.92544C18.6076 2.31448 20.186 2 21.7802 2" fill="white"/>
</svg>
