<svg width="37" height="37" viewBox="0 0 37 37" fill="none" xmlns="http://www.w3.org/2000/svg">
<path fill-rule="evenodd" clip-rule="evenodd" d="M0 0H37V37H0V0ZM28.285 31.0183C26.5691 31.0183 25.5994 30.1242 24.8547 28.9062L22.0289 30.5481C23.0495 32.5646 25.1353 34.1032 28.3651 34.1032C31.6674 34.1032 34.1263 32.3889 34.1263 29.2578C34.1263 26.3548 32.4582 25.0644 29.5044 23.7956L28.6349 23.4241C27.1426 22.7766 26.4966 22.3557 26.4966 21.312C26.4966 20.4687 27.1441 19.8227 28.1616 19.8227C29.1591 19.8227 29.802 20.2436 30.3986 21.312L33.1058 19.5745C31.9603 17.5596 30.3724 16.7903 28.1616 16.7903C25.0567 16.7903 23.0695 18.776 23.0695 21.3845C23.0695 24.2134 24.7345 25.5531 27.2443 26.6215L28.1138 26.9946C29.7002 27.6883 30.6452 28.1107 30.6452 29.3025C30.6452 30.2984 29.7249 31.0183 28.285 31.0183V31.0183ZM14.8108 30.9952C13.616 30.9952 13.118 30.1781 12.5723 29.2069L9.74179 30.9212C10.562 32.6571 12.1745 34.097 14.9572 34.097C18.039 34.097 20.1496 32.4582 20.1496 28.8585V16.9876H16.6731V28.8122C16.6731 30.5497 15.9516 30.9952 14.8092 30.9952H14.8108Z" fill="#333333"/>
</svg>
