<svg width="24" height="24" viewBox="0 0 24 24" fill="none" xmlns="http://www.w3.org/2000/svg">
<g clip-path="url(#clip0_2414_2395)">
<path d="M13.3013 5.601C12.6733 4.073 12.7613 2.354 13.6683 0.971L14.3463 0C13.0923 2.35 14.2863 5.236 16.2063 6.749C16.7201 7.15111 17.2928 7.47154 17.9043 7.699C18.0683 7.759 18.2543 7.823 18.4243 7.866C20.5703 8.406 22.3193 8.033 23.3603 6.477C23.3283 6.525 23.2873 6.601 23.2353 6.697C22.7713 7.557 21.4133 10.074 17.4753 9.284C17.4003 9.269 17.3283 9.244 17.2563 9.221L17.1923 9.199L17.1463 9.184C17.1251 9.17666 17.1037 9.16966 17.0823 9.163C17.024 9.14293 16.966 9.12192 16.9083 9.1C15.3233 8.496 13.9643 7.224 13.3013 5.601V5.601Z" fill="white"/>
<path d="M8.12079 2.96695C6.58379 5.26195 6.66779 8.33495 7.86679 10.763C8.08848 11.2148 8.34317 11.6496 8.62879 12.064C8.83779 12.377 9.06779 12.724 9.33679 12.966C9.44779 13.093 9.56379 13.216 9.68179 13.337L9.74979 13.407L9.77279 13.43C9.89217 13.5506 10.0145 13.6684 10.1398 13.783L10.1408 13.784L10.1428 13.786C10.2939 13.9227 10.449 14.0551 10.6078 14.183L10.6478 14.215C10.7878 14.327 10.9308 14.437 11.0778 14.542L11.0838 14.546L11.0908 14.551C11.1378 14.585 11.1858 14.618 11.2338 14.65L11.2868 14.686C11.3182 14.7067 11.3492 14.7281 11.3798 14.75C11.4848 14.82 11.5908 14.887 11.6988 14.953L11.7288 14.97L11.7438 14.98C11.8596 15.049 11.9766 15.116 12.0948 15.181L12.1258 15.197L12.1658 15.219C12.2178 15.247 12.2698 15.276 12.3238 15.303L12.3538 15.318C12.5085 15.3967 12.6652 15.4714 12.8238 15.542L12.8558 15.555C13.0046 15.6205 13.155 15.6825 13.3068 15.741L13.3368 15.752C13.4398 15.792 13.5428 15.828 13.6468 15.864L13.6988 15.882L13.7868 15.911C13.8258 15.923 13.8648 15.937 13.9028 15.95C14.0118 15.988 14.1208 16.025 14.2348 16.045C22.1688 17.409 24.0008 11.069 24.0008 11.069C22.3498 13.537 19.1518 14.715 15.7398 13.795C15.5887 13.7537 15.4387 13.7086 15.2898 13.66C15.2495 13.6475 15.2095 13.6342 15.1698 13.62L15.1548 13.615C15.0494 13.5796 14.9447 13.5423 14.8408 13.503L14.8378 13.501C14.6652 13.4357 14.4945 13.3656 14.3258 13.291L14.2698 13.266C14.0732 13.1771 13.8797 13.0813 13.6898 12.979L13.6478 12.957L13.5278 12.893C13.4182 12.8317 13.3099 12.7684 13.2028 12.703C12.9913 12.5738 12.7845 12.437 12.5828 12.293C12.4371 12.1878 12.2941 12.0791 12.1538 11.967L12.1188 11.938C12.0984 11.9214 12.078 11.9047 12.0578 11.888C10.5638 10.664 9.37979 8.99095 8.81779 7.09495C8.22779 5.12695 8.35479 2.91895 9.37679 1.12695L8.12079 2.96695Z" fill="white"/>
<path d="M1.52364 5.63713C-0.600357 8.80713 -0.336357 12.9321 1.28664 16.3001C1.31664 16.3651 1.34964 16.4291 1.38164 16.4921L1.40564 16.5401L1.43564 16.5991C1.4608 16.6516 1.48747 16.7032 1.51564 16.7541L1.52864 16.7791L1.59864 16.9091L1.61364 16.9361C1.66364 17.0281 1.71564 17.1201 1.76864 17.2121L1.78564 17.2421C1.86578 17.3819 1.94947 17.5196 2.03664 17.6551L2.05464 17.6851L2.11364 17.7781C2.19764 17.9081 2.28364 18.0391 2.37364 18.1681V18.1691C2.37577 18.1723 2.37811 18.1753 2.38064 18.1781L2.40464 18.2111L2.42464 18.2391C2.50264 18.3491 2.58164 18.4591 2.66264 18.5671L2.75264 18.6851C2.94866 18.9391 3.15139 19.1879 3.36064 19.4311L3.36664 19.4381L3.37164 19.4431L3.37864 19.4511C3.5908 19.6901 3.81023 19.9226 4.03664 20.1481L4.06664 20.1781L4.13764 20.2481C4.25097 20.3589 4.36632 20.4676 4.48364 20.5741L4.51664 20.6041L4.54264 20.6261C4.6678 20.7379 4.79447 20.8479 4.92264 20.9561L4.97864 21.0031C5.06364 21.0731 5.14964 21.1431 5.23664 21.2111L5.37364 21.3201C5.46964 21.3931 5.56564 21.4651 5.66264 21.5351L5.67864 21.5471L5.76864 21.6131L5.79664 21.6331C5.88464 21.6971 5.97364 21.7571 6.06364 21.8171L6.07764 21.8271C6.118 21.8543 6.158 21.8819 6.19764 21.9101C6.36458 22.0197 6.53361 22.1261 6.70464 22.2291L6.75864 22.2611C6.91006 22.3506 7.06308 22.4372 7.21764 22.5211L7.27064 22.5501L7.32964 22.5821C7.38864 22.6141 7.44664 22.6461 7.50664 22.6771L7.53164 22.6891L7.56164 22.7041L7.59564 22.7211C7.61564 22.7311 7.63664 22.7411 7.65764 22.7531C7.78164 22.8141 7.90564 22.8741 8.03164 22.9331L8.07864 22.9541L8.11064 22.9691C8.42313 23.1114 8.74104 23.2415 9.06364 23.3591L9.07364 23.3621L9.11564 23.3781C9.34362 23.4601 9.5737 23.5361 9.80564 23.6061C9.92164 23.6451 10.0386 23.6831 10.1586 23.7061C20.4356 25.6521 23.4206 17.2961 23.4206 17.2961C20.9136 20.6861 16.4636 21.5811 12.2466 20.5851C12.088 20.5466 11.9311 20.5009 11.7766 20.4481L11.6586 20.4111C11.5066 20.3631 11.3556 20.3111 11.2056 20.2581L11.1436 20.2351C11.0086 20.1851 10.8766 20.1351 10.7436 20.0811L10.6316 20.0351C10.4868 19.9758 10.3432 19.9138 10.2006 19.8491L10.1546 19.8291C10.0191 19.7662 9.88447 19.7015 9.75064 19.6351L9.70964 19.6131C9.68824 19.6029 9.66691 19.5926 9.64564 19.5821L9.43164 19.4691L9.36364 19.4331C9.34139 19.421 9.31905 19.409 9.29664 19.3971L9.17664 19.3311C9.06264 19.2681 8.95064 19.2011 8.83864 19.1341L8.79564 19.1091L8.72564 19.0691C8.55156 18.9617 8.37953 18.851 8.20964 18.7371L8.16664 18.7071C7.73986 18.4226 7.33077 18.1123 6.94164 17.7781C6.82275 17.6776 6.7054 17.5752 6.58964 17.4711L6.57364 17.4561C6.42163 17.3163 6.27227 17.1736 6.12564 17.0281C6.04096 16.9445 5.95761 16.8595 5.87564 16.7731L5.84164 16.7391C5.71213 16.6038 5.58543 16.4657 5.46164 16.3251L5.45564 16.3191L5.45364 16.3161C5.34764 16.1961 5.24364 16.0721 5.14164 15.9481L5.05964 15.8471C4.95496 15.7173 4.85261 15.5856 4.75264 15.4521C4.66464 15.3321 4.57764 15.2141 4.49264 15.0931C2.15264 11.7791 1.31164 7.20712 3.18264 3.45312L1.52364 5.63713Z" fill="white"/>
</g>
<defs>
<clipPath id="clip0_2414_2395">
<rect width="24" height="24" fill="white"/>
</clipPath>
</defs>
</svg>
