<svg width="33" height="37" viewBox="0 0 33 37" fill="none" xmlns="http://www.w3.org/2000/svg">
<path d="M0 0L2.96852 33.2022L16.4978 37L29.973 33.2022L33 0H0ZM26.7616 7.87584L26.5457 9.97488L26.4693 10.8421H10.6642L11.033 15.0312H26.1049L25.9565 16.1119L25.003 26.8828L24.9265 27.6032L16.5157 29.898V29.9113H16.4618L16.4483 29.9157V29.9113H16.4438L7.96102 27.5988L7.44828 21.1683H11.5457L11.8381 24.4236L16.4438 25.6554H16.4618L21.0495 24.428L21.5622 19.1537H16.4483V19.1493H7.23238L6.2069 7.87584L6.13044 6.79519H26.8336L26.7616 7.87584V7.87584Z" fill="#333333"/>
</svg>
