<svg width="42" height="42" viewBox="0 0 42 42" fill="none" xmlns="http://www.w3.org/2000/svg">
<circle cx="21" cy="21" r="20" stroke="white" stroke-width="2"/>
<path d="M1.5 16C3.16667 17.3333 7.4 18.7 11 13.5C14.6 8.3 20.8333 2.83333 23.5 1" stroke="white" stroke-width="2"/>
<path d="M1 23C3.16667 25.5 9 29.2 13 22C18 13 17 9.5 26.5 2" stroke="white" stroke-width="2"/>
<path d="M4 31.5C6.5 36 16.4 37.6 20 28C24.5 16 20 11 30 3.5" stroke="white" stroke-width="2"/>
<path d="M12.5 39C19.1667 40.1667 32.6 39.4 33 27C33.4 14.6 34.8333 8.5 35.5 7" stroke="white" stroke-width="2"/>
</svg>
