<svg width="181" height="161" viewBox="0 0 181 161" fill="none" xmlns="http://www.w3.org/2000/svg">
<path d="M90.5 64.365C81.6027 64.365 74.3571 71.6088 74.3571 80.5038C74.3571 89.3989 81.6027 96.6427 90.5 96.6427C99.3973 96.6427 106.643 89.3989 106.643 80.5038C106.643 71.6088 99.3973 64.365 90.5 64.365ZM45.3066 112.578L41.7431 111.696C15.2266 104.978 0 93.6117 0 80.4756C0 67.3395 15.2323 55.9733 41.7431 49.2554L45.3066 48.3732L46.3077 51.9075C48.9977 61.1645 52.4367 70.1873 56.5908 78.8866L57.3544 80.4756L56.5908 82.0929C52.428 90.7884 48.9887 99.8119 46.3077 109.072L45.3066 112.578ZM40.0972 57.5001C19.9439 63.1549 7.57372 71.8407 7.57372 80.4756C7.57372 89.1105 19.9496 97.7623 40.0972 103.451C42.567 95.6058 45.5485 87.9308 49.0227 80.4756C45.5437 73.0224 42.562 65.3471 40.0972 57.5001V57.5001ZM135.693 112.578L134.692 109.044C132.007 99.7942 128.568 90.7804 124.409 82.0929L123.646 80.4756L124.409 78.8583C128.572 70.1628 132.011 61.1392 134.692 51.8792L135.693 48.3732L139.257 49.2554C165.773 55.9733 181 67.3395 181 80.4756C181 93.6117 165.768 104.978 139.257 111.696L135.693 112.578ZM131.977 80.4756C135.463 87.9259 138.445 95.6016 140.903 103.451C161.084 97.768 173.426 89.1105 173.426 80.4756C173.426 71.8407 161.05 63.1888 140.903 57.5001C138.427 65.3433 135.446 73.0179 131.977 80.4756ZM40.0349 57.4718L39.0338 53.9376C31.5788 27.6654 33.847 8.81789 45.25 2.24701C56.4437 -4.20513 74.3853 3.4232 93.2093 22.7457L95.7716 25.3695L93.2093 27.9933C86.5245 34.9466 80.4164 42.4318 74.9453 50.375L73.9159 51.817L72.1455 51.9641C62.5212 52.7235 52.9743 54.261 43.5984 56.5614L40.0349 57.4718ZM54.3509 7.49466C52.3203 7.49466 50.5216 7.90747 49.0171 8.78962C41.5338 13.1212 40.2103 28.1404 45.3631 48.4015C53.4032 46.6035 61.5524 45.3341 69.7585 44.6015C74.4829 37.8745 79.649 31.4685 85.2227 25.4261C73.469 13.9694 62.3319 7.48901 54.3509 7.48901V7.49466ZM126.677 160.994C126.649 160.994 126.649 160.994 126.677 160.994C115.925 160.994 102.107 152.925 87.7907 138.2L85.2284 135.576L87.7907 132.952C94.4755 125.999 100.584 118.514 106.055 110.57L107.056 109.128L108.826 108.953C118.463 108.219 128.021 106.681 137.402 104.356L140.965 103.474L141.966 107.008C149.421 133.28 147.153 152.099 135.75 158.665C132.993 160.249 129.857 161.052 126.677 160.989V160.994ZM95.7716 135.519C107.525 146.976 118.662 153.456 126.643 153.456H126.672C128.674 153.456 130.473 153.015 131.977 152.162C139.461 147.83 140.818 132.811 135.631 112.55C127.593 114.35 119.443 115.61 111.236 116.321C106.512 123.058 101.346 129.473 95.7716 135.525V135.519ZM140.965 57.4718L137.402 56.5614C128.015 54.2687 118.459 52.7313 108.826 51.9641L107.056 51.817L106.055 50.375C100.584 42.4318 94.4755 34.9466 87.7907 27.9933L85.2284 25.3695L87.7907 22.7457C106.615 3.4232 124.556 -4.20513 135.75 2.24701C147.153 8.81223 149.421 27.6654 141.966 53.9376L140.965 57.4718ZM111.241 44.6015C119.448 45.3321 127.597 46.6015 135.637 48.4015C140.824 28.1404 139.466 13.1155 131.983 8.78962C124.528 4.49196 110.506 11.0855 95.7773 25.4317C101.336 31.4872 106.501 37.8921 111.241 44.6072V44.6015ZM54.3509 160.994C51.1664 161.051 48.0159 160.259 45.25 158.67C33.847 152.105 31.5788 133.28 39.0338 107.014L40.0349 103.479L43.5984 104.361C52.3203 106.572 61.9246 108.099 72.1455 108.959L73.9159 109.134L74.917 110.576C80.3881 118.519 86.4963 126.005 93.1811 132.958L95.7433 135.582L93.1811 138.205C78.8934 152.931 65.0752 161 54.3509 161V160.994ZM45.3688 112.55C40.182 132.811 41.5395 147.836 49.0227 152.162C56.4777 156.403 70.4712 149.866 85.2284 135.519C79.6544 129.467 74.4884 123.052 69.7642 116.316C61.5571 115.606 53.4069 114.346 45.3688 112.544V112.55ZM90.5 117.288C84.2838 117.288 77.9205 117.023 71.5289 116.491L69.7585 116.344L68.7291 114.874C65.1188 109.688 61.7277 104.352 58.5648 98.882C55.3953 93.4114 52.4572 87.8101 49.758 82.0929L48.9944 80.4756L49.758 78.8583C55.1656 67.4264 61.5109 56.462 68.7291 46.0774L69.7585 44.6072L71.5289 44.4601C84.154 43.397 96.846 43.397 109.471 44.4601L111.241 44.6072L112.271 46.0774C119.498 56.4561 125.844 67.4213 131.242 78.8583L132.006 80.4756L131.242 82.0929C125.855 93.5355 119.509 104.502 112.271 114.874L111.241 116.344L109.471 116.491C103.161 117.019 96.832 117.285 90.5 117.288V117.288ZM73.9442 109.1C85.0813 109.954 95.9187 109.954 107.084 109.1C113.311 99.9841 118.845 90.4138 123.64 80.4699C118.866 70.5096 113.321 60.9371 107.056 51.8396C96.0351 50.9858 84.9649 50.9858 73.9442 51.8396C67.6749 60.9343 62.1298 70.5071 57.36 80.4699C62.1561 90.4188 67.7 99.9897 73.9442 109.1V109.1Z" fill="white"/>
</svg>
