<svg width="15" height="15" viewBox="0 0 15 15" fill="none" xmlns="http://www.w3.org/2000/svg">
<path d="M0.499924 0C0.428355 1.08429e-05 0.357622 0.015386 0.292507 0.0450862C0.227391 0.0747865 0.16941 0.11812 0.122483 0.172157C0.0755565 0.226194 0.0407771 0.289675 0.020496 0.358311C0.000214798 0.426946 -0.0050954 0.499136 0.00492428 0.57L2.00492 14.57C2.02179 14.6893 2.08115 14.7985 2.1721 14.8775C2.26304 14.9565 2.37946 15 2.49992 15H12.4999C12.6204 15 12.7368 14.9565 12.8277 14.8775C12.9187 14.7985 12.9781 14.6893 12.9949 14.57L14.2189 6H9.37292L9.03992 10H5.95992L5.54292 5H14.3629L14.9949 0.57C15.0049 0.499136 14.9996 0.426946 14.9794 0.358311C14.9591 0.289675 14.9243 0.226194 14.8774 0.172157C14.8304 0.11812 14.7725 0.0747865 14.7073 0.0450862C14.6422 0.015386 14.5715 1.08429e-05 14.4999 0L0.499924 0Z" fill="white"/>
</svg>
