<svg width="52" height="52" viewBox="0 0 52 52" fill="none" xmlns="http://www.w3.org/2000/svg">
<path d="M50 26C50.0041 29.1612 49.3816 32.2918 48.1687 35.211C46.9557 38.1302 45.1763 40.7801 42.9332 43.0076C40.7085 45.2284 38.0679 46.989 35.1624 48.1888C32.2569 49.3886 29.1435 50.0041 26 50C12.7448 50 2.00002 39.2552 2.00002 26C1.99163 19.8461 4.35547 13.9258 8.60002 9.47002C10.8396 7.10674 13.5379 5.22531 16.5298 3.94088C19.5216 2.65644 22.7441 1.99602 26 2.00002C29.1435 1.99595 32.2569 2.6114 35.1624 3.81119C38.0679 5.01099 40.7085 6.77161 42.9332 8.99242C45.1763 11.2199 46.9557 13.8698 48.1687 16.789C49.3816 19.7082 50.0041 22.8388 50 26V26Z" stroke="#333" stroke-width="4" stroke-linecap="round" stroke-linejoin="round"/>
<path d="M49.9996 25.9995C46.498 25.9995 36.838 24.6795 28.192 28.4751C18.7996 32.5995 11.9992 38.9967 9.03516 42.9759" stroke="#333" stroke-width="4" stroke-linecap="round" stroke-linejoin="round"/>
<path d="M17 3.74414C20.756 7.21094 28.952 16.0381 32 24.7993C35.048 33.5617 36.176 44.3353 36.872 47.4013" stroke="#333" stroke-width="4" stroke-linecap="round" stroke-linejoin="round"/>
<path d="M2.18555 23.0016C6.71915 23.2752 18.7203 23.5212 26.4003 20.2416C34.0803 16.962 40.6887 10.9296 42.9555 9.01562M3.80075 35.1372C5.91552 40.2563 9.72959 44.4903 14.6007 47.1264" stroke="#333" stroke-width="4" stroke-linecap="round" stroke-linejoin="round"/>
</svg>
