<svg width="38" height="37" viewBox="0 0 38 37" fill="none" xmlns="http://www.w3.org/2000/svg">
<path d="M36.9646 16.8512L20.8088 0.698064C20.5876 0.476757 20.325 0.301201 20.0359 0.181425C19.7468 0.0616491 19.437 0 19.1241 0C18.8112 0 18.5013 0.0616491 18.2123 0.181425C17.9232 0.301201 17.6605 0.476757 17.4393 0.698064L14.0861 4.05125L18.3413 8.30632C18.8431 8.13498 19.383 8.10818 19.8994 8.22897C20.4157 8.34975 20.8877 8.61327 21.2615 8.98943C21.6352 9.36559 21.8957 9.83926 22.0132 10.3564C22.1306 10.8735 22.1004 11.4132 21.9258 11.9139L26.026 16.0163C26.6326 15.8027 27.2939 15.8021 27.901 16.0145C28.508 16.2269 29.0246 16.6397 29.3657 17.1849C29.7069 17.7301 29.8522 18.3751 29.7777 19.0139C29.7032 19.6527 29.4135 20.2471 28.9561 20.6992C28.4931 21.1651 27.8827 21.4557 27.2292 21.5215C26.5756 21.5873 25.9196 21.4242 25.373 21.06C24.8264 20.6958 24.4232 20.1531 24.2323 19.5247C24.0414 18.8962 24.0746 18.221 24.3263 17.6143L20.5035 13.7894V23.8558C21.0846 24.1435 21.5495 24.6215 21.8208 25.2104C22.0921 25.7992 22.1534 26.4632 21.9945 27.0918C21.8355 27.7203 21.466 28.2754 20.9474 28.6645C20.4288 29.0537 19.7925 29.2533 19.1446 29.2301C18.4966 29.207 17.8762 28.9625 17.3867 28.5374C16.8972 28.1123 16.5681 27.5322 16.4544 26.8939C16.3407 26.2557 16.4492 25.5977 16.7619 25.0297C17.0745 24.4617 17.5723 24.018 18.1724 23.7726V13.6136C17.8262 13.4717 17.5115 13.2628 17.2464 12.9987C16.9814 12.7346 16.7712 12.4207 16.628 12.075C16.4848 11.7294 16.4115 11.3588 16.4122 10.9846C16.4129 10.6105 16.4877 10.2402 16.6322 9.89504L12.4395 5.70009L1.36214 16.7772C1.14083 16.9984 0.965272 17.261 0.845492 17.5501C0.725713 17.8391 0.664063 18.1489 0.664062 18.4618C0.664063 18.7747 0.725713 19.0846 0.845492 19.3736C0.965272 19.6627 1.14083 19.9253 1.36214 20.1465L17.518 36.3019C17.7392 36.5232 18.0018 36.6988 18.2909 36.8186C18.58 36.9384 18.8898 37 19.2027 37C19.5156 37 19.8254 36.9384 20.1145 36.8186C20.4036 36.6988 20.6662 36.5232 20.8874 36.3019L36.9669 20.2228C37.4133 19.7758 37.6641 19.1699 37.6641 18.5382C37.6641 17.9064 37.4133 17.3005 36.9669 16.8535" fill="#333333"/>
</svg>
