<svg width="37" height="37" viewBox="0 0 37 37" fill="none" xmlns="http://www.w3.org/2000/svg">
<path fill-rule="evenodd" clip-rule="evenodd" d="M37 37H0V0H37V37ZM29.3695 15.6827V12.813C28.8969 12.6025 26.1904 11.8284 24.0523 12.6442C20.9724 13.8194 21.083 17.3597 22.2517 18.7492C23.7661 20.5495 27.5331 21.2207 26.9166 22.9877C26.5974 23.9027 25.1072 24.062 23.7935 23.7548C22.57 23.4688 21.5063 22.7441 21.5063 22.7441V25.7825C21.5063 25.7825 22.5577 26.3687 23.8482 26.5082C25.5026 26.6869 27.5763 26.3494 28.6152 25.426C30.4645 23.7822 30.7485 20.1407 27.244 18.4498C24.3277 17.0428 24.3757 16.6412 24.3962 15.9195C24.4236 14.9528 26.4531 14.3578 29.3695 15.6827V15.6827ZM13.643 7.62944C16.0695 7.71385 19.6354 8.83216 19.6354 13.6008C19.6354 18.3693 15.2725 19.9341 11.2914 19.5932V26.3452H8.32572V7.69268C8.32572 7.69268 11.2164 7.54504 13.643 7.62944H13.643ZM14.4132 16.6392C15.692 16.1725 16.5232 15.1694 16.5232 13.6112C16.5232 11.9592 15.6773 10.8404 14.3836 10.5244C12.9827 10.1821 11.2914 10.3838 11.2914 10.3838V16.8909C11.2914 16.8909 13.6325 16.924 14.4132 16.6392V16.6392Z" fill="white"/>
</svg>
