<svg width="32" height="32" viewBox="0 0 32 32" fill="none" xmlns="http://www.w3.org/2000/svg">
<path d="M25.9995 21V20C25.9995 19.7348 26.1048 19.4804 26.2924 19.2929C26.4799 19.1054 26.7343 19 26.9995 19C27.2647 19 27.519 19.1054 27.7066 19.2929C27.8941 19.4804 27.9995 19.7348 27.9995 20V30H29.9995V20C29.9987 19.2046 29.6824 18.442 29.1199 17.8796C28.5575 17.3171 27.7949 17.0008 26.9995 17C26.4829 17.0033 25.9762 17.1415 25.5295 17.401C25.1247 16.7458 24.48 16.2745 23.7328 16.0877C22.9856 15.9009 22.195 16.0133 21.5295 16.401C21.2605 15.9727 20.8873 15.6196 20.4449 15.3746C20.0025 15.1297 19.5052 15.0008 18.9995 15C18.658 15.0035 18.3196 15.0661 17.9995 15.185V10C17.9995 9.20435 17.6834 8.44129 17.1208 7.87868C16.5582 7.31607 15.7951 7 14.9995 7C14.2038 7 13.4408 7.31607 12.8782 7.87868C12.3155 8.44129 11.9995 9.20435 11.9995 10V21.105L9.76447 19.575V19.576C9.1538 19.1298 8.39708 18.9308 7.64589 19.0188C6.8947 19.1069 6.20453 19.4755 5.71363 20.0509C5.22273 20.6263 4.96736 21.3659 4.99867 22.1216C5.02998 22.8773 5.34566 23.5932 5.88247 24.126L12.3225 30L13.6695 28.522L7.29147 22.704C7.1987 22.6118 7.12513 22.5021 7.07501 22.3812C7.02489 22.2604 6.99922 22.1308 6.99947 22C6.99947 21.8143 7.05119 21.6322 7.14882 21.4743C7.24646 21.3163 7.38615 21.1886 7.55226 21.1056C7.71837 21.0225 7.90432 20.9874 8.08928 21.004C8.27424 21.0207 8.4509 21.0886 8.59947 21.2L13.9995 24.895V10C13.9995 9.73478 14.1048 9.48043 14.2924 9.29289C14.4799 9.10536 14.7343 9 14.9995 9C15.2647 9 15.519 9.10536 15.7066 9.29289C15.8941 9.48043 15.9995 9.73478 15.9995 10V21H17.9995V18C17.9995 17.7348 18.1048 17.4804 18.2924 17.2929C18.4799 17.1054 18.7343 17 18.9995 17C19.2647 17 19.519 17.1054 19.7066 17.2929C19.8941 17.4804 19.9995 17.7348 19.9995 18V21H21.9995V19C21.9995 18.7348 22.1048 18.4804 22.2924 18.2929C22.4799 18.1054 22.7343 18 22.9995 18C23.2647 18 23.519 18.1054 23.7066 18.2929C23.8941 18.4804 23.9995 18.7348 23.9995 19V21H25.9995Z" fill="white"/>
<path d="M28 12H22V10H28V4H4V10H8V12H4C3.46973 11.9995 2.96133 11.7886 2.58637 11.4136C2.21141 11.0387 2.00053 10.5303 2 10V4C2.00053 3.46973 2.21141 2.96133 2.58637 2.58637C2.96133 2.21141 3.46973 2.00053 4 2H28C28.5303 2.00053 29.0387 2.21141 29.4136 2.58637C29.7886 2.96133 29.9995 3.46973 30 4V10C29.9995 10.5303 29.7886 11.0387 29.4136 11.4136C29.0387 11.7886 28.5303 11.9995 28 12V12Z" fill="white"/>
</svg>
