<svg width="30" height="33" viewBox="0 0 30 33" fill="none" xmlns="http://www.w3.org/2000/svg">
<path d="M28.2153 15.76C28.2143 14.8419 27.9091 13.9499 27.3475 13.2235C26.786 12.4972 25.9996 11.9772 25.1113 11.745L29.0954 0H9.35535L13.3513 11.787C12.4892 12.0376 11.7313 12.5607 11.1912 13.278C10.6512 13.9952 10.3579 14.8681 10.3553 15.766C10.3553 17.157 11.0483 18.391 12.1063 19.151C11.6828 19.7505 11.1993 20.3054 10.6633 20.807C9.67672 21.7457 8.52321 22.4915 7.26235 23.006C6.14735 22.255 5.66935 20.927 6.10135 19.746C10.6323 18.334 9.63235 11.657 4.89335 11.637C3.79268 11.6378 2.73732 12.0754 1.95903 12.8537C1.18074 13.632 0.743144 14.6873 0.742349 15.788C0.742349 16.919 1.19935 17.955 1.94535 18.699C1.87735 18.824 1.81435 18.96 1.74635 19.095C1.12735 20.376 0.423349 21.819 0.153349 23.439C-0.382651 26.684 0.497349 29.288 2.62235 30.762C3.77107 31.5726 5.14343 32.0059 6.54935 32.002C8.98135 32.002 11.4563 30.778 13.8463 29.59C15.5543 28.751 17.3144 27.871 19.0434 27.445C19.6844 27.289 20.3513 27.196 21.0543 27.09C22.4813 26.887 23.9553 26.674 25.2783 25.903C26.035 25.4706 26.6878 24.8776 27.1907 24.1658C27.6937 23.454 28.0345 22.6407 28.1894 21.783C28.4096 20.4764 28.2016 19.1337 27.5963 17.955C27.9973 17.314 28.2163 16.57 28.2163 15.762L28.2153 15.76ZM26.4083 15.76C26.4076 16.3785 26.1615 16.9715 25.7242 17.4088C25.2868 17.8462 24.6939 18.0922 24.0753 18.093C21.8663 18.088 20.8983 15.302 22.6313 13.926L22.6363 13.917C22.7153 13.86 22.7993 13.802 22.8763 13.749C22.8763 13.749 22.8923 13.749 22.8923 13.74C22.9283 13.719 22.9643 13.693 23.0013 13.672C23.0123 13.672 23.0174 13.667 23.0264 13.667C23.0634 13.646 23.1103 13.631 23.1573 13.61C23.2043 13.589 23.2503 13.574 23.2883 13.553C23.2973 13.553 23.3033 13.548 23.3133 13.548C23.3503 13.537 23.3923 13.517 23.4283 13.512C23.4333 13.512 23.4553 13.501 23.4653 13.501C23.5123 13.49 23.5483 13.48 23.5943 13.474H23.5993L23.7403 13.443C23.7493 13.443 23.7654 13.443 23.7764 13.432C23.8124 13.432 23.8493 13.421 23.8913 13.421H23.9324C23.9794 13.421 24.0253 13.416 24.0833 13.416H24.2034C24.2404 13.416 24.2714 13.416 24.3074 13.421H24.3233C24.3963 13.432 24.4743 13.442 24.5473 13.464C25.0735 13.5756 25.5454 13.8646 25.884 14.2825C26.2226 14.7005 26.4074 15.2221 26.4073 15.76H26.4083ZM11.9393 1.855H26.5124L23.1684 11.719C23.0274 11.746 22.8923 11.792 22.7513 11.839L19.2313 4.662L15.6993 11.793C15.556 11.7503 15.4101 11.7173 15.2624 11.694L11.9393 1.855ZM18.5644 14.953C18.3934 14.0979 17.9554 13.3191 17.3133 12.729L19.2303 8.86L21.1673 12.812C20.575 13.3935 20.1706 14.1393 20.0063 14.953H18.5644ZM13.9233 13.489C13.9663 13.4772 14.0101 13.4689 14.0543 13.464H14.0793C14.1163 13.453 14.1523 13.453 14.1883 13.443H14.2253C14.2613 13.443 14.2933 13.432 14.3293 13.432H14.6883C14.7253 13.432 14.7563 13.443 14.7833 13.443C14.8033 13.443 14.8083 13.443 14.8303 13.454C14.8663 13.465 14.8933 13.465 14.9293 13.47C14.9403 13.47 14.9504 13.47 14.9704 13.479L15.0954 13.506H15.1063C15.1423 13.517 15.1853 13.527 15.2213 13.547C15.2263 13.547 15.2373 13.552 15.2573 13.552C15.2843 13.563 15.3204 13.573 15.3524 13.588C15.3564 13.588 15.3673 13.599 15.3773 13.599C15.4133 13.62 15.4503 13.631 15.4863 13.646H15.4973C15.5408 13.662 15.5813 13.685 15.6173 13.714H15.6283C15.6643 13.73 15.7003 13.755 15.7373 13.777C15.7463 13.777 15.7463 13.788 15.7573 13.788C15.7943 13.804 15.8203 13.835 15.8563 13.851L15.8673 13.862C15.9763 13.945 16.0803 14.038 16.1863 14.133L16.1903 14.138C16.6073 14.575 16.8374 15.153 16.8314 15.751C16.7324 18.762 12.2633 18.762 12.1643 15.751C12.1593 14.684 12.8883 13.751 13.9243 13.491L13.9233 13.489ZM4.80335 13.421C5.4229 13.421 6.01707 13.6671 6.45515 14.1052C6.89324 14.5433 7.13935 15.1375 7.13935 15.757C7.13935 16.3765 6.89324 16.9707 6.45515 17.4088C6.01707 17.8469 5.4229 18.093 4.80335 18.093C3.51835 18.093 2.47035 17.046 2.47035 15.76C2.47035 14.474 3.51835 13.421 4.80335 13.421ZM26.3553 21.459C26.2488 22.0511 26.0137 22.6126 25.6666 23.104C25.3195 23.5954 24.8688 24.0047 24.3463 24.303C23.3353 24.886 22.0903 25.074 20.7893 25.255C20.054 25.349 19.3237 25.4795 18.6013 25.646C16.6743 26.121 14.8203 27.042 13.0223 27.933C10.7263 29.074 8.55935 30.146 6.54935 30.146C5.51824 30.1525 4.51163 29.8318 3.67435 29.23C1.63735 27.823 1.73735 25.183 1.98135 23.735C2.20035 22.38 2.82035 21.115 3.41335 19.902C3.45635 19.829 3.48135 19.761 3.51835 19.689C3.72135 19.761 3.93435 19.818 4.15835 19.856C3.80335 21.819 4.80335 23.851 6.75135 24.851L7.10035 25.032L7.48035 24.897C9.10035 24.318 10.6053 23.386 11.9283 22.137C12.6618 21.4545 13.3089 20.6847 13.8553 19.845C14.8715 20.0009 15.9094 19.7747 16.7686 19.2101C17.6277 18.6455 18.2472 17.7826 18.5073 16.788H20.0644C20.2946 17.6766 20.8134 18.4637 21.5394 19.0255C22.2654 19.5873 23.1574 19.8921 24.0753 19.892C24.8463 19.892 25.5594 19.679 26.1684 19.319C26.4084 20.012 26.4853 20.735 26.3553 21.459Z" fill="white"/>
</svg>
