<svg width="25" height="37" viewBox="0 0 25 37" fill="none" xmlns="http://www.w3.org/2000/svg">
<path fill-rule="evenodd" clip-rule="evenodd" d="M6.80656 0C3.0341 0 9.79032e-05 3.16504 9.79032e-05 7.04233C9.79032e-05 9.39954 1.12243 11.4931 2.84756 12.7712C1.95845 13.4373 1.23776 14.3025 0.74328 15.2973C0.248798 16.2922 -0.00573103 17.389 9.79032e-05 18.5C9.79032e-05 20.8587 1.12243 22.9508 2.84756 24.2288C1.95845 24.895 1.23776 25.7601 0.74328 26.755C0.248798 27.7498 -0.00573103 28.8467 9.79032e-05 29.9577C9.79032e-05 33.835 3.0341 37 6.80656 37C10.5775 37 13.613 33.835 13.613 29.9577V24.0037C14.8052 24.9978 16.308 25.5427 17.8603 25.5439C21.6328 25.5423 24.6668 22.3773 24.6668 18.5C24.673 17.389 24.4186 16.292 23.9241 15.2971C23.4296 14.3022 22.7087 13.437 21.8193 12.7712C22.7084 12.105 23.4291 11.2399 23.9236 10.245C24.4181 9.25015 24.6726 8.15329 24.6668 7.04233C24.6668 3.16504 21.6328 0 17.8603 0H6.80656ZM2.55772 7.04233C2.55772 4.58954 4.47247 2.62546 6.80656 2.62546H11.0538V11.4592H6.80656C4.47247 11.4592 2.55772 9.49358 2.55772 7.04233ZM17.8603 11.4577H13.613V2.62392H17.8603C20.1959 2.62392 22.1091 4.58954 22.1091 7.04233C22.1091 9.49358 20.1959 11.4577 17.8603 11.4577ZM2.55926 18.5C2.55926 16.0487 4.47402 14.0831 6.8081 14.0831H11.0554V22.9169H6.80656C4.47093 22.9169 2.55772 20.9513 2.55772 18.5H2.55926ZM13.613 18.5C13.613 16.0487 15.5278 14.0831 17.8619 14.0831C20.1975 14.0831 22.1107 16.0472 22.1107 18.5C22.1107 20.9513 20.1975 22.9169 17.8619 22.9169C15.5278 22.9169 13.6146 20.9528 13.6146 18.5H13.613ZM2.55926 29.9577C2.55926 27.5064 4.47402 25.5423 6.8081 25.5423H11.0554V29.9577C11.0554 32.4105 9.14372 34.3745 6.8081 34.3745C4.47402 34.3745 2.55926 32.4105 2.55926 29.9577Z" fill="#333333"/>
</svg>
