<svg width="80" height="71" viewBox="0 0 80 71" fill="none" xmlns="http://www.w3.org/2000/svg">
<path d="M40 28.3846C36.0675 28.3846 32.865 31.5791 32.865 35.5017C32.865 39.4243 36.0675 42.6188 40 42.6188C43.9325 42.6188 47.135 39.4243 47.135 35.5017C47.135 31.5791 43.9325 28.3846 40 28.3846ZM20.025 49.6462L18.45 49.2571C6.73 46.2946 0 41.2822 0 35.4892C0 29.6963 6.7325 24.6839 18.45 21.7213L20.025 21.3323L20.4675 22.8909C21.6564 26.9732 23.1764 30.9522 25.0125 34.7885L25.35 35.4892L25.0125 36.2024C23.1726 40.0371 21.6525 44.0164 20.4675 48.1L20.025 49.6462ZM17.7225 25.3572C8.815 27.8509 3.3475 31.6813 3.3475 35.4892C3.3475 39.2972 8.8175 43.1126 17.7225 45.6213C18.8141 42.1616 20.132 38.777 21.6675 35.4892C20.1298 32.2024 18.8119 28.8177 17.7225 25.3572V25.3572ZM59.975 49.6462L59.5325 48.0876C58.3456 44.0086 56.8256 40.0336 54.9875 36.2024L54.65 35.4892L54.9875 34.776C56.8274 30.9413 58.3475 26.962 59.5325 22.8784L59.975 21.3323L61.55 21.7213C73.27 24.6839 80 29.6963 80 35.4892C80 41.2822 73.2675 46.2946 61.55 49.2571L59.975 49.6462ZM58.3325 35.4892C59.8732 38.7748 61.1911 42.1597 62.2775 45.6213C71.1975 43.1151 76.6525 39.2972 76.6525 35.4892C76.6525 31.6813 71.1825 27.8659 62.2775 25.3572C61.1833 28.816 59.8655 32.2004 58.3325 35.4892ZM17.695 25.3447L17.2525 23.7861C13.9575 12.2003 14.96 3.88863 20 0.990916C24.9475 -1.85443 32.8775 1.50961 41.1975 10.0307L42.33 11.1878L41.1975 12.3449C38.2429 15.4112 35.5432 18.7122 33.125 22.2151L32.67 22.851L31.8875 22.9158C27.6337 23.2507 23.4141 23.9288 19.27 24.9432L17.695 25.3447ZM24.0225 3.3051C23.125 3.3051 22.33 3.48714 21.665 3.87617C18.3575 5.78637 17.7725 12.4097 20.05 21.3448C23.6036 20.5519 27.2055 19.9921 30.8325 19.669C32.9206 16.7024 35.204 13.8774 37.6675 11.2127C32.4725 6.16043 27.55 3.30261 24.0225 3.30261V3.3051ZM55.99 70.9975C55.9775 70.9975 55.9775 70.9975 55.99 70.9975C51.2375 70.9975 45.13 67.4389 38.8025 60.9453L37.67 59.7882L38.8025 58.6311C41.7571 55.5647 44.4568 52.2638 46.875 48.7609L47.3175 48.125L48.1 48.0477C52.3593 47.724 56.584 47.0458 60.73 46.0203L62.305 45.6312L62.7475 47.1898C66.0425 58.7757 65.04 67.0749 60 69.9701C58.7815 70.6687 57.3952 71.023 55.99 70.995V70.9975ZM42.33 59.7632C47.525 64.8155 52.4475 67.6734 55.975 67.6734H55.9875C56.8725 67.6734 57.6675 67.4789 58.3325 67.1023C61.64 65.1921 62.24 58.5687 59.9475 49.6337C56.3946 50.4274 52.7923 50.9831 49.165 51.297C47.077 54.2676 44.7936 57.0967 42.33 59.7657V59.7632ZM62.305 25.3447L60.73 24.9432C56.581 23.9321 52.3575 23.2542 48.1 22.9158L47.3175 22.851L46.875 22.2151C44.4568 18.7122 41.7571 15.4112 38.8025 12.3449L37.67 11.1878L38.8025 10.0307C47.1225 1.50961 55.0525 -1.85443 60 0.990916C65.04 3.88614 66.0425 12.2003 62.7475 23.7861L62.305 25.3447ZM49.1675 19.669C52.7946 19.9912 56.3966 20.551 59.95 21.3448C62.2425 12.4097 61.6425 5.78387 58.335 3.87617C55.04 1.98093 48.8425 4.88862 42.3325 11.2152C44.7893 13.8857 47.0723 16.7102 49.1675 19.6715V19.669ZM24.0225 70.9975C22.615 71.0224 21.2225 70.6733 20 69.9726C14.96 67.0774 13.9575 58.7757 17.2525 47.1923L17.695 45.6337L19.27 46.0228C23.125 46.9978 27.37 47.6711 31.8875 48.0502L32.67 48.1275L33.1125 48.7634C35.5307 52.2663 38.2304 55.5672 41.185 58.6336L42.3175 59.7907L41.185 60.9478C34.87 67.4414 28.7625 71 24.0225 71V70.9975ZM20.0525 49.6337C17.76 58.5687 18.36 65.1946 21.6675 67.1023C24.9625 68.9726 31.1475 66.0898 37.67 59.7632C35.2064 57.0942 32.923 54.2651 30.835 51.2945C27.2075 50.9816 23.6053 50.4259 20.0525 49.6312V49.6337ZM40 51.7234C37.2525 51.7234 34.44 51.6062 31.615 51.3718L30.8325 51.307L30.3775 50.6586C28.7818 48.3716 27.283 46.0187 25.885 43.6063C24.4841 41.1938 23.1855 38.7237 21.9925 36.2024L21.655 35.4892L21.9925 34.776C24.3826 29.7346 27.1872 24.8994 30.3775 20.3198L30.8325 19.6715L31.615 19.6066C37.1951 19.1378 42.8049 19.1378 48.385 19.6066L49.1675 19.6715L49.6225 20.3198C52.817 24.8968 55.6217 29.7324 58.0075 34.776L58.345 35.4892L58.0075 36.2024C55.6265 41.2486 52.8215 46.0846 49.6225 50.6586L49.1675 51.307L48.385 51.3718C45.5961 51.6046 42.7987 51.7219 40 51.7234V51.7234ZM32.6825 48.1125C37.605 48.4891 42.395 48.4891 47.33 48.1125C50.0823 44.0924 52.5283 39.8719 54.6475 35.4867C52.5373 31.0943 50.0865 26.8729 47.3175 22.861C42.4465 22.4844 37.5535 22.4844 32.6825 22.861C29.9115 26.8716 27.4607 31.0932 25.3525 35.4867C27.4723 39.8741 29.9227 44.0948 32.6825 48.1125V48.1125Z" fill="white"/>
</svg>
