<?xml version="1.0" standalone="no"?>
<!DOCTYPE svg PUBLIC "-//W3C//DTD SVG 20010904//EN"
 "http://www.w3.org/TR/2001/REC-SVG-20010904/DTD/svg10.dtd">
<svg version="1.0" xmlns="http://www.w3.org/2000/svg"
 width="700.000000pt" height="700.000000pt" viewBox="0 0 700.000000 700.000000"
 preserveAspectRatio="xMidYMid meet">
<metadata>
Created by potrace 1.14, written by Peter Selinger 2001-2017
</metadata>
<g transform="translate(0.000000,700.000000) scale(0.100000,-0.100000)"
fill="#000000" stroke="none">
<path d="M687 6993 c-3 -5 -5 -141 -5 -303 0 -162 -1 -307 -1 -322 l-1 -28
-340 0 -340 0 0 -3170 0 -3170 3165 0 3165 0 0 335 0 335 335 0 335 0 0 3165
0 3165 -3154 0 c-1735 0 -3157 -3 -3159 -7z m6190 -117 c11 -11 9 -6085 -2
-6089 -5 -2 -127 -3 -270 -3 l-260 1 -3 2778 -2 2777 -2770 0 -2770 0 0 268
c0 148 2 271 4 273 7 7 6066 2 6073 -5z m-1764 -692 c-39 -17 -122 -66 -184
-109 -169 -115 -225 -138 -327 -136 -94 2 -138 40 -210 185 -23 47 -42 87 -42
90 0 3 34 6 76 6 65 0 80 -3 107 -24 52 -40 118 -66 168 -66 52 0 92 13 189
58 58 28 77 32 170 34 58 2 109 1 114 -1 5 -3 -22 -19 -61 -37z m-4432 4 c0
-18 1 -1269 1 -2780 l1 -2748 2766 0 2766 0 0 -264 c0 -146 -4 -268 -8 -272
-3 -4 -1375 -7 -3047 -8 -2696 -1 -3040 1 -3041 14 -1 20 -1 6061 0 6078 1 9
64 12 281 12 l280 0 1 -32z m199 25 c-8 -3 -30 -12 -47 -19 -31 -12 -33 -12
-33 7 0 16 7 19 48 18 26 0 40 -3 32 -6z m375 -9 c-58 -44 -335 -178 -433
-208 -22 -7 -23 -6 -20 34 l3 42 100 38 c55 21 136 54 180 74 61 27 93 35 135
35 51 0 54 -1 35 -15z m284 12 c-14 -14 -425 -278 -479 -308 -98 -54 -244
-128 -253 -128 -5 0 -7 19 -5 42 3 47 -3 42 143 109 113 52 218 112 369 211
113 73 123 78 174 78 31 0 53 -2 51 -4z m290 0 c-2 -2 -65 -40 -139 -84 -74
-44 -197 -122 -272 -174 -386 -263 -604 -408 -611 -408 -4 0 -7 21 -7 48 l1
47 121 70 c67 39 232 143 367 233 136 90 275 180 309 200 35 20 76 45 90 54
17 10 49 17 86 17 33 1 57 -1 55 -3z m-81 -212 c-177 -119 -349 -236 -382
-262 -68 -51 -258 -204 -266 -213 -14 -16 -285 -229 -292 -229 -15 0 -9 107 6
113 8 3 141 101 295 216 275 206 514 370 755 518 100 61 127 73 163 73 41 0
34 -5 -279 -216z m482 182 c-138 -85 -219 -142 -411 -291 -113 -88 -221 -171
-239 -185 -163 -123 -266 -214 -460 -409 -124 -125 -246 -242 -272 -259 l-48
-33 0 63 1 63 57 43 c31 23 128 109 217 191 88 81 176 163 195 180 105 97 847
633 915 661 11 5 38 9 60 9 l40 1 -55 -34z m688 4 c34 -16 82 -42 105 -59 79
-54 189 -173 235 -253 30 -54 86 -210 110 -308 21 -86 34 -141 37 -150 0 -3 5
-27 10 -55 4 -27 9 -54 11 -60 1 -5 16 -74 33 -152 39 -174 62 -247 107 -336
52 -105 119 -193 229 -303 141 -140 239 -204 346 -224 121 -23 216 -8 424 70
167 61 232 82 385 120 210 53 305 89 570 221 140 70 282 139 315 154 99 44
357 145 371 145 18 0 19 -59 2 -64 -185 -53 -456 -161 -698 -278 -232 -113
-288 -134 -535 -197 -110 -29 -258 -72 -330 -97 -262 -92 -367 -117 -440 -107
-145 20 -180 34 -290 118 -73 56 -211 191 -265 260 -43 54 -102 157 -134 231
-32 79 -54 163 -105 404 -102 482 -143 583 -295 735 -88 88 -171 137 -291 175
-88 28 -237 35 -313 14 -183 -49 -388 -181 -632 -408 -31 -28 -110 -100 -175
-161 -326 -300 -382 -361 -549 -603 -151 -218 -232 -297 -333 -327 -22 -6 -23
-4 -23 63 l0 70 48 28 c70 41 151 123 282 284 146 180 247 283 420 430 74 63
137 117 140 120 3 3 68 59 145 125 208 178 346 278 476 344 l117 60 213 0 214
1 63 -30z m179 -2 c67 -57 113 -111 167 -193 42 -64 98 -176 101 -205 1 -3 8
-30 18 -60 34 -113 96 -376 131 -555 51 -257 145 -440 318 -616 226 -231 377
-267 673 -162 208 73 325 112 475 158 208 63 259 86 515 233 317 182 584 321
688 358 l37 13 0 -32 c0 -31 -3 -33 -88 -66 -101 -39 -531 -252 -677 -335
-196 -112 -319 -162 -533 -216 -77 -19 -166 -48 -453 -149 -133 -46 -232 -59
-312 -41 -187 44 -439 276 -556 515 -41 82 -74 170 -87 230 -1 6 -7 33 -14 60
-6 28 -14 61 -16 75 -33 183 -93 430 -139 571 -53 161 -178 329 -307 416 -21
14 -38 27 -38 29 0 2 13 4 30 4 19 0 43 -12 67 -32z m148 -29 c107 -145 158
-272 239 -599 39 -155 78 -322 90 -387 67 -348 360 -718 611 -771 95 -20 174
-4 395 78 200 75 193 73 205 75 6 2 80 26 165 55 191 64 269 103 480 238 485
310 696 435 768 457 19 6 22 3 22 -25 0 -23 -6 -33 -25 -40 -111 -42 -626
-337 -807 -462 -113 -77 -296 -153 -603 -248 -49 -16 -156 -53 -238 -84 -174
-66 -266 -84 -359 -67 -69 12 -167 56 -213 96 -163 142 -261 264 -332 415 -53
111 -64 152 -144 515 -89 403 -153 572 -279 729 -64 79 -67 86 -45 86 19 0 36
-15 70 -61z m98 -5 c51 -91 100 -217 136 -349 25 -91 149 -586 155 -620 7 -40
62 -193 87 -246 74 -153 211 -328 313 -398 163 -113 262 -114 531 -8 50 19
173 65 275 102 287 104 379 156 695 387 385 281 648 450 676 433 5 -4 9 -16 9
-29 0 -19 -17 -31 -97 -70 -85 -43 -263 -159 -750 -489 -181 -123 -258 -161
-484 -241 -236 -83 -349 -124 -374 -136 -60 -29 -158 -53 -235 -56 -71 -3 -94
1 -142 20 -189 77 -383 307 -482 568 -13 35 -42 144 -65 243 -129 551 -179
709 -271 864 -28 46 -50 86 -50 88 0 1 8 3 18 3 12 0 31 -23 55 -66z m67 34
c30 -50 102 -280 160 -508 139 -557 187 -696 302 -870 62 -94 190 -219 267
-259 62 -33 65 -33 165 -29 88 4 113 9 191 42 50 20 171 69 270 107 343 134
401 168 735 435 441 352 542 425 663 479 l57 25 0 -29 c0 -26 -8 -33 -82 -71
-113 -58 -156 -87 -438 -299 -135 -102 -299 -226 -365 -275 -67 -50 -170 -116
-230 -147 -104 -54 -152 -74 -355 -149 -47 -18 -148 -57 -225 -88 -135 -53
-144 -56 -236 -56 -89 -1 -99 1 -163 33 -170 87 -336 311 -429 581 -22 61 -78
272 -92 342 -7 34 -97 376 -122 463 -15 50 -48 138 -74 198 -33 76 -43 107
-33 107 8 0 23 -15 34 -32z m77 10 c14 -31 58 -178 76 -258 76 -323 134 -534
197 -720 135 -402 315 -621 525 -638 91 -7 101 -3 570 194 177 74 318 161 451
279 7 5 22 19 35 29 36 29 170 146 204 179 191 182 607 487 665 487 6 0 10
-13 10 -29 0 -22 -6 -31 -22 -36 -34 -10 -152 -81 -248 -149 -72 -51 -321
-247 -356 -280 -6 -6 -24 -22 -40 -35 -16 -13 -63 -54 -104 -91 -245 -217
-358 -285 -720 -435 -296 -123 -344 -139 -430 -139 -64 0 -85 5 -142 33 -182
87 -306 276 -443 676 -13 37 -51 173 -60 213 -31 137 -152 592 -175 654 -35
95 -34 88 -17 88 8 0 18 -10 24 -22z m82 -10 c9 -28 60 -253 75 -328 57 -296
194 -711 298 -900 110 -201 225 -298 364 -308 60 -4 141 12 209 42 528 236
602 281 865 536 262 253 349 331 494 444 111 87 317 226 335 226 6 0 11 -13
11 -29 0 -25 -8 -33 -62 -61 -145 -76 -386 -262 -617 -478 -403 -377 -465
-420 -841 -582 -80 -34 -163 -70 -185 -80 -126 -56 -237 -63 -330 -19 -60 28
-168 132 -217 209 -130 203 -238 510 -343 973 -40 177 -70 296 -90 365 -6 16
-3 22 8 22 9 0 20 -14 26 -32z m71 30 c0 -2 7 -37 16 -78 9 -41 18 -84 20 -95
2 -11 7 -42 10 -70 3 -27 13 -84 21 -125 8 -41 17 -84 19 -95 4 -18 28 -115
38 -155 35 -131 141 -401 216 -555 147 -297 286 -374 520 -285 118 45 415 198
513 264 118 79 147 105 297 261 254 263 328 334 472 447 195 155 388 303 416
317 20 11 22 10 22 -19 0 -24 -8 -35 -42 -56 -60 -37 -250 -179 -393 -293 -66
-52 -219 -194 -341 -316 -304 -304 -392 -373 -618 -484 -290 -143 -414 -191
-491 -191 -147 0 -292 137 -405 385 -72 159 -203 541 -225 656 -3 13 -11 58
-20 99 -8 41 -26 136 -40 210 -15 74 -29 145 -32 158 -4 16 -1 22 11 22 9 0
16 -1 16 -2z m85 -35 c20 -130 25 -164 30 -213 21 -195 66 -361 167 -614 101
-253 169 -382 248 -467 8 -9 37 -31 64 -48 44 -27 59 -31 123 -31 88 0 127 14
327 115 299 152 426 254 661 530 120 141 204 221 375 358 141 113 354 291 380
317 10 10 95 77 108 84 8 5 12 -2 12 -26 -1 -29 -8 -39 -58 -75 -31 -23 -70
-53 -87 -66 -16 -14 -116 -94 -221 -179 -253 -203 -322 -266 -478 -438 -274
-304 -361 -372 -681 -532 -217 -110 -269 -128 -358 -124 -143 5 -256 128 -378
411 -124 291 -201 540 -224 732 -3 26 -15 100 -26 165 -23 139 -23 138 -4 138
9 0 16 -14 20 -37z m89 -5 c3 -24 8 -74 11 -113 24 -323 47 -412 182 -720 70
-160 113 -246 144 -293 129 -192 235 -201 514 -45 170 95 282 173 406 285 21
19 124 140 208 243 138 171 187 218 377 361 83 62 204 160 270 218 95 85 125
106 149 106 l30 0 -26 -23 c-14 -12 -64 -56 -110 -98 -115 -104 -135 -121
-289 -239 -159 -123 -240 -198 -323 -300 -34 -41 -64 -77 -67 -80 -3 -3 -23
-27 -44 -55 -78 -99 -241 -250 -341 -316 -216 -143 -428 -246 -523 -253 -64
-6 -131 25 -193 87 -55 56 -139 215 -232 438 -109 261 -133 356 -162 639 -8
74 -16 143 -21 173 -3 21 0 27 15 27 14 0 20 -10 25 -42z m90 34 c4 -7 9 -67
21 -262 15 -235 41 -323 188 -632 103 -217 155 -282 246 -308 69 -19 200 36
397 169 170 113 272 217 429 435 116 161 190 230 378 352 148 97 220 151 302
226 18 16 41 28 58 28 15 0 27 -2 27 -4 0 -12 -218 -190 -305 -251 -235 -162
-283 -207 -440 -415 -61 -80 -148 -182 -195 -229 -143 -141 -472 -342 -586
-360 -77 -11 -121 5 -182 67 -44 44 -69 86 -141 235 -156 323 -178 384 -205
582 -10 78 -15 131 -22 245 -3 63 -8 118 -11 123 -2 4 5 7 16 7 11 0 22 -3 25
-8z m127 -4 c1 -7 3 -65 4 -128 11 -364 19 -398 162 -685 98 -198 136 -237
223 -237 63 1 117 25 232 104 154 106 243 198 370 386 134 199 212 282 323
341 249 135 356 195 374 212 19 18 81 27 81 12 0 -11 -131 -102 -235 -163
-195 -115 -232 -140 -290 -193 -33 -30 -85 -90 -116 -133 -30 -44 -87 -124
-126 -179 -82 -116 -165 -200 -278 -283 -219 -160 -356 -208 -435 -152 -55 39
-90 97 -202 335 -74 157 -104 238 -114 311 -3 27 -8 58 -10 68 -2 11 -6 98 -9
195 -4 97 -8 182 -10 189 -3 8 6 12 25 12 17 0 30 -6 31 -12z m172 5 c7 -11
15 -100 23 -228 8 -144 26 -237 64 -328 85 -204 155 -258 255 -197 34 22 115
103 201 205 277 326 340 386 469 445 135 62 288 110 352 110 31 0 53 -4 48 -8
-6 -5 -55 -28 -110 -52 -360 -156 -384 -175 -570 -440 -148 -211 -238 -308
-364 -387 -87 -55 -148 -63 -198 -27 -56 41 -148 211 -202 371 -27 80 -30 105
-36 304 -3 96 -8 189 -11 207 -5 32 -4 32 35 32 22 0 42 -3 44 -7z m-1378 -94
c265 -80 413 -260 494 -601 33 -140 52 -221 57 -256 10 -63 62 -267 89 -347
36 -109 86 -208 144 -285 68 -90 264 -278 336 -322 172 -104 337 -108 595 -15
69 25 147 52 173 61 56 19 307 83 357 91 102 17 231 62 419 147 86 38 203 88
261 111 131 52 441 146 458 139 7 -2 12 -16 10 -31 -3 -25 -10 -28 -148 -62
-245 -61 -313 -84 -575 -194 -204 -85 -327 -123 -495 -151 -80 -14 -296 -76
-445 -128 -180 -64 -210 -70 -350 -69 -119 1 -176 19 -287 92 -96 63 -243 203
-318 302 -115 153 -168 297 -256 694 -88 396 -132 504 -253 626 -122 122 -262
179 -437 179 -120 0 -182 -17 -307 -83 -151 -80 -346 -250 -537 -467 -41 -46
-80 -90 -87 -98 -7 -7 -29 -34 -50 -60 -21 -26 -44 -53 -51 -60 -6 -8 -41 -50
-76 -95 -121 -156 -174 -252 -265 -477 -82 -201 -124 -280 -183 -339 -61 -61
-130 -91 -222 -96 l-76 -4 0 77 0 78 58 12 c112 23 198 84 255 180 19 31 67
119 106 195 127 244 154 283 315 466 153 174 500 519 597 594 155 120 310 200
418 216 77 12 202 3 276 -20z m-31 -89 c104 -23 194 -75 275 -158 110 -112
174 -256 217 -492 15 -78 91 -371 121 -465 68 -212 133 -317 287 -470 119
-118 171 -161 247 -204 102 -57 162 -72 282 -70 116 2 223 27 417 99 47 18 92
33 100 35 8 2 35 8 60 15 25 7 52 13 60 15 8 2 42 10 75 18 33 8 96 20 140 27
122 18 211 44 440 130 255 95 425 140 662 176 43 6 43 6 43 -24 0 -33 -10 -38
-99 -47 -24 -2 -51 -7 -60 -9 -9 -3 -38 -8 -65 -11 -128 -14 -264 -50 -482
-125 -144 -50 -301 -95 -364 -104 -19 -3 -44 -7 -55 -10 -11 -2 -40 -7 -65
-10 -85 -11 -250 -56 -448 -120 -108 -35 -219 -68 -245 -71 -203 -30 -362 14
-521 143 -76 61 -256 238 -256 251 0 4 -11 20 -24 35 -43 51 -114 210 -169
381 -30 94 -58 186 -61 205 -84 435 -160 611 -311 725 -100 76 -203 107 -339
104 -180 -3 -339 -87 -548 -288 -161 -154 -314 -345 -433 -540 -123 -202 -169
-317 -260 -646 -26 -93 -61 -204 -78 -245 -85 -208 -212 -326 -373 -348 -49
-7 -121 -8 -156 -3 -5 1 -8 39 -8 85 l0 85 28 -8 c46 -12 148 -2 208 20 79 30
167 119 217 220 20 42 71 179 112 305 42 126 95 270 119 319 115 235 368 571
593 787 262 251 485 341 717 288z m0 -100 c134 -30 251 -122 328 -257 30 -53
80 -219 127 -419 73 -312 163 -549 263 -697 50 -73 201 -224 299 -299 149
-114 257 -149 429 -143 113 4 164 16 390 91 145 49 305 90 385 99 151 18 303
53 526 121 200 61 317 82 544 99 44 4 92 8 108 11 25 4 27 2 27 -31 0 -34 -1
-35 -37 -36 -78 -1 -323 -17 -388 -25 -55 -6 -212 -43 -320 -74 -86 -25 -271
-65 -344 -74 -29 -4 -56 -8 -60 -10 -3 -2 -33 -7 -66 -11 -69 -8 -247 -52
-355 -89 -246 -82 -277 -89 -424 -91 -183 -2 -258 20 -406 123 -85 59 -287
262 -334 335 -92 144 -193 405 -262 682 -87 347 -119 426 -213 527 -128 139
-320 174 -525 97 -238 -89 -571 -452 -746 -814 -88 -181 -118 -281 -206 -685
-64 -298 -119 -423 -237 -543 -133 -135 -258 -197 -427 -213 l-70 -6 0 65 0
64 87 6 c147 10 263 64 365 170 93 96 138 177 183 328 22 71 78 298 91 364 9
49 64 226 89 290 142 360 443 756 706 931 173 115 316 149 473 114z m25 -109
c68 -21 117 -54 173 -114 69 -75 106 -165 173 -417 59 -221 152 -487 214 -615
66 -135 126 -220 221 -314 266 -263 442 -334 737 -297 51 6 198 47 378 106 82
27 180 51 267 65 18 3 44 7 58 10 23 4 104 14 160 20 62 7 125 19 262 51 196
46 233 52 341 61 84 6 145 7 350 4 l67 -1 0 -36 0 -37 -42 7 c-24 4 -135 9
-248 11 -205 4 -279 -3 -460 -43 -25 -6 -65 -14 -90 -17 -24 -4 -47 -8 -50
-10 -3 -1 -32 -6 -65 -10 -33 -3 -75 -8 -92 -11 -18 -2 -48 -6 -65 -8 -18 -3
-60 -8 -93 -11 -88 -10 -166 -29 -363 -89 -98 -30 -206 -62 -242 -72 -88 -23
-265 -27 -354 -8 -128 27 -281 114 -406 230 -25 23 -56 53 -70 66 -77 72 -169
206 -234 343 -61 126 -154 392 -220 630 -76 271 -145 383 -276 450 -50 26 -60
27 -169 23 -109 -3 -121 -5 -191 -39 -263 -126 -550 -468 -686 -819 -69 -180
-95 -285 -139 -580 -55 -364 -82 -452 -178 -595 -87 -128 -265 -275 -418 -343
-67 -30 -169 -59 -229 -64 l-35 -3 -3 51 -3 51 65 6 c232 22 483 196 613 425
49 87 77 174 107 327 14 72 42 215 62 319 45 238 86 367 168 531 162 325 386
582 619 710 138 76 264 94 386 56z m30 -126 c99 -54 149 -139 230 -390 29 -88
70 -214 92 -280 43 -129 140 -360 190 -452 103 -190 326 -410 504 -497 118
-58 198 -76 330 -77 139 0 204 13 495 101 185 56 306 80 475 95 118 10 166 16
260 31 50 8 101 17 115 19 14 2 43 7 65 10 109 18 327 10 520 -20 95 -14 95
-14 95 -49 l0 -32 -112 23 c-62 12 -138 26 -168 30 -104 14 -443 6 -510 -12
-14 -4 -50 -8 -155 -20 -22 -2 -74 -7 -115 -10 -214 -17 -320 -39 -550 -116
-334 -111 -597 -98 -827 42 -108 65 -259 206 -347 323 -76 102 -121 185 -212
391 -32 73 -76 193 -133 362 -150 442 -206 514 -405 515 -73 1 -89 -3 -160
-36 -259 -119 -531 -459 -650 -809 -55 -162 -84 -338 -101 -612 -3 -49 -8
-106 -10 -125 -2 -19 -7 -64 -11 -100 -9 -95 -39 -203 -75 -271 -86 -161 -335
-385 -559 -503 -77 -40 -200 -83 -288 -101 l-32 -7 0 45 c0 47 10 57 52 57 33
0 157 40 228 73 174 81 392 263 493 412 91 133 128 272 152 565 18 225 74 491
134 643 109 273 282 512 486 671 153 119 226 148 360 143 77 -2 98 -7 144 -32z
m-65 -95 c81 -26 157 -153 255 -425 27 -77 60 -167 72 -200 42 -115 140 -330
194 -426 71 -125 131 -206 224 -302 130 -134 255 -215 412 -268 84 -28 108
-32 234 -35 163 -3 244 10 475 80 143 44 216 64 255 72 86 17 143 24 225 29
111 7 201 13 285 20 152 14 187 15 284 15 57 0 106 -2 110 -4 3 -2 31 -7 61
-10 70 -8 162 -30 268 -62 79 -24 82 -26 82 -54 0 -34 -7 -36 -55 -16 -72 31
-254 77 -355 92 -81 12 -150 14 -300 9 -516 -17 -531 -19 -858 -115 -112 -33
-220 -63 -240 -66 -20 -3 -48 -7 -62 -10 -37 -6 -281 -5 -310 1 -14 3 -36 8
-50 11 -38 8 -155 51 -202 75 -174 89 -356 272 -489 494 -72 119 -169 332
-267 585 -124 321 -177 416 -253 456 -56 28 -162 23 -239 -13 -165 -76 -360
-293 -480 -532 -44 -89 -115 -290 -125 -356 -3 -22 -10 -69 -16 -105 -6 -36
-12 -204 -14 -375 -4 -322 -11 -401 -45 -500 -47 -136 -106 -204 -315 -360
-283 -212 -419 -291 -602 -351 -136 -45 -143 -44 -143 5 0 39 0 39 52 51 158
38 311 111 478 230 246 175 398 324 451 444 44 101 56 178 64 436 12 385 29
515 92 705 53 161 137 316 244 451 217 273 423 384 603 324z m-37 -129 c72
-33 141 -152 263 -456 232 -579 478 -909 782 -1050 131 -60 223 -79 393 -79
83 -1 170 2 195 7 52 8 256 63 379 101 178 55 276 66 636 70 353 4 484 -19
783 -140 38 -15 42 -20 42 -51 0 -29 -2 -32 -17 -24 -106 56 -288 123 -395
145 -40 8 -86 18 -103 22 -16 3 -176 8 -355 9 -373 4 -395 1 -650 -74 -91 -27
-181 -53 -200 -57 -19 -4 -37 -8 -40 -9 -239 -55 -488 -32 -689 61 -144 68
-240 145 -371 299 -38 44 -161 218 -168 235 -3 8 -16 32 -29 52 -41 66 -149
288 -232 479 -99 225 -165 343 -215 383 -53 43 -135 44 -220 2 -158 -78 -331
-308 -411 -549 -67 -203 -84 -342 -77 -642 3 -115 5 -298 4 -405 0 -176 -3
-203 -24 -277 -40 -133 -115 -239 -222 -312 -25 -17 -104 -63 -178 -103 -73
-39 -178 -98 -233 -131 -179 -107 -278 -155 -400 -196 -66 -22 -137 -43 -158
-46 l-37 -7 0 36 c0 21 5 38 13 41 6 2 55 15 107 30 157 43 345 145 780 426
139 89 221 196 259 337 30 111 35 166 32 362 -9 562 -6 611 51 805 60 204 183
418 318 556 143 145 280 198 387 150z m-36 -154 c67 -45 114 -124 274 -461
235 -497 479 -809 730 -933 154 -77 317 -108 523 -100 78 4 146 8 150 11 4 2
26 7 50 11 49 7 169 37 262 66 241 73 242 74 500 74 328 0 502 -19 680 -77 72
-23 304 -134 326 -155 8 -8 14 -28 14 -44 l0 -29 -65 40 c-97 59 -231 124
-305 148 -110 34 -199 52 -390 77 -154 20 -418 23 -490 6 -25 -5 -58 -12 -75
-15 -56 -11 -70 -14 -230 -60 -88 -25 -178 -48 -200 -52 -22 -3 -43 -8 -46
-10 -12 -7 -121 -16 -212 -18 -301 -6 -551 82 -727 256 -186 183 -352 432
-537 801 -143 287 -195 366 -265 403 -80 42 -190 -15 -296 -152 -71 -92 -145
-289 -158 -419 -2 -27 -7 -56 -9 -63 -18 -50 -24 -486 -11 -707 16 -268 16
-290 -9 -450 -16 -97 -70 -223 -135 -310 -77 -104 -222 -201 -413 -276 -29
-11 -149 -67 -267 -124 -275 -131 -337 -153 -563 -198 -7 -1 -13 12 -15 33
l-3 35 98 23 c134 31 265 81 402 154 150 80 237 123 396 198 234 110 349 223
410 404 39 115 44 181 38 426 -12 431 -7 758 12 790 1 3 5 28 9 55 22 191 120
405 245 539 110 117 224 156 302 103z m-15 -199 c26 -24 59 -61 74 -83 27 -40
38 -59 148 -262 220 -404 488 -757 655 -861 90 -56 189 -96 297 -122 79 -19
128 -23 289 -25 107 -1 210 1 230 6 33 7 50 11 122 24 14 3 95 24 180 48 155
44 226 61 309 73 55 8 247 8 298 0 20 -3 57 -8 82 -11 25 -3 56 -8 70 -10 14
-3 41 -7 60 -10 159 -26 342 -81 445 -132 61 -31 212 -128 243 -156 20 -18 32
-77 16 -77 -3 0 -27 17 -53 38 -96 80 -220 155 -323 196 -94 37 -329 97 -438
112 -25 3 -48 8 -51 10 -6 4 -123 14 -209 18 -101 5 -210 -13 -439 -74 -124
-33 -244 -62 -266 -65 -22 -4 -51 -9 -65 -12 -44 -9 -292 -10 -375 -1 -235 27
-426 103 -543 218 -144 142 -369 448 -537 730 -199 337 -236 380 -321 380
-103 0 -218 -186 -239 -385 -18 -174 -22 -582 -8 -780 4 -66 8 -199 8 -295 -1
-171 -2 -177 -33 -270 -70 -203 -167 -368 -269 -459 -71 -64 -176 -122 -335
-187 -213 -87 -329 -136 -386 -161 -94 -43 -253 -90 -377 -112 -66 -12 -128
-23 -137 -25 -15 -3 -18 3 -18 34 0 31 3 38 17 36 28 -4 227 41 324 74 49 16
144 55 211 86 68 31 199 87 292 124 231 94 303 137 406 240 62 62 96 106 127
165 50 96 100 242 111 322 9 75 8 256 -2 458 -12 224 -8 521 10 705 7 80 32
195 56 259 39 105 131 223 198 253 8 4 34 7 58 7 37 1 49 -5 88 -41z m7 -251
c21 -23 74 -96 119 -162 181 -267 285 -410 434 -595 193 -240 261 -294 453
-354 134 -42 221 -53 431 -55 230 -2 283 6 575 83 241 64 363 79 498 62 18 -3
55 -8 82 -11 68 -9 343 -80 435 -112 164 -57 294 -134 423 -253 57 -53 67 -67
67 -96 0 -19 -2 -34 -5 -34 -3 0 -42 36 -88 79 -144 139 -230 194 -402 256
-98 36 -350 110 -410 121 -206 39 -341 29 -605 -41 -142 -38 -238 -59 -305
-69 -23 -4 -52 -9 -65 -11 -32 -7 -333 -7 -380 -1 -19 3 -60 8 -90 11 -152 18
-290 66 -397 137 -56 38 -96 77 -164 162 -50 61 -100 122 -111 135 -11 12 -96
123 -189 245 -286 373 -352 446 -401 446 -27 0 -70 -42 -90 -89 -30 -70 -44
-212 -42 -445 1 -235 8 -338 33 -536 28 -217 17 -332 -47 -475 -89 -200 -261
-475 -341 -548 -101 -90 -241 -167 -441 -240 -52 -20 -156 -58 -230 -85 -202
-75 -371 -119 -519 -136 -25 -3 -64 -8 -88 -12 -43 -6 -43 -6 -43 24 0 33 6
37 80 46 47 6 89 13 130 21 14 3 39 8 55 11 90 15 149 35 460 154 457 175 561
240 685 428 71 108 164 293 202 403 32 91 33 99 32 249 0 85 -3 193 -7 240
-21 244 -26 567 -13 757 12 176 65 310 135 345 31 15 38 15 70 2 20 -8 53 -33
74 -57z m38 -318 c34 -27 117 -116 219 -235 14 -16 105 -128 201 -249 169
-211 204 -248 294 -306 70 -44 198 -91 290 -104 22 -4 51 -9 65 -12 45 -10
483 -11 555 -1 39 5 102 16 140 24 90 19 79 17 225 54 205 53 378 69 486 46
16 -4 38 -8 49 -11 104 -22 470 -146 550 -187 118 -59 221 -145 358 -296 42
-47 47 -58 47 -99 0 -26 -4 -43 -8 -37 -5 5 -37 45 -73 89 -129 161 -259 268
-402 328 -79 33 -497 178 -497 172 0 -2 -15 1 -32 6 -35 11 -232 14 -276 5
-15 -3 -38 -7 -52 -10 -14 -2 -99 -22 -190 -44 -200 -49 -260 -60 -370 -70
-84 -7 -424 -8 -530 -2 -115 7 -309 70 -399 129 -72 48 -118 97 -296 321 -198
249 -269 324 -331 352 -43 18 -47 18 -70 3 -47 -30 -57 -75 -57 -245 0 -143 3
-171 42 -360 51 -243 58 -341 31 -438 -24 -85 -51 -134 -165 -297 -50 -71
-136 -196 -189 -278 -158 -237 -232 -306 -441 -407 -138 -67 -554 -210 -695
-239 -108 -23 -130 -26 -325 -46 -33 -4 -68 -9 -77 -11 -14 -4 -18 1 -18 25 0
34 5 36 100 46 36 4 74 9 85 10 11 2 38 6 61 10 118 17 208 40 369 92 555 181
717 278 878 526 113 173 251 404 284 473 75 158 75 255 -2 674 -13 71 -14 443
-1 510 12 66 30 108 50 123 20 14 76 -2 117 -34z m112 -413 c34 -14 81 -61
220 -223 49 -57 112 -124 142 -151 102 -93 294 -172 477 -196 102 -13 405 -14
538 -2 36 4 90 9 120 12 30 2 66 7 80 9 14 3 41 7 60 10 19 3 73 15 120 26 47
11 92 22 100 24 8 2 53 12 99 23 60 15 123 20 226 21 163 2 182 -3 488 -123
356 -140 433 -200 650 -509 45 -62 48 -71 45 -120 l-3 -52 -60 95 c-158 250
-253 349 -425 442 -80 43 -430 189 -521 216 -102 31 -257 28 -429 -9 -345 -73
-352 -75 -457 -84 -40 -4 -85 -9 -100 -11 -15 -2 -154 -6 -308 -9 -313 -5
-306 -6 -595 75 -173 48 -203 52 -241 34 -31 -15 -26 -6 -89 -190 -73 -213
-128 -301 -283 -452 -141 -136 -165 -164 -276 -322 -239 -337 -336 -407 -761
-552 -273 -92 -408 -120 -745 -154 -27 -2 -67 -7 -87 -10 -37 -6 -38 -5 -38
25 0 25 4 31 23 32 12 0 31 2 42 4 11 2 45 7 75 10 53 5 118 13 170 20 14 2
45 7 70 10 139 19 585 155 737 225 165 77 308 197 415 348 158 224 221 310
247 339 16 18 57 65 92 104 110 124 152 193 184 304 26 88 16 238 -30 460 -39
187 -45 258 -26 294 14 25 13 25 54 7z m2367 -558 c120 -48 444 -199 513 -239
143 -85 243 -207 416 -508 67 -116 71 -127 71 -184 0 -39 -3 -58 -10 -51 -5 5
-59 102 -121 214 -61 113 -130 232 -154 266 -52 72 -148 164 -225 212 -83 54
-487 248 -555 268 -59 17 -230 22 -294 10 -14 -3 -46 -8 -71 -11 -25 -4 -74
-12 -110 -20 -64 -13 -126 -25 -165 -30 -11 -2 -49 -8 -85 -13 -36 -6 -92 -13
-125 -17 -33 -3 -94 -10 -135 -15 -41 -5 -100 -12 -130 -15 -30 -3 -66 -8 -80
-10 -14 -2 -50 -6 -80 -10 -30 -3 -82 -9 -115 -14 -33 -5 -146 -9 -251 -9
-262 0 -275 -7 -418 -232 -124 -195 -146 -220 -306 -345 -125 -98 -177 -153
-317 -328 -185 -232 -253 -295 -414 -385 -158 -89 -507 -203 -724 -236 -44 -7
-252 -34 -310 -41 -27 -3 -65 -8 -84 -11 -18 -2 -58 -7 -88 -10 l-54 -5 3 28
c3 31 23 38 143 48 39 3 81 7 95 9 14 2 52 7 85 11 51 5 143 20 260 40 125 23
379 105 553 178 198 85 333 201 517 447 139 184 145 191 298 322 149 127 191
178 292 350 87 147 122 191 177 219 45 23 126 31 193 18 120 -22 291 -28 455
-15 105 8 166 13 360 32 130 12 202 23 400 61 102 19 199 37 215 40 17 3 32 7
34 9 2 2 65 2 140 0 118 -2 145 -6 201 -28z m-103 -75 c67 -17 257 -107 422
-200 250 -140 320 -220 487 -558 48 -99 112 -222 141 -273 53 -92 54 -94 51
-165 l-3 -72 -57 100 c-56 100 -168 318 -168 329 0 3 -27 61 -59 130 -121 254
-207 344 -477 499 -163 93 -287 153 -356 171 -74 20 -289 14 -463 -13 -77 -12
-158 -24 -180 -27 -22 -2 -65 -9 -95 -14 -30 -5 -80 -12 -110 -15 -49 -5 -83
-11 -195 -31 -16 -2 -97 -22 -180 -44 -136 -35 -215 -52 -300 -66 -234 -39
-253 -52 -407 -277 -113 -165 -149 -202 -322 -331 -133 -99 -167 -131 -271
-252 -221 -258 -305 -332 -485 -425 -174 -91 -447 -182 -640 -214 -19 -3 -46
-7 -60 -10 -48 -9 -86 -14 -144 -20 -33 -3 -71 -7 -85 -10 -60 -10 -241 -35
-299 -41 l-62 -7 0 30 c0 17 5 30 13 30 16 0 106 12 132 17 11 2 49 7 85 11
36 3 72 8 80 10 8 2 42 6 75 10 33 3 71 8 85 10 14 2 45 7 70 10 231 29 575
142 771 252 141 79 232 162 384 348 152 186 196 230 319 318 154 110 211 169
318 331 55 83 110 162 122 174 52 58 127 83 291 97 102 8 141 13 228 31 42 8
90 17 105 20 15 2 38 7 52 10 26 6 34 8 90 18 47 8 83 13 225 31 66 8 131 17
145 20 14 2 59 9 100 14 41 6 84 12 95 15 21 4 201 33 245 39 67 10 234 4 287
-10z m-122 -87 c103 -9 208 -53 400 -169 134 -80 232 -155 299 -227 84 -91
130 -178 221 -411 57 -147 221 -469 285 -559 17 -25 20 -41 18 -102 l-3 -73
-56 85 c-99 149 -229 424 -325 685 -110 300 -217 418 -559 614 -49 28 -126 66
-170 83 -75 29 -88 31 -221 32 -166 2 -319 -9 -479 -34 -33 -5 -82 -12 -110
-15 -99 -13 -238 -47 -343 -85 -278 -100 -422 -154 -471 -178 -74 -36 -149
-107 -223 -211 -130 -182 -185 -239 -343 -358 -93 -70 -169 -142 -370 -352
-189 -198 -404 -329 -701 -427 -88 -28 -253 -70 -314 -79 -24 -4 -47 -8 -50
-10 -3 -1 -27 -6 -55 -9 -27 -4 -61 -8 -75 -11 -14 -2 -43 -7 -65 -10 -40 -5
-106 -15 -135 -20 -8 -1 -35 -6 -60 -10 -25 -4 -54 -9 -65 -11 -20 -4 -128
-21 -192 -29 -31 -5 -33 -3 -33 24 0 32 7 35 105 46 28 3 73 10 100 15 81 15
105 19 271 40 88 12 166 23 174 25 8 2 31 7 50 10 116 19 338 84 455 132 286
119 419 216 640 468 99 113 182 194 249 240 183 127 243 187 377 376 44 63 94
128 111 145 44 47 112 80 245 120 65 19 195 59 288 89 248 78 209 70 535 115
124 17 239 33 255 35 17 3 80 8 140 11 61 4 112 8 113 10 2 1 9 1 15 -1 7 -2
39 -6 72 -9z m-135 -100 c108 -6 132 -10 198 -32 117 -39 365 -191 469 -288
113 -104 173 -211 263 -471 56 -161 98 -268 150 -380 18 -38 45 -98 61 -133
48 -107 108 -200 164 -258 53 -54 55 -58 55 -110 0 -52 -1 -54 -21 -44 -40 22
-134 126 -172 190 -60 104 -194 428 -268 652 -74 223 -102 289 -161 385 -118
188 -482 417 -703 440 -105 12 -430 5 -510 -11 -11 -2 -42 -7 -68 -10 -161
-22 -250 -52 -477 -162 -354 -172 -380 -192 -570 -434 -41 -52 -79 -100 -85
-106 -5 -6 -26 -29 -46 -50 -19 -21 -73 -73 -120 -114 -46 -41 -129 -118 -184
-171 -55 -54 -143 -138 -194 -188 -219 -210 -499 -363 -836 -455 -81 -22 -347
-76 -449 -91 -22 -3 -103 -19 -180 -36 -78 -17 -150 -33 -161 -35 -11 -2 -42
-8 -70 -14 -27 -5 -71 -12 -98 -15 l-47 -5 0 35 c0 33 2 35 33 35 18 0 58 4
88 10 30 5 68 12 84 15 17 2 39 7 50 9 11 2 54 11 95 19 122 26 151 31 265 47
447 65 839 224 1085 440 14 12 97 92 185 179 88 86 214 202 280 257 141 118
194 174 315 334 98 128 152 183 221 223 37 22 195 96 384 182 109 49 236 89
346 110 13 3 35 7 49 9 31 6 77 13 155 21 33 4 71 8 85 10 14 2 65 7 115 10
49 4 91 8 93 10 2 1 11 1 20 -1 9 -1 60 -5 112 -8z m-15 -111 c124 -24 205
-53 319 -114 220 -116 357 -251 436 -426 16 -35 54 -144 85 -242 81 -259 178
-521 245 -668 61 -134 159 -245 256 -291 32 -15 34 -19 34 -65 0 -27 -3 -49
-6 -49 -14 0 -123 65 -161 97 -45 36 -117 131 -151 198 -46 92 -165 433 -277
795 -43 139 -90 249 -133 312 -140 203 -465 382 -752 413 -63 6 -272 6 -355
-1 -210 -17 -406 -98 -669 -278 -136 -93 -232 -181 -329 -301 -171 -213 -277
-332 -454 -510 -240 -243 -321 -307 -535 -420 -251 -132 -507 -211 -938 -291
-44 -9 -182 -44 -290 -76 -115 -33 -110 -32 -225 -52 -152 -27 -146 -28 -143
13 3 33 6 36 38 39 72 5 170 24 345 67 99 24 252 58 340 75 321 62 517 122
734 226 150 72 266 145 379 241 147 123 555 536 661 668 181 225 221 261 431
387 266 160 398 213 620 247 98 15 162 19 295 15 94 -2 184 -6 200 -9z m-230
-99 c44 -3 91 -8 105 -11 14 -2 36 -6 50 -9 45 -7 157 -44 236 -77 278 -116
422 -246 507 -461 15 -36 65 -191 112 -344 138 -448 184 -584 226 -665 71
-136 157 -220 297 -286 71 -35 72 -36 72 -74 0 -48 -9 -49 -95 -10 -119 54
-210 131 -280 237 -60 90 -99 196 -195 534 -118 412 -169 568 -213 650 -85
160 -181 238 -427 347 -207 92 -356 126 -560 126 -153 -1 -257 -25 -395 -93
-129 -64 -251 -156 -396 -300 -135 -134 -137 -136 -344 -425 -87 -121 -187
-260 -222 -309 -82 -113 -142 -177 -220 -232 -101 -73 -347 -183 -593 -267
-188 -64 -301 -93 -660 -172 -91 -20 -232 -61 -315 -90 -248 -87 -323 -107
-448 -119 l-57 -6 0 34 0 35 58 6 c90 10 212 41 403 101 97 30 188 57 203 60
14 2 63 13 109 24 45 10 98 22 117 25 185 31 494 126 689 212 290 127 460 240
588 391 32 37 75 88 96 112 57 67 251 310 348 434 107 139 215 246 354 351
241 183 416 258 630 272 50 3 92 7 93 8 2 2 13 2 25 0 12 -2 58 -6 102 -9z
m29 -136 c104 -23 216 -63 378 -135 145 -65 202 -101 265 -168 117 -123 169
-264 328 -879 94 -360 128 -439 243 -561 71 -75 172 -141 277 -182 l80 -31 3
-43 c3 -43 3 -43 -25 -36 -51 12 -167 67 -233 110 -142 92 -245 214 -299 354
-16 42 -45 148 -66 236 -181 779 -254 951 -453 1068 -115 67 -452 200 -562
222 -75 15 -284 14 -340 -1 -153 -40 -299 -139 -421 -284 -82 -98 -134 -181
-259 -410 -365 -668 -455 -765 -800 -856 -95 -25 -239 -58 -295 -68 -16 -3
-91 -19 -166 -35 -74 -17 -151 -33 -170 -36 -19 -3 -86 -17 -149 -30 -63 -13
-126 -26 -140 -29 -193 -36 -300 -68 -489 -148 -241 -103 -323 -128 -456 -143
-96 -11 -95 -11 -95 29 l0 35 58 6 c121 13 254 50 447 124 110 43 218 83 240
89 49 14 280 67 385 88 117 24 454 109 610 154 304 88 418 143 534 256 59 58
111 137 311 467 162 268 249 391 368 522 187 204 400 325 587 334 30 2 56 4
57 5 8 8 173 -8 247 -24z m-68 -140 c95 -25 323 -114 463 -182 175 -85 243
-170 325 -407 45 -130 97 -339 136 -556 69 -373 94 -439 226 -578 114 -120
280 -229 427 -277 39 -13 67 -28 67 -36 0 -16 -1 -16 -100 -15 -70 1 -80 5
-155 48 -111 64 -215 142 -300 226 -130 129 -159 204 -210 528 -46 294 -77
444 -121 577 -71 217 -146 328 -266 393 -123 66 -489 210 -573 224 -197 34
-336 -5 -455 -125 -104 -105 -143 -195 -229 -523 -17 -64 -44 -144 -61 -176
-27 -54 -117 -183 -145 -206 -6 -5 -38 -41 -71 -80 -32 -38 -63 -75 -69 -81
-5 -6 -46 -54 -89 -105 -139 -164 -249 -246 -386 -289 -95 -29 -227 -54 -355
-65 -38 -3 -81 -8 -95 -10 -14 -2 -61 -7 -105 -10 -44 -4 -87 -8 -95 -10 -8
-2 -44 -7 -80 -10 -113 -11 -341 -45 -442 -66 -144 -30 -202 -51 -406 -150
-201 -98 -179 -93 -377 -89 l-90 2 55 12 c110 25 235 72 430 164 141 66 255
106 365 126 69 13 383 66 419 71 41 5 66 8 216 30 52 8 115 17 140 20 25 3 52
8 60 10 8 2 35 7 60 10 83 11 105 15 185 36 90 23 183 63 249 108 73 51 138
119 262 281 197 255 250 340 309 500 67 184 89 239 117 300 104 220 284 375
461 396 28 4 53 8 55 9 10 9 183 -9 248 -25z m-156 -163 c56 -7 111 -24 312
-97 289 -106 364 -151 437 -262 68 -104 132 -300 156 -478 3 -25 8 -52 10 -60
5 -20 18 -141 30 -275 16 -192 31 -258 76 -351 46 -94 170 -210 369 -346 25
-17 24 -17 -45 -17 -70 -1 -71 -1 -153 58 -209 147 -286 254 -306 426 -4 28
-8 68 -11 90 -2 22 -7 83 -10 135 -3 52 -8 113 -10 135 -2 22 -7 69 -10 105
-3 36 -8 72 -10 80 -2 8 -6 32 -9 52 -37 250 -152 446 -306 520 -64 30 -396
143 -485 164 -210 49 -312 -48 -340 -326 -11 -112 -15 -139 -30 -211 -20 -94
-73 -203 -134 -277 -27 -32 -111 -115 -187 -183 -76 -68 -217 -203 -314 -300
-179 -180 -221 -211 -338 -255 -126 -48 -192 -56 -627 -79 -117 -6 -237 -14
-280 -19 -16 -2 -59 -7 -95 -11 -114 -11 -278 -45 -369 -76 -76 -25 -101 -29
-173 -27 l-83 3 90 44 c131 63 249 99 386 116 16 2 64 9 107 14 73 10 109 14
227 25 28 3 91 8 140 11 420 25 510 37 641 85 119 44 181 90 336 254 68 72
190 198 272 280 81 83 167 178 189 210 40 59 80 159 92 226 3 19 8 42 10 50 2
8 7 44 10 80 21 234 98 396 217 456 44 22 146 44 173 38 6 -2 26 -5 45 -7z
m299 -391 c96 -22 197 -73 249 -126 73 -75 148 -248 166 -385 11 -80 21 -197
31 -350 15 -244 26 -297 75 -395 34 -68 121 -162 189 -206 l45 -29 -60 -5
c-103 -9 -112 -5 -188 79 -37 42 -77 94 -88 116 -39 76 -65 195 -83 385 -4 42
-8 80 -21 185 -35 287 -137 478 -277 516 -64 17 -156 6 -204 -24 -56 -35 -98
-90 -184 -240 -122 -213 -196 -279 -553 -498 -63 -38 -131 -95 -235 -195 -203
-197 -243 -229 -347 -281 l-92 -45 -313 0 c-481 1 -563 2 -558 6 2 3 65 8 139
11 250 11 315 14 395 20 181 12 283 33 383 77 92 41 155 91 320 253 180 175
194 187 377 323 214 159 299 268 375 480 23 64 53 149 67 187 28 76 61 120
108 141 30 13 227 13 284 0z m-18 -819 c66 -44 137 -162 215 -361 56 -142 97
-224 142 -283 l24 -33 -23 -1 c-59 -2 -120 0 -129 6 -5 3 -45 66 -89 139 -91
151 -138 203 -219 243 -53 26 -65 28 -182 28 -154 -1 -214 -9 -410 -57 -169
-41 -248 -89 -429 -263 l-98 -95 -59 0 -59 1 25 20 c14 11 86 78 160 148 221
210 215 206 522 330 123 49 253 103 290 120 172 79 262 95 319 58z m-401 -461
c131 -6 221 -33 288 -85 45 -36 112 -111 112 -125 0 -3 -43 -6 -95 -6 -88 0
-100 2 -150 31 -82 46 -145 60 -304 65 -168 5 -234 -7 -323 -61 -48 -30 -65
-35 -117 -35 l-61 0 56 51 c70 63 146 112 207 133 62 21 224 45 267 39 8 -1
62 -4 120 -7z"/>
</g>
</svg>
